<?xml version="1.0" encoding="UTF-8" standalone="no"?>
<!DOCTYPE svg PUBLIC "-//W3C//DTD SVG 1.1//EN" "http://www.w3.org/Graphics/SVG/1.1/DTD/svg11.dtd"
[
<!ATTLIST g
  xmlns:vectornator CDATA #FIXED "http://vectornator.io"
  vectornator:layerName CDATA #IMPLIED >
<!ATTLIST g
  xmlns:vectornator CDATA #FIXED "http://vectornator.io"
  vectornator:mask CDATA #IMPLIED >
<!ATTLIST text
  xmlns:vectornator CDATA #FIXED "http://vectornator.io"
  vectornator:width CDATA #IMPLIED >

<!ATTLIST path
  xmlns:vectornator CDATA #FIXED "http://vectornator.io"
  vectornator:blendMode CDATA #IMPLIED >
<!ATTLIST path
  xmlns:vectornator CDATA #FIXED "http://vectornator.io"
  vectornator:shadowColor CDATA #IMPLIED >
<!ATTLIST path
  xmlns:vectornator CDATA #FIXED "http://vectornator.io"
  vectornator:shadowOpacity CDATA #IMPLIED >
<!ATTLIST path
  xmlns:vectornator CDATA #FIXED "http://vectornator.io"
  vectornator:shadowRadius CDATA #IMPLIED >
<!ATTLIST path
  xmlns:vectornator CDATA #FIXED "http://vectornator.io"
  vectornator:shadowOffset CDATA #IMPLIED >
<!ATTLIST path
  xmlns:vectornator CDATA #FIXED "http://vectornator.io"
  vectornator:shadowAngle CDATA #IMPLIED >

<!ATTLIST image
  xmlns:vectornator CDATA #FIXED "http://vectornator.io"
  vectornator:blendMode CDATA #IMPLIED >
<!ATTLIST image
  xmlns:vectornator CDATA #FIXED "http://vectornator.io"
  vectornator:shadowColor CDATA #IMPLIED >
<!ATTLIST image
  xmlns:vectornator CDATA #FIXED "http://vectornator.io"
  vectornator:shadowOpacity CDATA #IMPLIED >
<!ATTLIST image
  xmlns:vectornator CDATA #FIXED "http://vectornator.io"
  vectornator:shadowRadius CDATA #IMPLIED >
<!ATTLIST image
  xmlns:vectornator CDATA #FIXED "http://vectornator.io"
  vectornator:shadowOffset CDATA #IMPLIED >
<!ATTLIST image
  xmlns:vectornator CDATA #FIXED "http://vectornator.io"
  vectornator:shadowAngle CDATA #IMPLIED >

<!ATTLIST g
  xmlns:vectornator CDATA #FIXED "http://vectornator.io"
  vectornator:blendMode CDATA #IMPLIED >
<!ATTLIST g
  xmlns:vectornator CDATA #FIXED "http://vectornator.io"
  vectornator:shadowColor CDATA #IMPLIED >
<!ATTLIST g
  xmlns:vectornator CDATA #FIXED "http://vectornator.io"
  vectornator:shadowOpacity CDATA #IMPLIED >
<!ATTLIST g
  xmlns:vectornator CDATA #FIXED "http://vectornator.io"
  vectornator:shadowRadius CDATA #IMPLIED >
<!ATTLIST g
  xmlns:vectornator CDATA #FIXED "http://vectornator.io"
  vectornator:shadowOffset CDATA #IMPLIED >
<!ATTLIST g
  xmlns:vectornator CDATA #FIXED "http://vectornator.io"
  vectornator:shadowAngle CDATA #IMPLIED >

<!ENTITY % SVG.filter.extra.content  "| feDropShadow" >
<!ELEMENT feDropShadow EMPTY>
<!ATTLIST feDropShadow
  xmlns:svg CDATA #FIXED "http://www.w3.org/Graphics/SVG/1.1/DTD/svg11.dtd"
  dx CDATA #IMPLIED>
<!ATTLIST feDropShadow
  xmlns:svg CDATA #FIXED "http://www.w3.org/Graphics/SVG/1.1/DTD/svg11.dtd"
  dy CDATA #IMPLIED>
<!ATTLIST feDropShadow
  xmlns:svg CDATA #FIXED "http://www.w3.org/Graphics/SVG/1.1/DTD/svg11.dtd"
  stdDeviation CDATA #IMPLIED>
<!ATTLIST feDropShadow
  xmlns:svg CDATA #FIXED "http://www.w3.org/Graphics/SVG/1.1/DTD/svg11.dtd"
  flood-opacity CDATA #IMPLIED>
<!ATTLIST feDropShadow
  xmlns:svg CDATA #FIXED "http://www.w3.org/Graphics/SVG/1.1/DTD/svg11.dtd"
  in CDATA #IMPLIED>
<!ATTLIST feDropShadow
  xmlns:svg CDATA #FIXED "http://www.w3.org/Graphics/SVG/1.1/DTD/svg11.dtd"
  result CDATA #IMPLIED>
<!ATTLIST feDropShadow
  xmlns:svg CDATA #FIXED "http://www.w3.org/Graphics/SVG/1.1/DTD/svg11.dtd"
  flood-color CDATA #IMPLIED>
]
>
<!-- Created with Vectornator (http://vectornator.io/) -->
<svg height="100%" stroke-miterlimit="10" style="fill-rule:nonzero;clip-rule:evenodd;stroke-linecap:round;stroke-linejoin:round;" version="1.1" viewBox="0 0 2388 1668" width="100%" xml:space="preserve" xmlns="http://www.w3.org/2000/svg" xmlns:vectornator="http://vectornator.io" xmlns:xlink="http://www.w3.org/1999/xlink">
<defs/>
<g id="Laymer-1" vectornator:layerName="Layme'r 1">
<path d="M1426.39 33.8793C1413.75 35.4588 1399.01 39.1442 1382.16 44.9356C1365.32 50.727 1349.79 59.1508 1335.57 70.2071C1321.35 81.2634 1309.25 92.3197 1299.24 103.376C1289.24 114.432 1280.81 120.224 1273.97 120.75C1267.13 121.277 1252.91 119.434 1231.32 115.222C1209.74 111.01 1185.52 108.904 1158.67 108.904C1131.82 108.904 1103.91 110.484 1074.96 113.643C1046 116.801 1021.52 120.75 1001.51 125.489C981.505 130.227 963.342 135.492 947.02 141.283C930.699 147.075 912.272 155.235 891.739 165.765C871.206 176.295 853.305 186.825 838.037 197.354C822.769 207.884 809.87 207.621 799.34 196.565C788.81 185.508 778.807 177.348 769.33 172.083C759.853 166.818 749.85 162.869 739.32 160.237C728.79 157.604 716.944 157.078 703.782 158.657C690.62 160.237 679.564 162.606 670.613 165.765C661.663 168.924 651.923 173.399 641.393 179.191C630.863 184.982 616.911 198.407 599.537 219.467C582.163 240.527 570.58 257.111 564.789 269.22C558.997 281.33 554.786 294.492 552.153 308.707C549.521 322.922 548.204 335.295 548.204 345.825C548.204 356.354 549.521 366.621 552.153 376.624C554.786 386.627 557.944 395.315 561.63 402.685C565.315 410.056 573.476 421.113 586.112 435.854C598.747 450.596 609.54 460.073 618.491 464.285C627.441 468.497 634.285 470.603 639.024 470.603C641.393 470.603 643.762 470.603 646.131 470.603C643.762 480.343 641.393 490.083 639.024 499.823C634.285 519.303 631.127 540.626 629.547 563.791C627.968 586.957 628.494 609.859 631.127 632.498C633.759 655.137 636.655 671.458 639.814 681.462C642.973 691.465 646.395 699.889 650.08 706.733C653.766 713.578 657.451 718.053 661.136 720.159C662.979 721.212 664.822 722.265 666.665 723.318C667.981 720.159 669.297 717 670.613 713.841C671.929 710.682 673.246 707.523 674.562 704.364C675.615 710.419 676.668 716.473 677.721 722.528C679.827 734.637 682.459 744.904 685.618 753.328C688.777 761.751 693.252 770.702 699.044 780.179C704.835 789.655 710.89 797.289 717.208 803.081C723.525 808.872 729.843 812.821 736.161 814.927C739.32 815.98 742.479 817.033 745.638 818.086C745.901 815.453 746.165 812.821 746.428 810.188C746.691 807.556 746.954 804.924 747.218 802.291C751.693 806.503 756.168 810.715 760.643 814.927C769.593 823.351 783.809 832.038 803.289 840.988C822.769 849.938 839.09 855.993 852.252 859.152C865.414 862.311 879.63 863.89 894.898 863.89C910.166 863.89 918.853 865.733 920.959 869.419C923.065 873.104 927.277 877.842 933.595 883.634C936.754 886.529 939.913 889.425 943.072 892.321C942.019 892.847 940.966 893.374 939.913 893.9C937.807 894.953 933.332 893.9 926.487 890.741C919.643 887.582 912.272 885.213 904.375 883.634C896.477 882.054 885.948 881.265 872.785 881.265C859.623 881.265 848.83 882.054 840.406 883.634C831.982 885.213 821.979 888.372 810.396 893.111C804.605 895.48 798.814 897.849 793.022 900.218C792.759 898.639 792.496 897.059 792.232 895.48C791.706 892.321 789.863 888.899 786.704 885.213C783.545 881.528 779.333 879.159 774.068 878.106C768.804 877.053 764.592 877.053 761.433 878.106C758.274 879.159 755.115 881.791 751.956 886.003C748.797 890.215 746.691 896.006 745.638 903.377C744.585 910.748 745.112 917.066 747.218 922.331C749.323 927.596 749.587 930.755 748.007 931.808C747.218 932.334 746.428 932.861 745.638 933.387C742.742 928.912 739.847 924.437 736.951 919.962C731.16 911.011 726.948 905.483 724.315 903.377C721.683 901.271 719.05 899.692 716.418 898.639C713.785 897.586 709.047 897.586 702.203 898.639C695.358 899.692 690.093 902.324 686.408 906.536C682.723 910.748 680.617 915.223 680.09 919.962C679.564 924.7 677.458 927.069 673.772 927.069C670.087 927.069 667.191 927.859 665.085 929.438C662.979 931.018 660.873 934.703 658.767 940.495C656.661 946.286 655.872 952.077 656.398 957.869C656.925 963.66 655.082 968.135 650.87 971.294C646.658 974.453 645.079 980.771 646.131 990.248C647.184 999.725 650.08 1006.04 654.819 1009.2C659.557 1012.36 663.242 1013.94 665.875 1013.94C668.507 1013.94 671.403 1012.36 674.562 1009.2C676.141 1007.62 677.721 1006.04 679.3 1004.46C682.723 1009.2 686.145 1013.94 689.567 1018.68C696.411 1028.16 701.939 1034.74 706.151 1038.42C710.363 1042.11 718.261 1046.32 729.843 1051.06C741.426 1055.8 752.482 1058.43 763.012 1058.95C773.542 1059.48 779.333 1062.64 780.386 1068.43C781.439 1074.22 783.282 1078.17 785.915 1080.28C788.547 1082.38 791.969 1083.17 796.181 1082.65C800.393 1082.12 806.448 1076.86 814.345 1066.85C822.242 1056.85 828.823 1047.11 834.088 1037.63C839.353 1028.16 841.986 1021.31 841.986 1017.1C841.986 1014.99 841.986 1012.89 841.986 1010.78C849.093 1011.57 856.201 1012.36 863.309 1013.15C877.524 1014.73 888.054 1016.84 894.898 1019.47C901.742 1022.1 907.27 1034.47 911.482 1056.59C915.694 1078.7 919.643 1091.86 923.328 1096.07C927.014 1100.28 931.489 1103.71 936.754 1106.34C942.019 1108.97 944.914 1113.71 945.441 1120.55C945.967 1127.4 949.39 1133.98 955.707 1140.3C962.025 1146.62 967.29 1150.04 971.502 1150.56C975.714 1151.09 979.136 1149.77 981.769 1146.62C984.401 1143.46 985.981 1139.77 986.507 1135.56C987.034 1131.35 992.298 1129.24 1002.3 1129.24C1012.31 1129.24 1018.89 1130.03 1022.05 1131.61C1025.2 1133.19 1028.63 1133.98 1032.31 1133.98C1036 1133.98 1039.42 1132.66 1042.58 1130.03C1045.74 1127.4 1047.84 1124.24 1048.9 1120.55C1049.42 1118.71 1049.95 1116.87 1050.48 1115.03C1051.27 1116.61 1052.06 1118.18 1052.84 1119.76C1054.42 1122.92 1055.48 1131.35 1056 1145.04C1056.53 1158.72 1055.74 1167.67 1053.63 1171.89C1051.53 1176.1 1046.79 1181.89 1039.42 1189.26C1032.05 1196.63 1021.26 1203.21 1007.04 1209C992.825 1214.8 982.295 1220.06 975.451 1224.8C968.606 1229.54 964.921 1234.54 964.395 1239.8C963.868 1245.07 958.077 1251.91 947.02 1260.34C935.964 1268.76 925.961 1278.24 917.01 1288.77C908.06 1299.3 900.426 1311.41 894.108 1325.1C887.79 1338.78 884.631 1352.21 884.631 1365.37C884.631 1378.53 887.79 1395.38 894.108 1415.91C900.426 1436.45 906.744 1454.35 913.062 1469.62C919.38 1484.89 927.277 1499.1 936.754 1512.26C946.231 1525.42 950.443 1533.59 949.39 1536.74C948.337 1539.9 941.229 1543.33 928.067 1547.01C914.904 1550.7 903.848 1554.64 894.898 1558.86C885.948 1563.07 879.63 1566.75 875.944 1569.91C872.259 1573.07 870.679 1578.86 871.206 1587.29C871.732 1595.71 873.838 1603.35 877.524 1610.19C881.209 1617.03 884.895 1620.46 888.58 1620.46C892.265 1620.46 896.214 1622.56 900.426 1626.77C904.638 1630.99 908.587 1633.88 912.272 1635.46C915.957 1637.04 920.433 1637.83 925.698 1637.83C930.962 1637.83 937.28 1636.25 944.651 1633.09C952.022 1629.93 964.131 1628.09 980.979 1627.56C997.827 1627.04 1017.57 1623.35 1040.21 1616.51C1062.85 1609.66 1075.22 1605.45 1077.33 1603.87C1079.43 1602.29 1081.28 1599.13 1082.85 1594.39C1084.43 1589.66 1085.22 1584.39 1085.22 1578.6C1085.22 1572.81 1084.43 1567.28 1082.85 1562.02C1081.28 1556.75 1078.38 1552.28 1074.17 1548.59C1069.96 1544.9 1067.06 1541.22 1065.48 1537.53C1063.9 1533.85 1062.85 1517.26 1062.32 1487.78C1061.8 1458.3 1059.16 1439.34 1054.42 1430.92C1049.69 1422.5 1047.32 1417.23 1047.32 1415.13C1047.32 1413.02 1048.9 1409.86 1052.06 1405.65C1055.21 1401.44 1058.9 1399.33 1063.11 1399.33C1067.32 1399.33 1073.64 1404.07 1082.06 1413.55C1090.49 1423.02 1101.55 1432.76 1115.23 1442.77C1128.92 1452.77 1139.72 1458.3 1147.61 1459.35C1155.51 1460.4 1168.15 1455.14 1185.52 1443.56C1202.89 1431.97 1218.43 1418.55 1232.11 1403.28C1245.8 1388.01 1255.28 1378.8 1260.55 1375.64C1265.81 1372.48 1271.6 1370.9 1277.92 1370.9C1284.24 1370.9 1289.77 1371.69 1294.5 1373.27C1299.24 1374.85 1306.61 1378.53 1316.62 1384.33C1326.62 1390.12 1334.52 1395.65 1340.31 1400.91C1346.1 1406.17 1350.05 1411.7 1352.15 1417.49C1354.26 1423.29 1355.58 1430.39 1356.1 1438.82C1356.63 1447.24 1358.47 1454.61 1361.63 1460.93C1364.79 1467.25 1373.48 1478.04 1387.69 1493.31C1401.91 1508.58 1412.17 1518.05 1418.49 1521.74C1424.81 1525.42 1429.55 1529.37 1432.71 1533.59C1435.87 1537.8 1436.66 1550.7 1435.08 1572.28C1433.5 1593.87 1433.76 1605.98 1435.87 1608.61C1437.97 1611.24 1442.45 1614.14 1449.29 1617.3C1456.14 1620.46 1461.66 1624.4 1465.88 1629.14C1470.09 1633.88 1475.35 1636.78 1481.67 1637.83C1487.99 1638.88 1492.99 1638.36 1496.68 1636.25C1500.36 1634.14 1507.21 1633.36 1517.21 1633.88C1527.21 1634.41 1534.85 1633.62 1540.11 1631.51C1545.38 1629.41 1551.17 1628.09 1557.49 1627.56C1563.8 1627.04 1567.75 1625.46 1569.33 1622.83C1570.91 1620.19 1574.33 1617.3 1579.6 1614.14C1584.86 1610.98 1587.23 1607.56 1586.71 1603.87C1586.18 1600.19 1584.07 1596.76 1580.39 1593.61C1576.7 1590.45 1574.86 1583.6 1574.86 1573.07C1574.86 1562.54 1574.33 1555.7 1573.28 1552.54C1572.23 1549.38 1567.49 1542.27 1559.06 1531.22C1550.64 1520.16 1543.8 1505.42 1538.53 1486.99C1533.27 1468.56 1526.95 1449.87 1519.58 1430.92C1512.21 1411.97 1501.41 1390.38 1487.2 1366.16C1472.98 1341.94 1461.14 1324.83 1451.66 1314.83C1442.18 1304.83 1439.81 1296.66 1444.55 1290.35C1449.29 1284.03 1451.92 1278.5 1452.45 1273.76C1452.98 1269.02 1451.92 1265.6 1449.29 1263.5C1446.66 1261.39 1441.13 1259.28 1432.71 1257.18C1424.28 1255.07 1415.07 1250.86 1405.07 1244.54C1395.06 1238.22 1386.11 1231.12 1378.22 1223.22C1370.32 1215.32 1364 1207.42 1359.26 1199.53C1354.52 1191.63 1350.84 1183.47 1348.21 1175.05C1345.57 1166.62 1345.31 1152.14 1347.42 1131.61C1349.52 1111.08 1350.84 1099.49 1351.36 1096.86C1351.89 1094.23 1354.79 1092.12 1360.05 1090.54C1365.32 1088.96 1370.58 1084.49 1375.85 1077.12C1381.11 1069.75 1386.9 1066.06 1393.22 1066.06C1399.54 1066.06 1406.91 1064.22 1415.33 1060.53C1423.76 1056.85 1429.28 1056.59 1431.92 1059.74C1434.55 1062.9 1439.03 1065.27 1445.34 1066.85C1451.66 1068.43 1456.66 1067.64 1460.35 1064.48C1464.03 1061.32 1467.19 1056.32 1469.82 1049.48C1472.46 1042.63 1473.77 1035.79 1473.77 1028.94C1473.77 1022.1 1472.98 1016.57 1471.4 1012.36C1469.82 1008.15 1470.09 1002.09 1472.19 994.197C1474.3 986.299 1475.62 978.139 1476.14 969.715C1476.67 961.291 1482.46 952.604 1493.52 943.654C1504.57 934.703 1516.42 927.332 1529.05 921.541C1541.69 915.75 1551.96 911.801 1559.85 909.695C1567.75 907.589 1576.7 906.536 1586.71 906.536C1596.71 906.536 1603.82 908.379 1608.03 912.064C1612.24 915.75 1619.35 918.645 1629.35 920.751C1639.35 922.857 1648.57 923.91 1656.99 923.91C1665.42 923.91 1672.79 922.594 1679.1 919.962C1685.42 917.329 1693.58 910.748 1703.59 900.218C1713.59 889.688 1719.64 882.318 1721.75 878.106C1723.86 873.894 1725.44 867.313 1726.49 858.362C1727.54 849.412 1730.96 842.304 1736.75 837.039C1742.55 831.775 1745.44 825.72 1745.44 818.876C1745.44 812.031 1743.6 806.503 1739.91 802.291C1736.23 798.079 1731.75 795.973 1726.49 795.973C1721.22 795.973 1717.54 792.551 1715.43 785.707C1713.33 778.862 1710.17 774.65 1705.96 773.071C1701.74 771.491 1696.74 770.965 1690.95 771.491C1685.16 772.018 1680.68 770.438 1677.52 766.753C1674.37 763.068 1670.15 760.172 1664.89 758.066C1659.62 755.96 1655.68 754.907 1653.04 754.907C1650.41 754.907 1647.25 755.96 1643.57 758.066C1641.72 759.119 1639.88 760.172 1638.04 761.225C1637.77 760.172 1637.51 759.119 1637.25 758.066C1636.72 755.96 1633.56 752.801 1627.77 748.589C1621.98 744.377 1616.72 742.271 1611.98 742.271C1607.24 742.271 1603.29 743.061 1600.13 744.64C1596.97 746.22 1593.81 749.642 1590.65 754.907C1587.5 760.172 1585.65 764.91 1585.13 769.122C1584.6 773.334 1571.7 776.493 1546.43 778.599C1521.16 780.705 1500.62 784.127 1484.83 788.866C1469.03 793.604 1456.93 798.606 1448.5 803.871C1440.08 809.135 1430.34 806.503 1419.28 795.973C1413.75 790.708 1408.23 785.443 1402.7 780.179C1416.12 773.334 1429.55 766.49 1442.97 759.645C1469.82 745.957 1489.83 732.005 1502.99 717.79C1516.16 703.574 1525.11 691.465 1529.84 681.462C1534.58 671.458 1538.27 666.457 1540.9 666.457C1543.53 666.457 1549.32 669.089 1558.27 674.354C1567.23 679.619 1574.33 681.725 1579.6 680.672C1584.86 679.619 1588.55 673.564 1590.65 662.508C1592.76 651.452 1593.55 634.078 1593.02 610.386C1592.5 586.694 1591.18 570.372 1589.07 561.422C1586.97 552.472 1584.07 544.574 1580.39 537.73C1576.7 530.886 1574.86 525.884 1574.86 522.725C1574.86 521.146 1574.86 519.566 1574.86 517.987C1580.12 518.513 1585.39 519.04 1590.65 519.566C1601.18 520.619 1607.76 520.356 1610.4 518.776C1613.03 517.197 1613.82 510.616 1612.77 499.033C1611.71 487.45 1607.5 471.656 1600.13 451.649C1592.76 431.642 1583.28 410.846 1571.7 389.26C1560.12 367.674 1548.8 351.089 1537.74 339.507C1526.69 327.924 1521.42 320.027 1521.95 315.815C1522.47 311.603 1527.48 305.548 1536.95 297.651C1546.43 289.753 1552.48 283.172 1555.12 277.907C1557.75 272.642 1561.7 259.743 1566.96 239.21C1572.23 218.677 1575.12 201.303 1575.65 187.088C1576.18 172.873 1573.28 154.972 1566.96 133.386C1560.64 111.8 1554.85 96.2684 1549.59 86.7916C1544.32 77.3147 1536.43 68.1012 1525.9 59.1508C1515.37 50.2005 1505.1 43.8826 1495.1 40.1972C1485.09 36.5118 1474.3 34.1426 1462.72 33.0896C1451.13 32.0366 1439.03 32.2999 1426.39 33.8793Z" fill="#000000" fill-rule="evenodd" opacity="1" stroke="none"/>
<path d="M1416.12 40.1972C1400.85 42.8297 1386.38 47.0416 1372.69 52.833C1359 58.6244 1346.36 66.2585 1334.78 75.7353C1323.2 85.2121 1312.67 95.2154 1303.19 105.745C1293.71 116.275 1289.5 124.962 1290.55 131.806C1291.61 138.651 1294.5 146.811 1299.24 156.288C1303.98 165.765 1310.04 173.926 1317.41 180.77C1324.78 187.614 1334.52 194.985 1346.63 202.883C1358.74 210.78 1369.53 216.045 1379.01 218.677C1388.48 221.31 1398.75 222.889 1409.8 223.416C1420.86 223.942 1431.39 221.31 1441.39 215.518C1451.4 209.727 1460.87 202.619 1469.82 194.195C1474.3 189.984 1478.78 185.772 1483.25 181.56C1483.51 182.086 1483.78 182.613 1484.04 183.139C1484.57 184.192 1484.04 185.772 1482.46 187.878C1480.88 189.984 1474.3 195.775 1462.72 205.252C1456.93 209.99 1451.13 214.729 1445.34 219.467C1449.29 218.94 1453.24 218.414 1457.19 217.888C1465.09 216.835 1471.67 216.308 1476.93 216.308C1479.56 216.308 1482.2 216.308 1484.83 216.308C1484.83 216.835 1484.83 217.361 1484.83 217.888C1484.83 218.94 1476.14 220.257 1458.77 221.836C1441.39 223.416 1431.65 224.995 1429.55 226.575C1427.44 228.154 1429.28 234.735 1435.08 246.318C1440.87 257.901 1448.24 268.167 1457.19 277.118C1466.14 286.068 1473.77 292.912 1480.09 297.651C1486.41 302.389 1494.04 306.601 1502.99 310.286C1507.47 312.129 1511.94 313.972 1516.42 315.815C1516.95 314.235 1517.47 312.656 1518 311.076C1519.05 307.917 1524.32 302.389 1533.79 294.492C1543.27 286.594 1550.11 277.381 1554.33 266.851C1558.54 256.321 1562.49 242.369 1566.17 224.995C1569.86 207.621 1571.17 191.037 1570.12 175.242C1569.07 159.447 1565.38 141.81 1559.06 122.33C1552.75 102.849 1545.11 87.5813 1536.16 76.525C1527.21 65.4687 1516.68 56.7816 1504.57 50.4638C1492.46 44.1459 1478.51 40.1972 1462.72 38.6177C1446.92 37.0383 1431.39 37.5648 1416.12 40.1972Z" fill="#ff4d4f" fill-rule="evenodd" opacity="1" stroke="none"/>
<path d="M1087.59 117.591C1050.21 121.277 1030.73 123.383 1029.15 123.909C1027.57 124.436 1025.47 127.331 1022.83 132.596C1020.2 137.861 1015.73 147.864 1009.41 162.606C1003.09 177.348 999.143 188.141 997.563 194.985C995.984 201.83 995.194 209.99 995.194 219.467C995.194 224.205 995.194 228.944 995.194 233.682C1003.62 233.419 1012.04 233.156 1020.47 232.892C1037.31 232.366 1047.05 233.156 1049.69 235.262C1052.32 237.368 1053.9 240.527 1054.42 244.738C1054.95 248.95 1054.42 253.426 1052.84 258.164C1051.27 262.902 1047.05 264.745 1040.21 263.692C1033.36 262.639 1023.62 262.376 1010.99 262.902C1004.67 263.166 998.353 263.429 992.035 263.692C992.298 268.694 992.562 273.695 992.825 278.697C993.351 288.7 1001.51 293.439 1017.31 292.912C1033.1 292.386 1042.05 292.912 1044.16 294.492C1046.26 296.071 1048.11 299.493 1049.69 304.758C1051.27 310.023 1051.27 314.498 1049.69 318.184C1048.11 321.869 1042.58 323.449 1033.1 322.922C1023.62 322.396 1015.73 322.659 1009.41 323.712C1003.09 324.765 1000.46 331.346 1001.51 343.455C1002.57 355.565 1004.67 366.884 1007.83 377.414C1010.99 387.944 1024.68 391.366 1048.9 387.68C1073.11 383.995 1100.76 382.679 1131.82 383.732C1162.88 384.785 1182.62 386.364 1191.05 388.47C1199.47 390.576 1207.63 393.472 1215.53 397.157C1223.43 400.843 1234.48 408.214 1248.7 419.27C1262.91 430.326 1273.71 441.646 1281.08 453.228C1288.45 464.811 1294.5 478.763 1299.24 495.084C1303.98 511.406 1306.61 526.41 1307.14 540.099C1307.67 553.788 1306.61 568.53 1303.98 584.324C1301.35 600.119 1308.19 613.808 1324.51 625.391C1340.83 636.973 1355.05 648.819 1367.16 660.929C1379.27 673.038 1385.59 681.725 1386.11 686.99C1386.64 692.255 1385.85 700.152 1383.74 710.682C1381.64 721.212 1376.11 737.533 1367.16 759.645C1362.68 770.702 1358.21 781.758 1353.73 792.814C1367.16 787.549 1380.58 782.285 1394.01 777.02C1420.86 766.49 1441.92 757.013 1457.19 748.589C1472.46 740.165 1486.67 728.846 1499.83 714.631C1513 700.415 1522.21 688.043 1527.48 677.513C1532.74 666.983 1537.74 661.982 1542.48 662.508C1547.22 663.035 1553.27 665.667 1560.64 670.405C1568.02 675.144 1573.54 677.513 1577.23 677.513C1580.91 677.513 1583.81 672.775 1585.92 663.298C1588.02 653.821 1588.81 636.184 1588.28 610.386C1587.76 584.588 1586.97 569.056 1585.92 563.791C1584.86 558.526 1581.97 551.156 1577.23 541.679C1572.49 532.202 1570.12 525.884 1570.12 522.725C1570.12 519.566 1570.91 517.197 1572.49 515.617C1574.07 514.038 1580.39 513.775 1591.44 514.828C1602.5 515.881 1608.55 514.564 1609.61 510.879C1610.66 507.194 1607.5 493.242 1600.13 469.023C1592.76 444.805 1582.76 420.586 1570.12 396.368C1557.49 372.149 1546.69 355.828 1537.74 347.404C1528.79 338.98 1523.26 332.662 1521.16 328.45C1519.05 324.238 1512.21 319.5 1500.62 314.235C1489.04 308.97 1476.41 300.02 1462.72 287.384C1449.03 274.748 1438.76 261.849 1431.92 248.687C1425.07 235.525 1418.76 228.944 1412.96 228.944C1407.17 228.944 1397.7 227.364 1384.53 224.205C1371.37 221.046 1357.16 214.465 1341.89 204.462C1326.62 194.459 1315.3 185.245 1307.93 176.821C1300.56 168.397 1294.77 157.604 1290.55 144.442C1286.34 131.28 1281.08 124.962 1274.76 125.489C1268.44 126.015 1254.75 124.172 1233.69 119.96C1212.63 115.748 1192.36 113.379 1172.88 112.853C1153.4 112.326 1124.97 113.906 1087.59 117.591Z" fill="#ff4d4f" fill-rule="evenodd" opacity="1" stroke="none"/>
<path d="M983.348 134.965C961.762 140.757 938.86 149.181 914.641 160.237C890.423 171.293 868.573 182.876 849.093 194.985C829.613 207.094 812.239 219.467 796.971 232.103C781.703 244.738 766.434 260.27 751.166 278.697C735.898 297.124 721.156 317.657 706.941 340.296C692.726 362.935 682.196 381.626 675.352 396.368C668.507 411.109 661.136 432.432 653.239 460.336C645.342 488.24 639.814 512.985 636.655 534.571C633.496 556.157 631.916 573.005 631.916 585.114C631.916 597.223 633.232 614.071 635.865 635.657C638.497 657.243 642.183 674.354 646.921 686.99C651.66 699.626 655.872 708.049 659.557 712.261C661.4 714.367 663.242 716.473 665.085 718.579C665.875 715.42 666.665 712.261 667.454 709.102C669.034 702.785 671.14 699.626 673.772 699.626C676.405 699.626 678.774 705.68 680.88 717.79C682.986 729.899 685.881 740.955 689.567 750.958C693.252 760.962 696.938 769.122 700.623 775.44C704.309 781.758 709.047 788.076 714.838 794.394C720.63 800.712 726.684 805.45 733.002 808.609C736.161 810.188 739.32 811.768 742.479 813.347C741.953 810.978 741.426 808.609 740.9 806.24C739.847 801.501 740.373 798.606 742.479 797.553C744.585 796.5 751.429 800.975 763.012 810.978C774.595 820.981 789.073 829.932 806.448 837.829C823.822 845.727 837.247 850.991 846.724 853.624C856.201 856.256 864.888 858.099 872.785 859.152C880.683 860.205 889.107 860.731 898.057 860.731C907.007 860.731 911.746 860.205 912.272 859.152C912.799 858.099 911.219 854.677 907.534 848.885C903.848 843.094 899.11 832.828 893.318 818.086C887.527 803.344 883.052 788.602 879.893 773.861C876.734 759.119 872.522 750.432 867.257 747.799C861.992 745.167 855.148 739.376 846.724 730.425C838.3 721.475 831.456 713.314 826.191 705.943C820.926 698.573 815.135 688.569 808.817 675.934C802.499 663.298 796.971 648.293 792.232 630.919C787.494 613.545 785.651 596.17 786.704 578.796C787.757 561.422 789.6 548.523 792.232 540.099C794.865 531.675 798.814 522.462 804.078 512.459C809.343 502.455 815.135 493.242 821.453 484.818C827.77 476.394 835.141 468.233 843.565 460.336C851.989 452.439 861.203 445.594 871.206 439.803C881.209 434.012 894.108 427.957 909.903 421.639C925.698 415.321 945.967 409.267 970.712 403.475C983.085 400.579 995.457 397.684 1007.83 394.788C1006.25 389.26 1004.67 383.732 1003.09 378.204C999.933 367.147 998.09 356.091 997.563 345.035C997.3 339.507 997.037 333.978 996.774 328.45C992.298 330.03 987.823 331.609 983.348 333.189C974.398 336.348 968.606 337.664 965.974 337.137C963.342 336.611 961.499 335.031 960.446 332.399C959.393 329.767 958.603 324.502 958.077 316.604C957.55 308.707 962.815 302.916 973.871 299.23C984.928 295.545 989.929 288.964 988.876 279.487C988.35 274.748 987.823 270.01 987.297 265.272C982.295 266.588 977.294 267.904 972.292 269.22C967.29 270.536 962.289 271.853 957.287 273.169C956.234 268.957 955.181 264.745 954.128 260.533C952.022 252.109 953.338 246.318 958.077 243.159C962.815 240 969.396 237.894 977.82 236.841C986.244 235.788 990.982 227.891 992.035 213.149C993.088 198.407 998.09 181.033 1007.04 161.027C1015.99 141.02 1020.47 130.227 1020.47 128.647C1020.47 127.858 1020.47 127.068 1020.47 126.278C1019.68 126.278 1018.89 126.278 1018.1 126.278C1016.52 126.278 1004.93 129.174 983.348 134.965Z" fill="#ff4d4f" fill-rule="evenodd" opacity="1" stroke="none"/>
<path d="M684.828 166.555C671.666 170.24 659.03 175.242 646.921 181.56C634.812 187.878 626.125 193.669 620.86 198.934C615.595 204.199 605.855 216.308 591.64 235.262C577.425 254.215 568.211 269.747 563.999 281.856C559.787 293.965 556.891 304.758 555.312 314.235C553.733 323.712 552.943 334.242 552.943 345.825C552.943 357.407 554.259 367.937 556.891 377.414C559.524 386.891 563.209 395.841 567.948 404.265C572.686 412.689 578.741 421.376 586.112 430.326C593.483 439.276 599.274 445.858 603.486 450.069C607.698 454.281 613.489 457.967 620.86 461.126C628.231 464.285 634.549 465.601 639.814 465.074C645.079 464.548 650.87 454.018 657.188 433.485C663.506 412.952 671.403 393.735 680.88 375.834C690.357 357.934 700.097 341.349 710.1 326.081C720.103 310.813 729.843 297.124 739.32 285.015C748.797 272.906 759.327 261.06 770.91 249.477C782.492 237.894 791.969 229.47 799.34 224.205C803.025 221.573 806.711 218.94 810.396 216.308C804.342 209.99 798.287 203.672 792.232 197.354C780.123 184.719 768.54 176.032 757.484 171.293C746.428 166.555 734.845 163.659 722.736 162.606C710.626 161.553 697.991 162.869 684.828 166.555Z" fill="#ff4d4f" fill-rule="evenodd" opacity="1" stroke="none"/>
<path d="M992.825 240C971.239 243.159 959.656 245.265 958.077 246.318C956.497 247.371 956.234 251.056 957.287 257.374C957.813 260.533 958.34 263.692 958.866 266.851C965.448 265.272 972.029 263.692 978.61 262.113C991.772 258.954 1006.78 257.901 1023.62 258.954C1032.05 259.48 1040.47 260.007 1048.9 260.533C1048.9 257.111 1048.9 253.689 1048.9 250.267C1048.9 243.422 1048.37 239.474 1047.32 238.421C1046.26 237.368 1042.32 236.578 1035.47 236.051C1028.63 235.525 1014.41 236.841 992.825 240Z" fill="#000000" fill-rule="evenodd" opacity="1" stroke="none"/>
<path d="M1371.11 258.954C1366.9 263.166 1363.74 268.167 1361.63 273.959C1359.53 279.75 1356.37 285.805 1352.15 292.123C1350.05 295.281 1347.94 298.44 1345.84 301.599C1340.83 297.914 1335.83 294.229 1330.83 290.543C1320.83 283.172 1311.09 277.381 1301.61 273.169C1292.13 268.957 1285.29 266.588 1281.08 266.061C1276.87 265.535 1271.86 267.114 1266.07 270.8C1260.28 274.485 1256.86 280.013 1255.81 287.384C1254.75 294.755 1255.02 299.493 1256.6 301.599C1258.18 303.705 1262.39 305.811 1269.23 307.917C1276.08 310.023 1286.34 314.498 1300.03 321.343C1306.88 324.765 1313.72 328.187 1320.56 331.609C1313.46 339.77 1306.35 347.93 1299.24 356.091C1285.03 372.412 1278.18 383.469 1278.71 389.26C1279.24 395.051 1280.29 399.526 1281.87 402.685C1283.45 405.844 1285.29 407.95 1287.4 409.003C1289.5 410.056 1293.98 410.056 1300.82 409.003C1307.67 407.95 1317.67 399.79 1330.83 384.522C1343.99 369.253 1353.21 363.462 1358.47 367.147C1363.74 370.833 1368.48 376.887 1372.69 385.311C1376.9 393.735 1381.37 399.79 1386.11 403.475C1390.85 407.161 1396.38 409.53 1402.7 410.583C1409.02 411.636 1413.75 410.846 1416.91 408.214C1420.07 405.581 1421.91 402.159 1422.44 397.947C1422.97 393.735 1421.39 387.68 1417.7 379.783C1414.02 371.886 1410.33 365.305 1406.65 360.04C1402.96 354.775 1396.91 348.72 1388.48 341.876C1380.06 335.031 1378.48 327.924 1383.74 320.553C1389.01 313.182 1393.75 303.179 1397.96 290.543C1402.17 277.907 1403.22 269.22 1401.12 264.482C1399.01 259.743 1394.54 256.584 1387.69 255.005C1380.85 253.426 1375.32 254.742 1371.11 258.954Z" fill="#000000" fill-rule="evenodd" opacity="1" stroke="none"/>
<path d="M1362.42 282.646C1352.42 299.493 1339.78 317.131 1324.51 335.558C1309.25 353.985 1298.45 366.094 1292.13 371.886C1285.82 377.677 1283.45 384.522 1285.03 392.419C1286.61 400.316 1290.29 404.528 1296.08 405.055C1301.87 405.581 1306.09 405.055 1308.72 403.475C1311.35 401.896 1324.51 386.627 1348.21 357.671C1371.9 328.714 1385.59 310.286 1389.27 302.389C1392.96 294.492 1395.59 286.594 1397.17 278.697C1398.75 270.8 1397.7 265.272 1394.01 262.113C1390.32 258.954 1386.64 257.374 1382.95 257.374C1379.27 257.374 1372.42 265.798 1362.42 282.646Z" fill="#000000" fill-rule="evenodd" opacity="1" stroke="none"/>
<path d="M1266.86 274.748C1262.65 277.907 1260.28 282.646 1259.76 288.964C1259.23 295.281 1270.02 303.442 1292.13 313.445C1314.25 323.449 1327.94 324.502 1333.2 316.604C1338.47 308.707 1336.36 301.073 1326.88 293.702C1317.41 286.331 1307.67 280.54 1297.66 276.328C1287.66 272.116 1281.08 270.01 1277.92 270.01C1274.76 270.01 1271.07 271.589 1266.86 274.748Z" fill="#000000" fill-rule="evenodd" opacity="1" stroke="none"/>
<path d="M978.61 301.599C967.553 304.758 962.552 310.813 963.605 319.763C964.131 324.238 964.658 328.714 965.184 333.189C972.292 330.82 979.399 328.45 986.507 326.081C1000.72 321.343 1014.41 318.71 1027.57 318.184C1034.15 317.921 1040.74 317.657 1047.32 317.394C1046.26 313.972 1045.21 310.55 1044.16 307.128C1042.05 300.283 1033.36 296.861 1018.1 296.861C1002.83 296.861 989.666 298.44 978.61 301.599Z" fill="#000000" fill-rule="evenodd" opacity="1" stroke="none"/>
<path d="M1364 346.614C1358.21 354.512 1357.68 360.303 1362.42 363.988C1367.16 367.674 1372.42 374.518 1378.22 384.522C1384.01 394.525 1389.27 400.843 1394.01 403.475C1398.75 406.108 1402.96 407.424 1406.65 407.424C1410.33 407.424 1413.23 406.371 1415.33 404.265C1417.44 402.159 1418.49 399.526 1418.49 396.368C1418.49 393.209 1416.91 388.207 1413.75 381.363C1410.59 374.518 1407.17 368.464 1403.49 363.199C1399.8 357.934 1393.75 351.879 1385.32 345.035C1381.11 341.613 1376.9 338.19 1372.69 334.768C1369.79 338.717 1366.9 342.666 1364 346.614Z" fill="#000000" fill-rule="evenodd" opacity="1" stroke="none"/>
<path d="M755.905 352.932C750.113 358.724 744.059 368.2 737.741 381.363C734.582 387.944 731.423 394.525 728.264 401.106C725.631 397.157 722.999 393.209 720.367 389.26C715.102 381.363 710.1 377.677 705.362 378.204C700.623 378.73 696.938 381.363 694.305 386.101C691.673 390.839 690.62 396.631 691.146 403.475C691.673 410.32 694.832 419.007 700.623 429.536C706.415 440.066 707.204 452.965 702.992 468.233C698.78 483.502 696.148 495.348 695.095 503.771C694.042 512.195 694.569 518.513 696.675 522.725C698.78 526.937 701.939 530.359 706.151 532.992C710.363 535.624 713.522 536.94 715.628 536.94C717.734 536.94 719.84 535.887 721.946 533.781C724.052 531.675 726.948 523.515 730.633 509.3C732.476 502.192 734.319 495.084 736.161 487.977C738.53 490.346 740.9 492.715 743.269 495.084C748.007 499.823 754.062 504.035 761.433 507.72C768.804 511.406 774.332 512.985 778.017 512.459C781.703 511.932 784.598 510.353 786.704 507.72C788.81 505.088 789.863 501.665 789.863 497.454C789.863 493.242 789.073 489.556 787.494 486.397C785.915 483.238 779.86 475.867 769.33 464.285C758.8 452.702 759.853 433.222 772.489 405.844C785.125 378.467 791.179 362.146 790.653 356.881C790.126 351.616 785.651 348.194 777.227 346.614C768.804 345.035 761.696 347.141 755.905 352.932Z" fill="#000000" fill-rule="evenodd" opacity="1" stroke="none"/>
<path d="M755.115 360.829C748.797 368.727 739.847 385.838 728.264 412.162C716.681 438.487 708.784 460.336 704.572 477.71C700.36 495.084 698.254 505.877 698.254 510.089C698.254 514.301 699.044 517.987 700.623 521.146C702.203 524.305 704.572 526.937 707.731 529.043C710.89 531.149 713.522 532.202 715.628 532.202C717.734 532.202 719.314 531.149 720.367 529.043C721.42 526.937 722.209 523.515 722.736 518.776C723.262 514.038 727.474 500.612 735.371 478.5C743.269 456.387 753.799 432.169 766.961 405.844C780.123 379.52 786.704 363.988 786.704 359.25C786.704 354.512 783.019 351.616 775.648 350.563C768.277 349.51 761.433 352.932 755.115 360.829Z" fill="#000000" fill-rule="evenodd" opacity="1" stroke="none"/>
<path d="M700.623 384.522C697.991 387.154 696.411 391.892 695.885 398.737C695.358 405.581 697.464 414.005 702.203 424.008C706.941 434.012 709.837 439.013 710.89 439.013C711.943 439.013 714.575 433.222 718.787 421.639C722.999 410.056 723.262 401.106 719.577 394.788C715.891 388.47 712.469 384.522 709.31 382.942C706.151 381.363 703.256 381.889 700.623 384.522Z" fill="#000000" fill-rule="evenodd" opacity="1" stroke="none"/>
<path d="M1056 391.629C1022.83 395.841 992.035 401.896 963.605 409.793C935.174 417.69 914.641 424.271 902.005 429.536C889.37 434.801 879.103 439.803 871.206 444.541C863.309 449.28 855.148 455.598 846.724 463.495C838.3 471.392 831.456 478.763 826.191 485.608C820.926 492.452 815.661 500.612 810.396 510.089C805.131 519.566 800.919 528.78 797.761 537.73C794.602 546.68 792.496 554.051 791.443 559.843C790.39 565.634 790.126 576.427 790.653 592.222C791.179 608.016 793.022 621.442 796.181 632.498C799.34 643.554 804.078 655.664 810.396 668.826C816.714 681.988 822.769 692.781 828.56 701.205C834.352 709.629 841.459 718.316 849.883 727.266C858.307 736.217 865.678 742.271 871.996 745.43C878.313 748.589 885.421 749.642 893.318 748.589C901.216 747.536 912.535 747.273 927.277 747.799C942.019 748.326 956.76 750.958 971.502 755.697C986.244 760.435 995.721 762.015 999.933 760.435C1004.14 758.856 1010.73 754.117 1019.68 746.22C1028.63 738.323 1038.1 732.794 1048.11 729.636C1053.11 728.056 1058.11 726.477 1063.11 724.897C1061.01 720.948 1058.9 717 1056.79 713.051C1052.58 705.154 1048.11 693.044 1043.37 676.723C1038.63 660.402 1031.79 651.978 1022.83 651.452C1013.88 650.925 1005.72 649.609 998.353 647.503C990.982 645.397 986.507 643.291 984.928 641.185C983.348 639.079 982.558 635.131 982.558 629.339C982.558 623.548 978.61 618.283 970.712 613.545C962.815 608.806 956.497 606.437 951.759 606.437C947.02 606.437 942.808 607.227 939.123 608.806C935.438 610.386 931.489 613.808 927.277 619.073C923.065 624.338 917.274 626.18 909.903 624.601C902.532 623.021 893.318 616.967 882.262 606.437C871.206 595.907 863.045 585.904 857.78 576.427C852.515 566.95 848.567 558.263 845.934 550.366C843.302 542.468 841.986 532.202 841.986 519.566C841.986 506.93 842.775 499.033 844.355 495.874C845.934 492.715 850.41 487.713 857.78 480.869C865.151 474.025 877.26 466.127 894.108 457.177C910.956 448.227 932.805 440.329 959.656 433.485C986.507 426.641 1004.14 422.692 1012.57 421.639C1020.99 420.586 1036.52 420.06 1059.16 420.06C1081.8 420.06 1096.81 420.586 1104.18 421.639C1111.55 422.692 1124.71 425.588 1143.66 430.326C1162.62 435.065 1174.99 439.276 1180.78 442.962C1186.57 446.647 1190.79 450.069 1193.42 453.228C1196.05 456.387 1197.63 463.495 1198.16 474.551C1198.68 485.608 1198.16 495.874 1196.58 505.351C1195 514.828 1190.79 527.463 1183.94 543.258C1177.1 559.053 1169.46 570.899 1161.04 578.796C1152.61 586.694 1146.82 590.642 1143.66 590.642C1140.51 590.642 1134.98 588.01 1127.08 582.745C1119.18 577.48 1112.6 575.374 1107.34 576.427C1102.07 577.48 1096.81 582.218 1091.54 590.642C1086.28 599.066 1084.43 609.069 1086.01 620.652C1087.59 632.235 1086.28 639.343 1082.06 641.975C1077.85 644.607 1070.22 647.24 1059.16 649.872C1053.63 651.189 1048.11 652.505 1042.58 653.821C1044.68 661.718 1046.79 669.616 1048.9 677.513C1053.11 693.308 1057.32 705.154 1061.53 713.051C1065.74 720.948 1084.17 725.687 1116.81 727.266C1149.46 728.846 1173.41 722.791 1188.68 709.102C1203.95 695.414 1218.43 685.41 1232.11 679.093C1245.8 672.775 1254.75 670.142 1258.97 671.195C1263.18 672.248 1270.55 661.455 1281.08 638.816C1291.61 616.177 1297.93 598.276 1300.03 585.114C1302.14 571.952 1302.93 557.473 1302.4 541.679C1301.87 525.884 1298.72 509.036 1292.92 491.136C1287.13 473.235 1279.76 458.493 1270.81 446.911C1261.86 435.328 1250.28 424.798 1236.06 415.321C1221.85 405.844 1207.11 399 1191.84 394.788C1176.57 390.576 1158.41 387.944 1137.35 386.891C1116.29 385.838 1089.17 387.417 1056 391.629Z" fill="#ba2e41" fill-rule="evenodd" opacity="1" stroke="none"/>
<path d="M1025.2 425.588C1007.3 427.167 985.191 431.379 958.866 438.223C932.542 445.068 912.272 452.175 898.057 459.546C883.842 466.917 872.522 474.288 864.098 481.659C855.674 489.03 850.41 494.821 848.304 499.033C846.198 503.245 845.671 511.932 846.724 525.094C847.777 538.257 850.673 550.366 855.411 561.422C860.15 572.478 867.257 583.535 876.734 594.591C886.211 605.647 893.318 612.755 898.057 615.914C902.795 619.073 907.534 620.915 912.272 621.442C917.01 621.968 921.222 619.862 924.908 615.124C928.593 610.386 932.805 606.963 937.544 604.857C942.282 602.752 946.757 601.699 950.969 601.699C955.181 601.699 959.656 602.488 964.395 604.068C969.133 605.647 973.871 608.28 978.61 611.965C983.348 615.65 985.981 620.915 986.507 627.76C987.034 634.604 987.823 638.553 988.876 639.606C989.929 640.659 999.669 642.501 1018.1 645.134C1036.52 647.766 1052.06 646.977 1064.69 642.765C1077.33 638.553 1082.85 631.182 1081.28 620.652C1079.7 610.122 1082.06 599.593 1088.38 589.063C1094.7 578.533 1100.49 572.742 1105.76 571.689C1111.02 570.636 1117.87 572.742 1126.29 578.006C1134.71 583.271 1140.51 585.904 1143.66 585.904C1146.82 585.904 1151.04 583.535 1156.3 578.796C1161.56 574.058 1167.09 566.95 1172.88 557.473C1178.68 547.997 1183.15 538.257 1186.31 528.253C1189.47 518.25 1191.57 509.826 1192.63 502.982C1193.68 496.137 1193.68 486.661 1192.63 474.551C1191.57 462.442 1188.68 454.545 1183.94 450.859C1179.2 447.174 1172.36 443.488 1163.41 439.803C1154.46 436.117 1140.77 432.695 1122.34 429.536C1103.91 426.377 1087.59 424.535 1073.38 424.008C1059.16 423.482 1043.1 424.008 1025.2 425.588Z" fill="#000000" fill-rule="evenodd" opacity="1" stroke="none"/>
<path d="M744.848 467.444C741.163 479.026 743.006 487.977 750.376 494.295C757.747 500.612 764.592 504.561 770.91 506.141C777.227 507.72 781.176 507.72 782.756 506.141C784.335 504.561 784.598 500.612 783.545 494.295C782.492 487.977 776.701 479.026 766.171 467.444C760.906 461.652 755.641 455.861 750.376 450.069C748.534 455.861 746.691 461.652 744.848 467.444Z" fill="#000000" fill-rule="evenodd" opacity="1" stroke="none"/>
<path d="M1282.66 643.554C1277.92 653.821 1273.18 664.088 1268.44 674.354C1276.6 667.51 1284.76 660.665 1292.92 653.821C1309.25 640.132 1318.72 633.288 1321.35 633.288C1322.67 633.288 1323.99 633.288 1325.3 633.288C1325.3 634.341 1325.3 635.394 1325.3 636.447C1325.3 638.553 1323.2 643.554 1318.99 651.452C1316.88 655.4 1314.77 659.349 1312.67 663.298C1314.77 662.771 1316.88 662.245 1318.99 661.718C1321.09 661.192 1323.2 660.665 1325.3 660.139C1325.3 661.192 1325.3 662.245 1325.3 663.298C1325.3 665.404 1321.62 672.511 1314.25 684.621C1306.88 696.73 1302.66 706.996 1301.61 715.42C1300.56 723.844 1297.66 733.847 1292.92 745.43C1288.19 757.013 1282.13 766.753 1274.76 774.65C1267.39 782.548 1260.28 787.813 1253.44 790.445C1246.59 793.078 1237.38 794.394 1225.8 794.394C1214.21 794.394 1204.74 793.604 1197.37 792.025C1190 790.445 1180.52 787.023 1168.94 781.758C1157.35 776.493 1149.19 771.491 1144.45 766.753C1139.72 762.015 1137.61 758.066 1138.14 754.907C1138.66 751.748 1142.35 747.273 1149.19 741.482C1152.61 738.586 1156.04 735.69 1159.46 732.794C1142.87 732.268 1126.29 731.741 1109.71 731.215C1076.54 730.162 1056 730.952 1048.11 733.584C1040.21 736.217 1031.52 741.745 1022.05 750.169C1017.31 754.381 1012.57 758.592 1007.83 762.804C1017.04 763.331 1026.26 763.857 1035.47 764.384C1053.9 765.437 1063.9 766.753 1065.48 768.333C1067.06 769.912 1067.32 772.808 1066.27 777.02C1065.22 781.232 1058.64 790.182 1046.53 803.871C1034.42 817.559 1024.94 825.983 1018.1 829.142C1011.25 832.301 1005.46 833.88 1000.72 833.88C995.984 833.88 990.193 832.301 983.348 829.142C976.504 825.983 969.659 821.245 962.815 814.927C955.971 808.609 948.863 805.45 941.492 805.45C934.121 805.45 927.54 804.134 921.749 801.501C915.957 798.869 910.693 795.447 905.954 791.235C901.216 787.023 897.53 783.074 894.898 779.389C892.265 775.703 889.896 770.702 887.79 764.384C885.684 758.066 883.842 754.644 882.262 754.117C881.472 753.854 880.683 753.591 879.893 753.328C881.472 760.435 883.052 767.543 884.631 774.65C887.79 788.866 893.582 805.713 902.005 825.193C910.429 844.674 919.643 860.205 929.646 871.788C939.65 883.371 948.6 891.794 956.497 897.059C964.395 902.324 975.977 908.379 991.246 915.223C1006.51 922.068 1022.05 928.122 1037.84 933.387C1053.63 938.652 1075.75 944.18 1104.18 949.971C1132.61 955.763 1153.67 958.395 1167.36 957.869C1181.05 957.342 1193.42 954.71 1204.47 949.971C1215.53 945.233 1224.74 940.231 1232.11 934.967C1239.49 929.702 1248.7 921.804 1259.76 911.274C1270.81 900.745 1283.71 886.266 1298.45 867.839C1313.19 849.412 1326.88 829.142 1339.52 807.03C1352.15 784.917 1361.89 764.121 1368.74 744.64C1375.58 725.16 1379.53 710.419 1380.58 700.415C1381.64 690.412 1381.37 683.568 1379.79 679.882C1378.22 676.197 1370.84 668.563 1357.68 656.98C1344.52 645.397 1331.88 635.131 1319.78 626.18C1307.67 617.23 1300.82 612.755 1299.24 612.755C1297.66 612.755 1292.13 623.021 1282.66 643.554Z" fill="#df8056" fill-rule="evenodd" opacity="1" stroke="none"/>
<path d="M1295.29 658.559C1287.4 665.404 1279.5 672.248 1271.6 679.093C1276.08 677.776 1280.55 676.46 1285.03 675.144C1293.98 672.511 1299.24 671.722 1300.82 672.775C1302.4 673.828 1303.72 677.25 1304.77 683.041C1305.3 685.937 1305.82 688.833 1306.35 691.728C1308.46 688.043 1310.56 684.357 1312.67 680.672C1316.88 673.301 1318.99 669.089 1318.99 668.036C1318.99 667.51 1318.99 666.983 1318.99 666.457C1318.2 666.983 1317.41 667.51 1316.62 668.036C1315.04 669.089 1313.19 669.352 1311.09 668.826C1310.04 668.563 1308.98 668.299 1307.93 668.036C1309.77 663.035 1311.61 658.033 1313.46 653.031C1315.3 648.03 1317.14 643.028 1318.99 638.026C1311.09 644.871 1303.19 651.715 1295.29 658.559Z" fill="#000000" fill-rule="evenodd" opacity="1" stroke="none"/>
<path d="M1231.32 684.621C1217.11 691.465 1204.74 699.889 1194.21 709.892C1188.94 714.894 1183.68 719.895 1178.41 724.897C1184.47 727.53 1190.52 730.162 1196.58 732.794C1208.69 738.059 1218.69 740.165 1226.59 739.112C1234.48 738.059 1240.54 735.164 1244.75 730.425C1248.96 725.687 1252.12 720.159 1254.23 713.841C1256.33 707.523 1257.91 699.626 1258.97 690.149C1260.02 680.672 1259.23 675.67 1256.6 675.144C1253.96 674.617 1245.54 677.776 1231.32 684.621Z" fill="#d7c5a1" fill-rule="evenodd" opacity="1" stroke="none"/>
<path d="M1277.13 681.462C1268.18 685.147 1262.65 692.518 1260.55 703.574C1258.44 714.631 1254.75 723.581 1249.49 730.425C1244.22 737.27 1239.75 741.482 1236.06 743.061C1232.38 744.64 1228.17 745.43 1223.43 745.43C1218.69 745.43 1208.95 742.535 1194.21 736.743C1179.47 730.952 1167.36 732.005 1157.88 739.902C1148.4 747.799 1143.4 753.064 1142.87 755.697C1142.35 758.329 1144.19 761.488 1148.4 765.174C1152.61 768.859 1160.78 773.334 1172.88 778.599C1184.99 783.864 1197.37 787.286 1210 788.866C1222.64 790.445 1234.22 789.919 1244.75 787.286C1255.28 784.654 1264.23 779.389 1271.6 771.491C1278.97 763.594 1284.76 754.381 1288.98 743.851C1293.19 733.321 1296.08 719.895 1297.66 703.574C1299.24 687.253 1299.77 678.566 1299.24 677.513C1298.72 676.46 1297.14 675.934 1294.5 675.934C1291.87 675.934 1286.08 677.776 1277.13 681.462Z" fill="#ffffff" fill-rule="evenodd" opacity="1" stroke="none"/>
<path d="M1600.13 750.169C1596.97 752.275 1593.81 758.592 1590.65 769.122C1587.5 779.652 1586.97 794.394 1589.07 813.347C1591.18 832.301 1595.13 843.884 1600.92 848.096C1606.71 852.308 1615.14 855.203 1626.19 856.783C1637.25 858.362 1644.62 861.784 1648.3 867.049C1650.15 869.682 1651.99 872.314 1653.83 874.947C1653.04 874.947 1652.25 874.947 1651.46 874.947C1649.88 874.947 1646.99 872.577 1642.78 867.839C1638.56 863.101 1631.19 860.205 1620.66 859.152C1610.13 858.099 1601.71 854.94 1595.39 849.675C1589.07 844.41 1582.23 840.462 1574.86 837.829C1567.49 835.197 1561.7 833.88 1557.49 833.88C1553.27 833.88 1549.59 834.67 1546.43 836.25C1543.27 837.829 1541.16 840.988 1540.11 845.727C1539.06 850.465 1541.16 853.624 1546.43 855.203C1551.69 856.783 1558.54 862.574 1566.96 872.577C1575.39 882.581 1585.92 892.058 1598.55 901.008C1611.19 909.958 1621.72 915.223 1630.14 916.803C1638.56 918.382 1648.3 918.909 1659.36 918.382C1670.42 917.856 1678.58 916.013 1683.84 912.854C1689.11 909.695 1695.69 903.64 1703.59 894.69C1711.48 885.74 1716.49 878.632 1718.59 873.367C1720.7 868.102 1722.01 862.048 1722.54 855.203C1723.07 848.359 1720.43 843.884 1714.64 841.778C1708.85 839.672 1705.43 837.303 1704.38 834.67C1703.32 832.038 1699.64 831.248 1693.32 832.301C1687 833.354 1682.26 832.564 1679.1 829.932C1675.95 827.299 1673.84 824.667 1672.79 822.034C1671.73 819.402 1669.36 818.349 1665.68 818.876C1661.99 819.402 1658.83 819.139 1656.2 818.086C1653.57 817.033 1650.15 812.294 1645.94 803.871C1643.83 799.659 1641.72 795.447 1639.62 791.235C1636.99 792.814 1634.35 794.394 1631.72 795.973C1626.46 799.132 1621.98 800.185 1618.29 799.132C1614.61 798.079 1610.92 795.71 1607.24 792.025C1603.55 788.339 1600.92 784.127 1599.34 779.389C1598.55 777.02 1597.76 774.65 1596.97 772.281C1597.76 772.281 1598.55 772.281 1599.34 772.281C1600.92 772.281 1602.24 774.124 1603.29 777.809C1604.34 781.495 1606.45 784.917 1609.61 788.076C1612.77 791.235 1616.19 793.341 1619.87 794.394C1623.56 795.447 1626.98 795.184 1630.14 793.604C1633.3 792.025 1635.14 787.023 1635.67 778.599C1636.2 770.175 1635.93 764.647 1634.88 762.015C1633.83 759.382 1631.46 756.487 1627.77 753.328C1624.09 750.169 1619.35 748.326 1613.56 747.799C1607.76 747.273 1603.29 748.063 1600.13 750.169Z" fill="#df8056" fill-rule="evenodd" opacity="1" stroke="none"/>
<path d="M903.585 751.748C896.214 752.801 892.002 754.117 890.949 755.697C889.896 757.276 891.212 761.751 894.898 769.122C898.583 776.493 903.058 782.548 908.323 787.286C913.588 792.025 920.696 795.71 929.646 798.342C938.597 800.975 945.441 801.501 950.179 799.922C954.918 798.342 958.866 796.236 962.025 793.604C965.184 790.972 968.08 786.233 970.712 779.389C973.345 772.544 974.398 767.806 973.871 765.174C973.345 762.541 967.817 759.645 957.287 756.487C946.757 753.328 937.017 751.485 928.067 750.958C919.116 750.432 910.956 750.695 903.585 751.748Z" fill="#d7c5a1" fill-rule="evenodd" opacity="1" stroke="none"/>
<path d="M1644.36 765.174C1641.2 768.859 1639.88 773.334 1640.41 778.599C1640.93 783.864 1643.04 790.445 1646.73 798.342C1650.41 806.24 1653.31 810.978 1655.41 812.558C1657.52 814.137 1660.15 814.927 1663.31 814.927C1666.47 814.927 1669.89 811.768 1673.58 805.45C1677.26 799.132 1679.1 792.551 1679.1 785.707C1679.1 778.862 1677.52 773.597 1674.37 769.912C1671.21 766.227 1666.21 763.594 1659.36 762.015C1652.52 760.435 1647.51 761.488 1644.36 765.174Z" fill="#df8056" fill-rule="evenodd" opacity="1" stroke="none"/>
<path d="M974.661 778.599C971.502 788.076 967.553 794.657 962.815 798.342C960.446 800.185 958.077 802.028 955.707 803.871C959.656 807.03 963.605 810.188 967.553 813.347C975.451 819.665 982.558 824.14 988.876 826.773C995.194 829.405 1000.72 830.195 1005.46 829.142C1010.2 828.089 1015.73 825.72 1022.05 822.034C1028.36 818.349 1036.79 809.925 1047.32 796.763C1057.85 783.601 1063.11 776.23 1063.11 774.65C1063.11 773.071 1062.32 771.755 1060.74 770.702C1059.16 769.649 1045.21 768.333 1018.89 766.753C992.562 765.174 977.82 769.122 974.661 778.599Z" fill="#ffffff" fill-rule="evenodd" opacity="1" stroke="none"/>
<path d="M1683.84 784.917C1683.84 791.235 1682.53 796.763 1679.89 801.501C1677.26 806.24 1675.95 810.452 1675.95 814.137C1675.95 817.823 1677.26 821.245 1679.89 824.404C1682.53 827.563 1685.16 829.405 1687.79 829.932C1690.42 830.458 1694.11 828.879 1698.85 825.193C1703.59 821.508 1707.53 815.453 1710.69 807.03C1713.85 798.606 1714.38 791.761 1712.27 786.496C1710.17 781.232 1704.9 778.073 1696.48 777.02C1692.27 776.493 1688.05 775.967 1683.84 775.44C1683.84 778.599 1683.84 781.758 1683.84 784.917Z" fill="#df8056" fill-rule="evenodd" opacity="1" stroke="none"/>
<path d="M1536.16 782.548C1521.95 784.127 1509.57 786.233 1499.04 788.866C1488.52 791.498 1479.04 794.394 1470.61 797.553C1462.19 800.712 1454.56 804.397 1447.71 808.609C1440.87 812.821 1440.34 820.192 1446.13 830.722C1451.92 841.251 1456.4 851.255 1459.56 860.731C1462.72 870.208 1466.14 882.581 1469.82 897.849C1473.51 913.117 1475.62 925.753 1476.14 935.756C1476.41 940.758 1476.67 945.76 1476.93 950.761C1480.35 947.866 1483.78 944.97 1487.2 942.074C1494.04 936.283 1501.94 930.755 1510.89 925.49C1519.84 920.225 1531.16 915.223 1544.85 910.485C1558.54 905.746 1569.59 903.114 1578.02 902.587C1582.23 902.324 1586.44 902.061 1590.65 901.798C1587.23 898.902 1583.81 896.006 1580.39 893.111C1573.54 887.319 1566.96 880.475 1560.64 872.577C1554.33 864.68 1548.27 859.678 1542.48 857.573C1536.69 855.467 1534.58 851.255 1536.16 844.937C1537.74 838.619 1540.64 834.407 1544.85 832.301C1549.06 830.195 1554.33 829.405 1560.64 829.932C1566.96 830.458 1573.02 832.038 1578.81 834.67C1581.7 835.986 1584.6 837.303 1587.5 838.619C1586.71 834.933 1585.92 831.248 1585.13 827.563C1583.55 820.192 1582.76 810.452 1582.76 798.342C1582.76 792.288 1582.76 786.233 1582.76 780.179C1578.54 780.179 1574.33 780.179 1570.12 780.179C1561.7 780.179 1550.38 780.968 1536.16 782.548Z" fill="#df8056" fill-rule="evenodd" opacity="1" stroke="none"/>
<path d="M1371.11 790.445C1356.37 796.236 1343.47 808.346 1332.41 826.773C1321.35 845.2 1309.25 862.048 1296.08 877.316C1282.92 892.584 1277.39 903.377 1279.5 909.695C1281.6 916.013 1282.66 923.647 1282.66 932.597C1282.66 941.548 1279.76 957.869 1273.97 981.561C1271.07 993.407 1268.18 1005.25 1265.28 1017.1C1269.5 1016.31 1273.71 1015.52 1277.92 1014.73C1286.34 1013.15 1292.66 1013.94 1296.87 1017.1C1301.08 1020.26 1304.24 1024.47 1306.35 1029.73C1308.46 1035 1309.51 1040 1309.51 1044.74C1309.51 1049.48 1308.46 1053.95 1306.35 1058.17C1305.3 1060.27 1304.24 1062.38 1303.19 1064.48C1304.24 1065.01 1305.3 1065.54 1306.35 1066.06C1308.46 1067.12 1313.98 1067.64 1322.93 1067.64C1327.41 1067.64 1331.88 1067.64 1336.36 1067.64C1336.1 1063.43 1335.83 1059.22 1335.57 1055.01C1335.04 1046.58 1335.57 1041.05 1337.15 1038.42C1338.73 1035.79 1342.15 1033.16 1347.42 1030.52C1352.68 1027.89 1357.42 1026.58 1361.63 1026.58C1365.84 1026.58 1369.79 1027.63 1373.48 1029.73C1377.16 1031.84 1380.32 1035.79 1382.95 1041.58C1385.59 1047.37 1386.64 1052.11 1386.11 1055.8C1385.85 1057.64 1385.59 1059.48 1385.32 1061.32C1387.17 1061.59 1389.01 1061.85 1390.85 1062.11C1394.54 1062.64 1399.01 1062.11 1404.28 1060.53C1409.54 1058.95 1414.28 1057.11 1418.49 1055.01C1422.7 1052.9 1424.55 1047.37 1424.02 1038.42C1423.49 1029.47 1425.07 1022.89 1428.76 1018.68C1432.44 1014.47 1436.39 1011.57 1440.6 1009.99C1444.82 1008.41 1450.08 1007.62 1456.4 1007.62C1462.72 1007.62 1466.93 1001.04 1469.03 987.879C1471.14 974.717 1472.19 962.344 1472.19 950.761C1472.19 939.178 1469.56 921.804 1464.3 898.639C1459.03 875.473 1454.03 858.362 1449.29 847.306C1444.55 836.25 1439.55 826.773 1434.29 818.876C1429.02 810.978 1422.7 803.344 1415.33 795.973C1407.96 788.602 1402.43 784.39 1398.75 783.337C1395.06 782.285 1385.85 784.654 1371.11 790.445Z" fill="#ba2e41" fill-rule="evenodd" opacity="1" stroke="none"/>
<path d="M1713.06 811.768C1708.32 820.192 1705.96 825.457 1705.96 827.563C1705.96 829.669 1707.53 832.038 1710.69 834.67C1713.85 837.303 1717.54 838.882 1721.75 839.409C1725.96 839.935 1730.17 838.092 1734.39 833.88C1738.6 829.669 1740.7 824.404 1740.7 818.086C1740.7 811.768 1739.65 807.293 1737.54 804.66C1735.44 802.028 1732.02 800.448 1727.28 799.922C1722.54 799.395 1717.8 803.344 1713.06 811.768Z" fill="#df8056" fill-rule="evenodd" opacity="1" stroke="none"/>
<path d="M1140.51 810.978C1140.51 812.558 1142.35 814.4 1146.03 816.506C1149.72 818.612 1151.56 820.718 1151.56 822.824C1151.56 824.93 1148.67 828.616 1142.87 833.88C1137.08 839.145 1131.29 843.094 1125.5 845.727C1119.71 848.359 1112.6 848.885 1104.18 847.306C1095.75 845.727 1090.49 844.147 1088.38 842.568C1086.28 840.988 1085.22 837.829 1085.22 833.091C1085.22 828.352 1086.01 824.667 1087.59 822.034C1089.17 819.402 1089.44 817.296 1088.38 815.717C1087.86 814.927 1087.33 814.137 1086.8 813.347C1085.75 815.717 1084.7 818.086 1083.64 820.455C1081.54 825.193 1080.75 830.195 1081.28 835.46C1081.8 840.725 1085.75 845.2 1093.12 848.885C1100.49 852.571 1108.39 853.624 1116.81 852.044C1125.24 850.465 1133.92 845.727 1142.87 837.829C1151.82 829.932 1156.04 824.404 1155.51 821.245C1154.98 818.086 1152.35 815.19 1147.61 812.558C1145.24 811.241 1142.87 809.925 1140.51 808.609C1140.51 809.399 1140.51 810.188 1140.51 810.978Z" fill="#000000" fill-rule="evenodd" opacity="1" stroke="none"/>
<path d="M1213.16 832.301C1204.74 838.619 1190.52 847.306 1170.52 858.362C1150.51 869.419 1131.56 878.369 1113.65 885.213C1095.75 892.058 1081.28 896.533 1070.22 898.639C1059.16 900.745 1053.63 902.324 1053.63 903.377C1053.63 904.43 1063.37 909.432 1082.85 918.382C1102.33 927.332 1117.34 932.861 1127.87 934.967C1138.4 937.072 1148.67 938.125 1158.67 938.125C1168.67 938.125 1176.83 935.23 1183.15 929.438C1189.47 923.647 1198.42 912.591 1210 896.27C1221.58 879.948 1228.69 868.102 1231.32 860.731C1233.96 853.361 1235.54 846.253 1236.06 839.409C1236.59 832.564 1236.33 828.089 1235.27 825.983C1234.22 823.877 1232.38 822.824 1229.75 822.824C1227.11 822.824 1221.58 825.983 1213.16 832.301Z" fill="#000000" fill-rule="evenodd" opacity="1" stroke="none"/>
<path d="M1224.22 829.932C1222.11 831.511 1220.53 837.303 1219.48 847.306C1218.43 857.309 1216.32 865.207 1213.16 870.998C1210 876.789 1206.32 878.895 1202.1 877.316C1197.89 875.736 1193.15 876.789 1187.89 880.475C1182.62 884.16 1175.52 887.582 1166.57 890.741C1157.62 893.9 1142.08 896.006 1119.97 897.059C1097.86 898.112 1083.64 899.428 1077.33 901.008C1071.01 902.587 1067.59 903.904 1067.06 904.957C1066.8 905.483 1066.53 906.01 1066.27 906.536C1074.69 910.222 1083.12 913.907 1091.54 917.592C1108.39 924.963 1125.5 929.702 1142.87 931.808C1160.25 933.914 1172.36 932.071 1179.2 926.279C1186.05 920.488 1194.47 910.748 1204.47 897.059C1214.48 883.371 1221.58 870.735 1225.8 859.152C1230.01 847.569 1232.11 839.672 1232.11 835.46C1232.11 831.248 1231.32 828.879 1229.75 828.352C1228.17 827.826 1226.32 828.352 1224.22 829.932Z" fill="#000000" fill-rule="evenodd" opacity="1" stroke="none"/>
<path d="M1207.63 840.988C1201.84 845.727 1191.57 852.308 1176.83 860.731C1162.09 869.155 1146.3 876.789 1129.45 883.634C1121.03 887.056 1112.6 890.478 1104.18 893.9C1107.07 894.164 1109.97 894.427 1112.86 894.69C1118.66 895.217 1127.87 894.427 1140.51 892.321C1153.14 890.215 1163.93 887.319 1172.88 883.634C1181.83 879.948 1187.89 876.789 1191.05 874.157C1194.21 871.525 1197.63 870.998 1201.31 872.577C1203.16 873.367 1205 874.157 1206.84 874.947C1208.42 870.998 1210 867.049 1211.58 863.101C1214.74 855.203 1216.32 848.359 1216.32 842.568C1216.32 839.672 1216.32 836.776 1216.32 833.88C1213.42 836.25 1210.53 838.619 1207.63 840.988Z" fill="#ffffff" fill-rule="evenodd" opacity="1" stroke="none"/>
<path d="M758.274 886.793C754.062 890.478 751.429 896.27 750.376 904.167C749.323 912.064 749.587 918.119 751.166 922.331C752.746 926.543 755.378 929.175 759.064 930.228C762.749 931.281 765.908 931.018 768.54 929.438C771.173 927.859 772.752 925.753 773.279 923.121C773.805 920.488 773.542 918.119 772.489 916.013C771.963 914.96 771.436 913.907 770.91 912.854C771.436 912.591 771.963 912.327 772.489 912.064C773.542 911.538 774.595 911.801 775.648 912.854C776.701 913.907 776.964 917.066 776.438 922.331C775.911 927.596 774.858 931.018 773.279 932.597C771.699 934.177 767.751 934.703 761.433 934.177C755.115 933.65 750.64 934.703 748.007 937.336C746.691 938.652 745.375 939.968 744.059 941.284C740.373 935.493 736.688 929.702 733.002 923.91C725.631 912.327 720.367 905.746 717.208 904.167C714.049 902.587 708.784 902.587 701.413 904.167C694.042 905.746 689.04 909.695 686.408 916.013C683.776 922.331 683.512 928.649 685.618 934.967C687.724 941.284 689.567 945.233 691.146 946.813C692.726 948.392 695.622 949.182 699.833 949.182C704.045 949.182 707.204 947.602 709.31 944.443C711.416 941.284 712.996 936.546 714.049 930.228C715.102 923.91 716.155 920.751 717.208 920.751C717.734 920.751 718.261 920.751 718.787 920.751C718.524 923.91 718.261 927.069 717.997 930.228C717.471 936.546 715.891 941.811 713.259 946.023C710.626 950.235 706.678 952.604 701.413 953.13C696.148 953.657 691.673 952.077 687.987 948.392C684.302 944.707 681.933 941.021 680.88 937.336C679.827 933.65 677.458 931.808 673.772 931.808C670.087 931.808 666.928 934.44 664.295 939.705C661.663 944.97 660.873 951.288 661.926 958.659C662.979 966.029 666.401 970.768 672.193 972.874C677.984 974.98 682.196 973.664 684.828 968.925C686.145 966.556 687.461 964.187 688.777 961.818C689.567 962.344 690.357 962.87 691.146 963.397C691.936 963.923 692.726 964.45 693.516 964.976C691.41 967.609 689.304 970.241 687.198 972.874C682.986 978.139 677.984 979.981 672.193 978.402C666.401 976.822 662.979 974.98 661.926 972.874C661.4 971.821 660.873 970.768 660.347 969.715C658.767 970.505 657.188 971.294 655.608 972.084C652.449 973.664 650.607 978.139 650.08 985.51C649.554 992.88 650.343 998.145 652.449 1001.3C654.555 1004.46 657.714 1006.57 661.926 1007.62C666.138 1008.68 669.297 1007.89 671.403 1005.25C673.509 1002.62 674.299 999.462 673.772 995.776C673.246 992.091 673.509 989.985 674.562 989.458C675.088 989.195 675.615 988.932 676.141 988.668C677.194 991.301 678.247 993.933 679.3 996.566C681.406 1001.83 687.987 1010.52 699.044 1022.63C710.1 1034.74 719.84 1042.63 728.264 1046.32C736.688 1050 746.954 1052.64 759.064 1054.22C771.173 1055.8 778.28 1053.16 780.386 1046.32C782.492 1039.47 785.125 1033.95 788.284 1029.73C791.443 1025.52 792.759 1019.47 792.232 1011.57C791.969 1007.62 791.706 1003.67 791.443 999.725C792.232 999.725 793.022 999.725 793.812 999.725C795.391 999.725 796.444 1003.67 796.971 1011.57C797.497 1019.47 795.655 1026.84 791.443 1033.68C787.231 1040.53 784.598 1046.32 783.545 1051.06C782.492 1055.8 782.756 1061.06 784.335 1066.85C785.915 1072.64 788.81 1076.07 793.022 1077.12C797.234 1078.17 804.605 1071.59 815.135 1057.38C825.664 1043.16 831.982 1033.95 834.088 1029.73C836.194 1025.52 837.511 1020.52 838.037 1014.73C838.563 1008.94 832.246 995.776 819.083 975.243C805.921 954.71 796.971 935.23 792.232 916.803C787.494 898.375 783.545 887.846 780.386 885.213C777.227 882.581 773.805 881.265 770.12 881.265C766.434 881.265 762.486 883.107 758.274 886.793Z" fill="#df8056" fill-rule="evenodd" opacity="1" stroke="none"/>
<path d="M850.673 886.793C839.616 888.372 828.034 891.268 815.924 895.48C803.815 899.692 797.234 902.851 796.181 904.957C795.128 907.063 795.391 911.801 796.971 919.172C798.55 926.543 801.446 934.967 805.658 944.443C809.87 953.92 816.977 966.556 826.981 982.351C836.984 998.145 848.04 1006.57 860.15 1007.62C872.259 1008.68 882.525 1010.78 890.949 1013.94C895.161 1015.52 899.373 1017.1 903.585 1018.68C903.848 1012.89 904.111 1007.1 904.375 1001.3C904.901 989.721 906.217 979.455 908.323 970.505C910.429 961.554 915.957 947.602 924.908 928.649C929.383 919.172 933.858 909.695 938.333 900.218C932.542 898.112 926.751 896.006 920.959 893.9C909.376 889.688 897.53 887.056 885.421 886.003C873.312 884.95 861.729 885.213 850.673 886.793Z" fill="#df8056" fill-rule="evenodd" opacity="1" stroke="none"/>
<path d="M934.385 917.592C926.487 932.334 920.433 946.813 916.221 961.028C912.009 975.243 909.64 988.932 909.113 1002.09C908.587 1015.26 910.429 1032.37 914.641 1053.43C918.853 1074.49 922.802 1087.39 926.487 1092.12C930.173 1096.86 934.648 1100.81 939.913 1103.97C945.178 1107.13 948.863 1107.66 950.969 1105.55C953.075 1103.44 957.287 1102.39 963.605 1102.39C969.923 1102.39 974.398 1103.44 977.03 1105.55C979.663 1107.66 981.769 1111.34 983.348 1116.61C984.928 1121.87 989.929 1124.5 998.353 1124.5C1002.57 1124.5 1006.78 1124.5 1010.99 1124.5C1008.88 1121.87 1006.78 1119.24 1004.67 1116.61C1000.46 1111.34 998.616 1105.81 999.143 1100.02C999.669 1094.23 1002.04 1089.23 1006.25 1085.02C1010.46 1080.8 1015.73 1077.91 1022.05 1076.33C1028.36 1074.75 1033.63 1075.28 1037.84 1077.91C1042.05 1080.54 1044.95 1084.49 1046.53 1089.75C1048.11 1095.02 1049.42 1097.65 1050.48 1097.65C1051.53 1097.65 1054.42 1093.97 1059.16 1086.6C1063.9 1079.22 1063.64 1073.7 1058.37 1070.01C1053.11 1066.33 1049.69 1060.01 1048.11 1051.06C1046.53 1042.11 1048.9 1034.47 1055.21 1028.16C1061.53 1021.84 1066.27 1018.42 1069.43 1017.89C1072.59 1017.36 1075.22 1017.63 1077.33 1018.68C1078.38 1019.2 1079.43 1019.73 1080.49 1020.26C1080.49 1019.73 1080.49 1019.2 1080.49 1018.68C1080.49 1017.63 1076.54 1004.73 1068.64 979.981C1060.74 955.236 1045.74 939.178 1023.62 931.808C1001.51 924.437 983.085 916.539 968.343 908.116C960.972 903.904 953.601 899.692 946.231 895.48C942.282 902.851 938.333 910.222 934.385 917.592Z" fill="#ba2e41" fill-rule="evenodd" opacity="1" stroke="none"/>
<path d="M1255.81 919.172C1245.28 928.649 1241.59 940.231 1244.75 953.92C1247.91 967.609 1249.49 982.087 1249.49 997.356C1249.49 1012.62 1247.12 1031.05 1242.38 1052.64C1237.64 1074.22 1236.59 1085.81 1239.22 1087.39C1241.85 1088.96 1247.38 1089.49 1255.81 1088.96C1264.23 1088.44 1271.6 1090.28 1277.92 1094.49C1284.24 1098.7 1287.66 1104.23 1288.19 1111.08C1288.71 1117.92 1288.19 1122.92 1286.61 1126.08C1285.03 1129.24 1284.5 1136.61 1285.03 1148.19C1285.55 1159.78 1295.82 1167.94 1315.83 1172.68C1325.83 1175.05 1335.83 1177.42 1345.84 1179.78C1344.78 1176.63 1343.73 1173.47 1342.68 1170.31C1340.57 1163.99 1339.52 1157.67 1339.52 1151.35C1339.52 1145.04 1341.1 1132.93 1344.26 1115.03C1347.42 1097.13 1347.94 1087.39 1345.84 1085.81C1343.73 1084.23 1342.41 1081.86 1341.89 1078.7C1341.36 1075.54 1340.31 1073.43 1338.73 1072.38C1337.15 1071.33 1331.88 1071.06 1322.93 1071.59C1313.98 1072.12 1307.67 1071.59 1303.98 1070.01C1300.29 1068.43 1295.82 1069.22 1290.55 1072.38C1285.29 1075.54 1280.29 1077.12 1275.55 1077.12C1270.81 1077.12 1266.86 1076.07 1263.7 1073.96C1260.55 1071.85 1258.44 1069.48 1257.39 1066.85C1256.33 1064.22 1255.81 1058.43 1255.81 1049.48C1255.81 1040.53 1259.49 1021.31 1266.86 991.827C1274.23 962.344 1277.92 942.601 1277.92 932.597C1277.92 922.594 1276.87 915.486 1274.76 911.274C1273.71 909.169 1272.65 907.063 1271.6 904.957C1266.34 909.695 1261.07 914.433 1255.81 919.172Z" fill="#2be68f" fill-rule="evenodd" opacity="1" stroke="none"/>
<path d="M1232.9 938.125C1231.32 939.178 1230.54 940.758 1230.54 942.864C1230.54 944.97 1231.85 952.341 1234.48 964.976C1237.12 977.612 1238.43 988.932 1238.43 998.935C1238.43 1008.94 1237.64 1019.2 1236.06 1029.73C1234.48 1040.26 1232.11 1050.53 1228.96 1060.53C1225.8 1070.54 1224.22 1076.33 1224.22 1077.91C1224.22 1079.49 1225.01 1080.54 1226.59 1081.07C1228.17 1081.59 1230.27 1078.96 1232.9 1073.17C1235.54 1067.38 1238.17 1057.38 1240.8 1043.16C1243.43 1028.94 1244.75 1013.68 1244.75 997.356C1244.75 981.034 1243.17 966.819 1240.01 954.71C1238.43 948.655 1236.85 942.601 1235.27 936.546C1234.48 937.072 1233.69 937.599 1232.9 938.125Z" fill="#58b9dd" fill-rule="evenodd" opacity="1" stroke="none"/>
<path d="M740.9 948.392C726.158 955.236 715.365 961.554 708.521 967.346C701.676 973.137 696.938 978.402 694.305 983.14C692.989 985.51 691.673 987.879 690.357 990.248C696.938 984.72 703.519 979.192 710.1 973.664C723.262 962.607 735.371 954.71 746.428 949.971C757.484 945.233 766.171 942.601 772.489 942.074C778.807 941.548 781.966 940.758 781.966 939.705C781.966 939.178 781.966 938.652 781.966 938.125C778.807 938.125 775.648 938.125 772.489 938.125C766.171 938.125 755.641 941.548 740.9 948.392Z" fill="#000000" fill-rule="evenodd" opacity="1" stroke="none"/>
<path d="M1073.38 983.93C1081.28 1010.25 1087.07 1026.05 1090.75 1031.31C1094.44 1036.58 1096.81 1042.37 1097.86 1048.69C1098.91 1055.01 1098.12 1061.06 1095.49 1066.85C1092.86 1072.64 1090.23 1076.07 1087.59 1077.12C1084.96 1078.17 1081.54 1078.43 1077.33 1077.91C1073.11 1077.38 1070.48 1077.65 1069.43 1078.7C1068.38 1079.75 1067.06 1082.12 1065.48 1085.81C1063.9 1089.49 1061.27 1093.18 1057.58 1096.86C1053.9 1100.55 1052.58 1103.97 1053.63 1107.13C1054.16 1108.71 1054.69 1110.29 1055.21 1111.87C1063.11 1107.66 1071.01 1103.44 1078.91 1099.23C1094.7 1090.81 1107.07 1082.38 1116.02 1073.96C1124.97 1065.54 1124.71 1051.06 1115.23 1030.52C1105.76 1009.99 1099.18 991.827 1095.49 976.033C1091.81 960.238 1085.22 951.024 1075.75 948.392C1071.01 947.076 1066.27 945.76 1061.53 944.443C1065.48 957.606 1069.43 970.768 1073.38 983.93Z" fill="#df8056" fill-rule="evenodd" opacity="1" stroke="none"/>
<path d="M1215.53 949.971C1209.74 953.657 1201.84 956.816 1191.84 959.448C1181.83 962.081 1172.36 963.397 1163.41 963.397C1154.46 963.397 1143.4 962.344 1130.24 960.238C1123.66 959.185 1117.08 958.132 1110.5 957.079C1112.86 964.976 1115.23 972.874 1117.6 980.771C1122.34 996.566 1128.13 1011.57 1134.98 1025.79C1138.4 1032.89 1141.82 1040 1145.24 1047.11C1154.46 1037.37 1163.67 1027.63 1172.88 1017.89C1191.31 998.409 1202.89 984.72 1207.63 976.822C1212.37 968.925 1216.85 962.87 1221.06 958.659C1225.27 954.447 1226.85 951.024 1225.8 948.392C1225.27 947.076 1224.74 945.76 1224.22 944.443C1221.32 946.286 1218.43 948.129 1215.53 949.971Z" fill="#2be68f" fill-rule="evenodd" opacity="1" stroke="none"/>
<path d="M1100.23 976.033C1103.91 991.827 1109.97 1009.2 1118.39 1028.16C1126.82 1047.11 1135.24 1063.43 1143.66 1077.12C1152.09 1090.81 1157.09 1098.44 1158.67 1100.02C1160.25 1101.6 1163.41 1102.13 1168.15 1101.6C1172.88 1101.07 1175.52 1100.28 1176.04 1099.23C1176.57 1098.18 1173.94 1094.76 1168.15 1088.96C1162.35 1083.17 1154.98 1072.64 1146.03 1057.38C1137.08 1042.11 1129.71 1027.37 1123.92 1013.15C1118.13 998.935 1113.65 985.773 1110.5 973.664C1107.34 961.554 1103.91 954.973 1100.23 953.92C1098.39 953.394 1096.54 952.867 1094.7 952.341C1096.54 960.238 1098.39 968.135 1100.23 976.033Z" fill="#58b9dd" fill-rule="evenodd" opacity="1" stroke="none"/>
<path d="M1215.53 974.453C1207.63 986.036 1194.47 1001.57 1176.04 1021.05C1157.62 1040.53 1150.77 1054.74 1155.51 1063.69C1160.25 1072.64 1166.57 1081.07 1174.46 1088.96C1182.36 1096.86 1187.36 1100.28 1189.47 1099.23C1191.57 1098.18 1194.47 1094.76 1198.16 1088.96C1201.84 1083.17 1206.58 1079.75 1212.37 1078.7C1218.16 1077.65 1223.16 1066.85 1227.38 1046.32C1231.59 1025.79 1233.69 1009.73 1233.69 998.145C1233.69 986.563 1232.64 976.822 1230.54 968.925C1229.48 964.976 1228.43 961.028 1227.38 957.079C1223.43 962.87 1219.48 968.662 1215.53 974.453Z" fill="#2be68f" fill-rule="evenodd" opacity="1" stroke="none"/>
<path d="M1447.71 1013.15C1440.87 1014.73 1435.6 1018.15 1431.92 1023.42C1428.23 1028.68 1427.18 1035.26 1428.76 1043.16C1430.34 1051.06 1433.5 1056.59 1438.24 1059.74C1442.97 1062.9 1447.19 1064.22 1450.87 1063.69C1454.56 1063.17 1458.51 1059.22 1462.72 1051.85C1466.93 1044.48 1468.77 1036.32 1468.25 1027.37C1467.72 1018.42 1465.88 1013.41 1462.72 1012.36C1459.56 1011.31 1454.56 1011.57 1447.71 1013.15Z" fill="#000000" fill-rule="evenodd" opacity="1" stroke="none"/>
<path d="M1271.6 1019.47C1267.39 1021.05 1264.49 1023.94 1262.91 1028.16C1261.33 1032.37 1260.55 1039.21 1260.55 1048.69C1260.55 1058.17 1261.86 1064.48 1264.49 1067.64C1267.13 1070.8 1272.13 1071.85 1279.5 1070.8C1286.87 1069.75 1292.4 1067.64 1296.08 1064.48C1299.77 1061.32 1302.14 1058.43 1303.19 1055.8C1304.24 1053.16 1304.77 1049.21 1304.77 1043.95C1304.77 1038.69 1303.98 1034.21 1302.4 1030.52C1300.82 1026.84 1298.45 1023.68 1295.29 1021.05C1292.13 1018.42 1288.45 1017.1 1284.24 1017.1C1280.03 1017.1 1275.81 1017.89 1271.6 1019.47Z" fill="#000000" fill-rule="evenodd" opacity="1" stroke="none"/>
<path d="M1061.53 1028.16C1056.27 1032.37 1053.37 1038.16 1052.84 1045.53C1052.32 1052.9 1053.63 1058.69 1056.79 1062.9C1059.95 1067.12 1063.37 1070.01 1067.06 1071.59C1070.75 1073.17 1074.69 1073.96 1078.91 1073.96C1083.12 1073.96 1086.54 1072.64 1089.17 1070.01C1091.81 1067.38 1093.38 1063.17 1093.91 1057.38C1094.44 1051.58 1093.38 1045.79 1090.75 1040C1088.12 1034.21 1085.75 1030.26 1083.64 1028.16C1081.54 1026.05 1078.64 1024.47 1074.96 1023.42C1071.27 1022.36 1066.8 1023.94 1061.53 1028.16Z" fill="#000000" fill-rule="evenodd" opacity="1" stroke="none"/>
<path d="M1348.21 1035.26C1343.47 1037.9 1340.83 1042.63 1340.31 1049.48C1339.78 1056.32 1340.57 1063.17 1342.68 1070.01C1344.78 1076.86 1346.89 1081.33 1349 1083.44C1351.1 1085.54 1353.73 1086.6 1356.89 1086.6C1360.05 1086.6 1364.26 1083.96 1369.53 1078.7C1374.79 1073.43 1378.22 1067.12 1379.79 1059.74C1381.37 1052.37 1380.85 1046.32 1378.22 1041.58C1375.58 1036.84 1371.11 1033.95 1364.79 1032.89C1358.47 1031.84 1352.94 1032.63 1348.21 1035.26Z" fill="#000000" fill-rule="evenodd" opacity="1" stroke="none"/>
<path d="M1117.6 1077.91C1109.71 1085.81 1097.6 1093.97 1081.28 1102.39C1064.95 1110.81 1057.58 1118.18 1059.16 1124.5C1060.74 1130.82 1061.53 1138.98 1061.53 1148.98C1061.53 1153.99 1061.53 1158.99 1061.53 1163.99C1070.75 1162.15 1079.96 1160.3 1089.17 1158.46C1107.6 1154.78 1122.87 1152.67 1134.98 1152.14C1147.09 1151.62 1153.4 1148.98 1153.93 1144.25C1154.46 1139.51 1153.67 1134.24 1151.56 1128.45C1149.46 1122.66 1149.98 1117.13 1153.14 1111.87C1156.3 1106.6 1155.25 1100.81 1149.98 1094.49C1144.72 1088.18 1140.77 1082.12 1138.14 1076.33C1135.5 1070.54 1133.4 1067.38 1131.82 1066.85C1130.24 1066.33 1125.5 1070.01 1117.6 1077.91Z" fill="#2be68f" fill-rule="evenodd" opacity="1" stroke="none"/>
<path d="M1013.36 1085.81C1007.57 1090.54 1004.41 1095.55 1003.88 1100.81C1003.35 1106.08 1005.46 1111.6 1010.2 1117.4C1014.94 1123.19 1020.73 1126.61 1027.57 1127.66C1034.42 1128.71 1039.16 1127.4 1041.79 1123.71C1044.42 1120.03 1045.74 1114.76 1045.74 1107.92C1045.74 1101.07 1044.16 1094.76 1041 1088.96C1037.84 1083.17 1033.89 1080.01 1029.15 1079.49C1024.41 1078.96 1019.15 1081.07 1013.36 1085.81Z" fill="#000000" fill-rule="evenodd" opacity="1" stroke="none"/>
<path d="M1200.53 1092.12C1196.31 1097.92 1194.73 1104.76 1195.79 1112.66C1196.84 1120.55 1200.53 1124.5 1206.84 1124.5C1213.16 1124.5 1219.48 1123.45 1225.8 1121.34C1232.11 1119.24 1236.59 1115.82 1239.22 1111.08C1241.85 1106.34 1242.64 1101.86 1241.59 1097.65C1240.54 1093.44 1237.64 1090.02 1232.9 1087.39C1228.17 1084.75 1222.64 1083.44 1216.32 1083.44C1210 1083.44 1204.74 1086.33 1200.53 1092.12Z" fill="#58b9dd" fill-rule="evenodd" opacity="1" stroke="none"/>
<path d="M1250.28 1092.91C1247.65 1093.97 1246.59 1095.81 1247.12 1098.44C1247.65 1101.07 1246.86 1105.55 1244.75 1111.87C1242.64 1118.18 1243.96 1123.45 1248.7 1127.66C1253.44 1131.87 1257.91 1134.24 1262.12 1134.77C1266.34 1135.3 1270.02 1135.03 1273.18 1133.98C1276.34 1132.93 1278.97 1130.82 1281.08 1127.66C1283.18 1124.5 1283.71 1118.97 1282.66 1111.08C1281.6 1103.18 1278.97 1098.18 1274.76 1096.07C1270.55 1093.97 1266.07 1092.65 1261.33 1092.12C1256.6 1091.6 1252.91 1091.86 1250.28 1092.91Z" fill="#58b9dd" fill-rule="evenodd" opacity="1" stroke="none"/>
<path d="M1163.41 1108.71C1157.62 1111.87 1154.72 1116.34 1154.72 1122.13C1154.72 1127.93 1156.83 1131.87 1161.04 1133.98C1165.25 1136.09 1171.31 1136.35 1179.2 1134.77C1187.1 1133.19 1191.57 1131.35 1192.63 1129.24C1193.68 1127.14 1193.42 1122.66 1191.84 1115.82C1190.26 1108.97 1186.57 1105.29 1180.78 1104.76C1174.99 1104.23 1169.2 1105.55 1163.41 1108.71Z" fill="#58b9dd" fill-rule="evenodd" opacity="1" stroke="none"/>
<path d="M954.918 1109.5C951.232 1112.13 949.39 1115.55 949.39 1119.76C949.39 1123.98 951.496 1128.71 955.707 1133.98C959.919 1139.24 964.395 1142.67 969.133 1144.25C973.871 1145.83 977.294 1145.04 979.399 1141.88C981.505 1138.72 982.295 1134.24 981.769 1128.45C981.242 1122.66 979.663 1117.66 977.03 1113.45C974.398 1109.23 970.976 1106.87 966.764 1106.34C962.552 1105.81 958.603 1106.87 954.918 1109.5Z" fill="#000000" fill-rule="evenodd" opacity="1" stroke="none"/>
<path d="M1228.96 1124.5C1224.74 1126.61 1218.69 1127.93 1210.79 1128.45C1202.89 1128.98 1198.16 1130.29 1196.58 1132.4C1195 1134.51 1192.36 1136.35 1188.68 1137.93C1184.99 1139.51 1179.2 1140.3 1171.31 1140.3C1163.41 1140.3 1159.2 1142.14 1158.67 1145.83C1158.14 1149.51 1158.67 1155.04 1160.25 1162.41C1161.83 1169.78 1167.09 1177.68 1176.04 1186.1C1184.99 1194.53 1193.15 1200.05 1200.53 1202.69C1207.9 1205.32 1215 1206.64 1221.85 1206.64C1228.69 1206.64 1235.8 1205.58 1243.17 1203.48C1250.54 1201.37 1256.07 1198.47 1259.76 1194.79C1263.44 1191.1 1266.86 1189 1270.02 1188.47C1273.18 1187.94 1275.81 1184.26 1277.92 1177.42C1280.03 1170.57 1280.81 1161.88 1280.29 1151.35C1280.03 1146.09 1279.76 1140.82 1279.5 1135.56C1278.71 1136.09 1277.92 1136.61 1277.13 1137.14C1275.55 1138.19 1271.6 1138.72 1265.28 1138.72C1258.97 1138.72 1252.38 1135.82 1245.54 1130.03C1238.7 1124.24 1233.17 1122.4 1228.96 1124.5Z" fill="#58b9dd" fill-rule="evenodd" opacity="1" stroke="none"/>
<path d="M1133.4 1156.88C1121.29 1157.41 1106.02 1159.51 1087.59 1163.2C1069.17 1166.89 1058.11 1171.62 1054.42 1177.42C1052.58 1180.31 1050.74 1183.21 1048.9 1186.1C1055.21 1184.52 1061.53 1182.94 1067.85 1181.36C1080.49 1178.2 1098.65 1175.84 1122.34 1174.26C1134.19 1173.47 1146.03 1172.68 1157.88 1171.89C1157.62 1169.25 1157.35 1166.62 1157.09 1163.99C1156.56 1158.72 1155.51 1156.09 1153.93 1156.09C1152.35 1156.09 1145.51 1156.36 1133.4 1156.88Z" fill="#722728" fill-rule="evenodd" opacity="1" stroke="none"/>
<path d="M1282.66 1178.99C1281.6 1185.84 1293.71 1191.89 1318.99 1197.16C1331.62 1199.79 1344.26 1202.42 1356.89 1205.06C1355.31 1201.63 1353.73 1198.21 1352.15 1194.79C1349 1187.94 1336.89 1181.89 1315.83 1176.63C1305.3 1173.99 1294.77 1171.36 1284.24 1168.73C1283.71 1172.15 1283.18 1175.57 1282.66 1178.99Z" fill="#722728" fill-rule="evenodd" opacity="1" stroke="none"/>
<path d="M1094.7 1181.36C1071.54 1184.52 1057.06 1187.16 1051.27 1189.26C1045.47 1191.37 1040.74 1194.26 1037.05 1197.95C1033.36 1201.63 1030.47 1203.74 1028.36 1204.27C1026.26 1204.79 1025.2 1205.85 1025.2 1207.42C1025.2 1209 1029.15 1217.69 1037.05 1233.49C1044.95 1249.28 1053.37 1264.29 1062.32 1278.5C1071.27 1292.72 1083.12 1309.56 1097.86 1329.04C1112.6 1348.52 1122.08 1360.11 1126.29 1363.79C1130.5 1367.48 1134.71 1369.32 1138.93 1369.32C1143.14 1369.32 1146.56 1368.53 1149.19 1366.95C1151.82 1365.37 1161.56 1355.9 1178.41 1338.52C1195.26 1321.15 1213.69 1305.88 1233.69 1292.72C1253.7 1279.55 1270.81 1269.55 1285.03 1262.71C1299.24 1255.86 1318.72 1249.02 1343.47 1242.17C1355.84 1238.75 1368.21 1235.33 1380.58 1231.91C1377.43 1228.22 1374.27 1224.54 1371.11 1220.85C1364.79 1213.48 1355.31 1208.21 1342.68 1205.06C1330.04 1201.9 1314.77 1199 1296.87 1196.37C1278.97 1193.74 1267.39 1194.53 1262.12 1198.74C1256.86 1202.95 1250.54 1206.11 1243.17 1208.21C1235.8 1210.32 1228.96 1211.37 1222.64 1211.37C1216.32 1211.37 1208.69 1209.79 1199.74 1206.64C1190.79 1203.48 1182.1 1197.68 1173.67 1189.26C1165.25 1180.84 1155.77 1176.63 1145.24 1176.63C1134.71 1176.63 1117.87 1178.2 1094.7 1181.36Z" fill="#2be68f" fill-rule="evenodd" opacity="1" stroke="none"/>
<path d="M995.984 1218.48C982.822 1224.27 975.188 1228.22 973.082 1230.33C970.976 1232.43 969.659 1236.12 969.133 1241.38C968.606 1246.65 971.239 1256.13 977.03 1269.81C982.822 1283.5 989.929 1296.66 998.353 1309.3C1006.78 1321.94 1019.94 1339.05 1037.84 1360.63C1055.74 1382.22 1066.01 1393.54 1068.64 1394.59C1071.27 1395.65 1078.38 1402.23 1089.96 1414.34C1101.55 1426.44 1113.92 1436.71 1127.08 1445.14C1140.24 1453.56 1148.93 1457.51 1153.14 1456.98C1157.35 1456.45 1165.25 1452.51 1176.83 1445.14C1188.42 1437.76 1205.26 1423.02 1227.38 1400.91C1249.49 1378.8 1271.07 1360.37 1292.13 1345.63C1313.19 1330.89 1337.68 1315.88 1365.58 1300.61C1393.48 1285.35 1408.75 1277.45 1411.38 1276.92C1414.02 1276.4 1418.23 1279.29 1424.02 1285.61C1429.81 1291.93 1434.29 1294.03 1437.45 1291.93C1440.6 1289.82 1443.24 1286.92 1445.34 1283.24C1447.45 1279.55 1447.98 1275.61 1446.92 1271.39C1445.87 1267.18 1441.66 1264.29 1434.29 1262.71C1426.92 1261.13 1416.91 1256.13 1404.28 1247.7C1391.64 1239.28 1375.06 1237.7 1354.52 1242.96C1333.99 1248.23 1318.99 1252.7 1309.51 1256.39C1300.03 1260.07 1285.29 1267.44 1265.28 1278.5C1245.28 1289.56 1230.54 1298.51 1221.06 1305.35C1211.58 1312.2 1198.42 1324.31 1181.57 1341.68C1164.72 1359.05 1154.46 1368.79 1150.77 1370.9C1147.09 1373.01 1143.14 1374.06 1138.93 1374.06C1134.71 1374.06 1129.98 1371.95 1124.71 1367.74C1119.45 1363.53 1111.29 1354.32 1100.23 1340.1C1089.17 1325.89 1077.59 1309.56 1065.48 1291.14C1053.37 1272.71 1043.1 1254.55 1034.68 1236.65C1026.26 1218.74 1020.99 1209.79 1018.89 1209.79C1016.78 1209.79 1009.15 1212.69 995.984 1218.48Z" fill="#58b9dd" fill-rule="evenodd" opacity="1" stroke="none"/>
<path d="M948.6 1263.5C939.65 1270.87 930.436 1280.08 920.959 1291.14C911.482 1302.19 903.848 1314.04 898.057 1326.67C892.265 1339.31 889.107 1350.63 888.58 1360.63C888.054 1370.64 890.159 1384.59 894.898 1402.49C899.636 1420.39 905.954 1439.08 913.852 1458.56C921.749 1478.04 932.015 1489.1 944.651 1491.73C957.287 1494.36 969.659 1495.41 981.769 1494.89C993.878 1494.36 1004.41 1492.52 1013.36 1489.36C1022.31 1486.2 1031.79 1481.2 1041.79 1474.36C1051.79 1467.51 1056.79 1460.4 1056.79 1453.03C1056.79 1445.66 1054.69 1438.82 1050.48 1432.5C1046.26 1426.18 1043.89 1421.18 1043.37 1417.49C1042.84 1413.81 1043.37 1410.39 1044.95 1407.23C1046.53 1404.07 1049.42 1401.17 1053.63 1398.54C1057.85 1395.91 1059.95 1394.07 1059.95 1393.01C1059.95 1391.96 1049.69 1379.32 1029.15 1355.11C1008.62 1330.89 994.141 1311.41 985.717 1296.66C977.294 1281.92 972.029 1271.13 969.923 1264.29C967.817 1257.44 965.974 1253.76 964.395 1253.23C962.815 1252.7 957.55 1256.13 948.6 1263.5Z" fill="#722728" fill-rule="evenodd" opacity="1" stroke="none"/>
<path d="M1364 1306.93C1333.99 1323.25 1311.35 1337.2 1296.08 1348.79C1288.45 1354.58 1280.81 1360.37 1273.18 1366.16C1276.34 1366.42 1279.5 1366.69 1282.66 1366.95C1288.98 1367.48 1296.35 1369.58 1304.77 1373.27C1313.19 1376.95 1323.46 1383.54 1335.57 1393.01C1347.68 1402.49 1354.52 1409.07 1356.1 1412.76C1357.68 1416.44 1359 1424.08 1360.05 1435.66C1361.1 1447.24 1365.58 1458.56 1373.48 1469.62C1381.37 1480.67 1393.22 1488.31 1409.02 1492.52C1424.81 1496.73 1439.55 1498.57 1453.24 1498.05C1466.93 1497.52 1477.72 1495.15 1485.62 1490.94C1493.52 1486.73 1499.83 1482.25 1504.57 1477.51C1509.31 1472.78 1513.52 1467.25 1517.21 1460.93C1520.89 1454.61 1517.47 1439.34 1506.94 1415.13C1496.41 1390.91 1486.41 1371.16 1476.93 1355.9C1467.46 1340.63 1456.4 1326.15 1443.76 1312.46C1431.13 1298.77 1422.97 1290.35 1419.28 1287.19C1415.6 1284.03 1412.96 1282.45 1411.38 1282.45C1409.8 1282.45 1394.01 1290.61 1364 1306.93Z" fill="#722728" fill-rule="evenodd" opacity="1" stroke="none"/>
<path d="M1518.79 1466.46C1516.16 1471.2 1512.21 1476.2 1506.94 1481.46C1501.68 1486.73 1495.62 1491.2 1488.78 1494.89C1481.93 1498.57 1469.03 1500.68 1450.08 1501.21C1431.13 1501.73 1417.18 1500.68 1408.23 1498.05C1403.75 1496.73 1399.28 1495.41 1394.8 1494.1C1397.7 1497.26 1400.59 1500.42 1403.49 1503.58C1409.28 1509.89 1415.33 1514.89 1421.65 1518.58C1427.97 1522.27 1432.97 1526.74 1436.66 1532.01C1440.34 1537.27 1442.18 1543.59 1442.18 1550.96C1442.18 1558.33 1441.13 1566.75 1439.03 1576.23C1436.92 1585.71 1436.13 1592.82 1436.66 1597.55C1437.18 1602.29 1441.66 1607.03 1450.08 1611.77C1458.51 1616.51 1465.35 1621.51 1470.61 1626.77C1475.88 1632.04 1481.41 1634.41 1487.2 1633.88C1492.99 1633.36 1498.26 1630.72 1502.99 1625.98C1505.36 1623.62 1507.73 1621.25 1510.1 1618.88C1508.52 1617.82 1506.94 1616.77 1505.36 1615.72C1502.2 1613.61 1497.2 1612.03 1490.36 1610.98C1483.51 1609.93 1480.09 1608.61 1480.09 1607.03C1480.09 1606.24 1480.09 1605.45 1480.09 1604.66C1485.36 1605.98 1490.62 1607.29 1495.89 1608.61C1506.42 1611.24 1511.94 1614.14 1512.47 1617.3C1513 1620.46 1512.21 1623.35 1510.1 1625.98C1509.05 1627.3 1508 1628.62 1506.94 1629.93C1509.84 1629.93 1512.73 1629.93 1515.63 1629.93C1518.52 1629.93 1521.42 1629.93 1524.32 1629.93C1524.32 1626.77 1524.32 1623.62 1524.32 1620.46C1524.32 1614.14 1523.53 1609.14 1521.95 1605.45C1521.16 1603.61 1520.37 1601.77 1519.58 1599.92C1520.37 1599.92 1521.16 1599.92 1521.95 1599.92C1523.53 1599.92 1524.84 1600.71 1525.9 1602.29C1526.95 1603.87 1527.74 1608.87 1528.27 1617.3C1528.53 1621.51 1528.79 1625.72 1529.05 1629.93C1531.69 1629.14 1534.32 1628.35 1536.95 1627.56C1542.22 1625.98 1544.06 1620.19 1542.48 1610.19C1541.69 1605.19 1540.9 1600.19 1540.11 1595.18C1540.9 1595.45 1541.69 1595.71 1542.48 1595.97C1544.06 1596.5 1545.64 1601.24 1547.22 1610.19C1548.8 1619.14 1552.22 1623.35 1557.49 1622.83C1562.75 1622.3 1565.65 1621.25 1566.17 1619.67C1566.7 1618.09 1565.91 1614.4 1563.8 1608.61C1561.7 1602.82 1559.59 1599.66 1557.49 1599.13C1556.43 1598.87 1555.38 1598.61 1554.33 1598.34C1554.85 1597.55 1555.38 1596.76 1555.91 1595.97C1556.96 1594.39 1558.8 1594.39 1561.43 1595.97C1564.07 1597.55 1566.17 1600.98 1567.75 1606.24C1568.54 1608.87 1569.33 1611.51 1570.12 1614.14C1572.23 1613.09 1574.33 1612.03 1576.44 1610.98C1580.65 1608.87 1582.76 1606.77 1582.76 1604.66C1582.76 1602.56 1580.65 1599.4 1576.44 1595.18C1572.23 1590.97 1570.38 1584.92 1570.91 1577.02C1571.44 1569.12 1570.91 1562.28 1569.33 1556.49C1567.75 1550.7 1563.28 1543.33 1555.91 1534.38C1548.53 1525.42 1541.69 1510.68 1535.37 1490.15C1529.05 1469.62 1525.37 1459.35 1524.32 1459.35C1523.26 1459.35 1521.42 1461.72 1518.79 1466.46Z" fill="#df8056" fill-rule="evenodd" opacity="1" stroke="none"/>
<path d="M1042.58 1478.3C1034.15 1484.62 1025.99 1489.36 1018.1 1492.52C1010.2 1495.68 996.774 1497.52 977.82 1498.05C958.866 1498.57 946.231 1498.05 939.913 1496.47C936.754 1495.68 933.595 1494.89 930.436 1494.1C934.385 1499.63 938.333 1505.15 942.282 1510.68C950.179 1521.74 954.391 1529.11 954.918 1532.8C955.444 1536.48 953.865 1539.9 950.179 1543.06C946.494 1546.22 940.702 1548.59 932.805 1550.17C924.908 1551.75 914.641 1555.17 902.005 1560.44C889.37 1565.7 881.736 1569.65 879.103 1572.28C876.471 1574.91 875.155 1579.13 875.155 1584.92C875.155 1587.81 875.155 1590.71 875.155 1593.61C875.681 1592.03 876.208 1590.45 876.734 1588.87C877.787 1585.71 879.893 1582.55 883.052 1579.39C886.211 1576.23 888.843 1574.65 890.949 1574.65C892.002 1574.65 893.055 1574.65 894.108 1574.65C892.002 1576.76 889.896 1578.86 887.79 1580.97C883.578 1585.18 881.209 1590.18 880.683 1595.97C880.156 1601.77 880.419 1605.45 881.472 1607.03C881.999 1607.82 882.525 1608.61 883.052 1609.4C883.578 1606.77 884.105 1604.13 884.631 1601.5C885.684 1596.24 887.79 1591.5 890.949 1587.29C894.108 1583.08 896.477 1580.97 898.057 1580.97C898.847 1580.97 899.636 1580.97 900.426 1580.97C900.426 1581.5 900.426 1582.02 900.426 1582.55C900.426 1583.6 898.583 1586.5 894.898 1591.24C891.212 1595.97 889.37 1601.24 889.37 1607.03C889.37 1609.93 889.37 1612.82 889.37 1615.72C889.896 1615.72 890.423 1615.72 890.949 1615.72C892.002 1615.72 893.318 1612.03 894.898 1604.66C896.477 1597.29 898.583 1593.08 901.216 1592.03C902.532 1591.5 903.848 1590.97 905.164 1590.45C903.848 1592.82 902.532 1595.18 901.216 1597.55C898.583 1602.29 897.267 1607.03 897.267 1611.77C897.267 1616.51 897.794 1619.4 898.847 1620.46C899.373 1620.98 899.9 1621.51 900.426 1622.04C902.532 1617.82 904.638 1613.61 906.744 1609.4C910.956 1600.98 918.063 1596.24 928.067 1595.18C933.068 1594.66 938.07 1594.13 943.072 1593.61C940.966 1594.66 938.86 1595.71 936.754 1596.76C932.542 1598.87 928.067 1599.92 923.328 1599.92C918.59 1599.92 915.431 1600.71 913.852 1602.29C912.272 1603.87 910.693 1608.35 909.113 1615.72C907.534 1623.09 908.587 1627.83 912.272 1629.93C915.957 1632.04 920.433 1633.09 925.698 1633.09C930.962 1633.09 937.28 1631.51 944.651 1628.35C952.022 1625.19 960.446 1623.88 969.923 1624.4C979.399 1624.93 987.823 1624.67 995.194 1623.62C1002.57 1622.56 1017.57 1618.61 1040.21 1611.77C1062.85 1604.92 1075.22 1599.13 1077.33 1594.39C1079.43 1589.66 1080.49 1584.13 1080.49 1577.81C1080.49 1571.49 1079.96 1566.49 1078.91 1562.81C1077.85 1559.12 1075.22 1555.43 1071.01 1551.75C1066.8 1548.06 1063.64 1543.85 1061.53 1539.11C1059.43 1534.38 1058.37 1521.48 1058.37 1500.42C1058.37 1489.89 1058.37 1479.36 1058.37 1468.83C1057.85 1468.83 1057.32 1468.83 1056.79 1468.83C1055.74 1468.83 1051 1471.99 1042.58 1478.3Z" fill="#df8056" fill-rule="evenodd" opacity="1" stroke="none"/>
</g>
<g id="Layer-1" vectornator:layerName="Layer 1"/>
</svg>
