<?xml version="1.0" encoding="UTF-8" standalone="no"?>
<!DOCTYPE svg PUBLIC "-//W3C//DTD SVG 1.1//EN" "http://www.w3.org/Graphics/SVG/1.1/DTD/svg11.dtd"
[
<!ATTLIST g
  xmlns:vectornator CDATA #FIXED "http://vectornator.io"
  vectornator:layerName CDATA #IMPLIED >
<!ATTLIST g
  xmlns:vectornator CDATA #FIXED "http://vectornator.io"
  vectornator:mask CDATA #IMPLIED >
<!ATTLIST text
  xmlns:vectornator CDATA #FIXED "http://vectornator.io"
  vectornator:width CDATA #IMPLIED >

<!ATTLIST path
  xmlns:vectornator CDATA #FIXED "http://vectornator.io"
  vectornator:blendMode CDATA #IMPLIED >
<!ATTLIST path
  xmlns:vectornator CDATA #FIXED "http://vectornator.io"
  vectornator:shadowColor CDATA #IMPLIED >
<!ATTLIST path
  xmlns:vectornator CDATA #FIXED "http://vectornator.io"
  vectornator:shadowOpacity CDATA #IMPLIED >
<!ATTLIST path
  xmlns:vectornator CDATA #FIXED "http://vectornator.io"
  vectornator:shadowRadius CDATA #IMPLIED >
<!ATTLIST path
  xmlns:vectornator CDATA #FIXED "http://vectornator.io"
  vectornator:shadowOffset CDATA #IMPLIED >
<!ATTLIST path
  xmlns:vectornator CDATA #FIXED "http://vectornator.io"
  vectornator:shadowAngle CDATA #IMPLIED >

<!ATTLIST image
  xmlns:vectornator CDATA #FIXED "http://vectornator.io"
  vectornator:blendMode CDATA #IMPLIED >
<!ATTLIST image
  xmlns:vectornator CDATA #FIXED "http://vectornator.io"
  vectornator:shadowColor CDATA #IMPLIED >
<!ATTLIST image
  xmlns:vectornator CDATA #FIXED "http://vectornator.io"
  vectornator:shadowOpacity CDATA #IMPLIED >
<!ATTLIST image
  xmlns:vectornator CDATA #FIXED "http://vectornator.io"
  vectornator:shadowRadius CDATA #IMPLIED >
<!ATTLIST image
  xmlns:vectornator CDATA #FIXED "http://vectornator.io"
  vectornator:shadowOffset CDATA #IMPLIED >
<!ATTLIST image
  xmlns:vectornator CDATA #FIXED "http://vectornator.io"
  vectornator:shadowAngle CDATA #IMPLIED >

<!ATTLIST g
  xmlns:vectornator CDATA #FIXED "http://vectornator.io"
  vectornator:blendMode CDATA #IMPLIED >
<!ATTLIST g
  xmlns:vectornator CDATA #FIXED "http://vectornator.io"
  vectornator:shadowColor CDATA #IMPLIED >
<!ATTLIST g
  xmlns:vectornator CDATA #FIXED "http://vectornator.io"
  vectornator:shadowOpacity CDATA #IMPLIED >
<!ATTLIST g
  xmlns:vectornator CDATA #FIXED "http://vectornator.io"
  vectornator:shadowRadius CDATA #IMPLIED >
<!ATTLIST g
  xmlns:vectornator CDATA #FIXED "http://vectornator.io"
  vectornator:shadowOffset CDATA #IMPLIED >
<!ATTLIST g
  xmlns:vectornator CDATA #FIXED "http://vectornator.io"
  vectornator:shadowAngle CDATA #IMPLIED >

<!ENTITY % SVG.filter.extra.content  "| feDropShadow" >
<!ELEMENT feDropShadow EMPTY>
<!ATTLIST feDropShadow
  xmlns:svg CDATA #FIXED "http://www.w3.org/Graphics/SVG/1.1/DTD/svg11.dtd"
  dx CDATA #IMPLIED>
<!ATTLIST feDropShadow
  xmlns:svg CDATA #FIXED "http://www.w3.org/Graphics/SVG/1.1/DTD/svg11.dtd"
  dy CDATA #IMPLIED>
<!ATTLIST feDropShadow
  xmlns:svg CDATA #FIXED "http://www.w3.org/Graphics/SVG/1.1/DTD/svg11.dtd"
  stdDeviation CDATA #IMPLIED>
<!ATTLIST feDropShadow
  xmlns:svg CDATA #FIXED "http://www.w3.org/Graphics/SVG/1.1/DTD/svg11.dtd"
  flood-opacity CDATA #IMPLIED>
<!ATTLIST feDropShadow
  xmlns:svg CDATA #FIXED "http://www.w3.org/Graphics/SVG/1.1/DTD/svg11.dtd"
  in CDATA #IMPLIED>
<!ATTLIST feDropShadow
  xmlns:svg CDATA #FIXED "http://www.w3.org/Graphics/SVG/1.1/DTD/svg11.dtd"
  result CDATA #IMPLIED>
<!ATTLIST feDropShadow
  xmlns:svg CDATA #FIXED "http://www.w3.org/Graphics/SVG/1.1/DTD/svg11.dtd"
  flood-color CDATA #IMPLIED>
]
>
<!-- Created with Vectornator (http://vectornator.io/) -->
<svg height="100%" stroke-miterlimit="10" style="fill-rule:nonzero;clip-rule:evenodd;stroke-linecap:round;stroke-linejoin:round;" version="1.1" viewBox="0 0 2388 1668" width="100%" xml:space="preserve" xmlns="http://www.w3.org/2000/svg" xmlns:vectornator="http://vectornator.io" xmlns:xlink="http://www.w3.org/1999/xlink">
<defs/>
<g id="Layer-1" vectornator:layerName="Layer 1">
<path d="M1001.41 16.2893C994.045 18.3941 984.837 22.3405 973.786 28.1287C962.736 33.9169 951.16 42.0729 939.057 52.5969C926.955 63.1208 917.746 73.3817 911.432 83.3794C905.118 93.3772 899.329 107.848 894.067 126.791C888.806 145.734 875.914 155.995 855.392 157.573C834.87 159.152 814.612 164.151 794.616 172.57C774.621 180.989 761.203 187.567 754.362 192.302C747.522 197.038 740.155 203.616 732.262 212.035C724.369 220.454 718.054 228.084 713.319 234.924C708.583 241.765 704.11 250.447 699.901 260.971C695.691 271.495 693.849 285.439 694.376 302.804C694.902 320.168 696.48 333.323 699.111 342.269C701.742 351.214 705.163 359.107 709.372 365.947C713.582 372.788 720.422 381.207 729.894 391.205C739.365 401.203 747.785 409.096 755.151 414.884C762.518 420.672 774.094 426.197 789.88 431.459C797.773 434.09 805.666 436.721 813.559 439.352C810.402 443.035 807.245 446.719 804.088 450.402C797.773 457.769 792.248 465.662 787.513 474.081C782.777 482.5 777.778 495.392 772.516 512.756C767.254 530.121 764.36 550.117 763.834 572.743C763.307 595.369 763.834 610.629 765.412 618.522C766.991 626.415 769.885 635.097 774.094 644.569C778.304 654.04 785.671 664.828 796.195 676.93C806.719 689.033 818.558 698.241 831.713 704.555C844.868 710.87 855.129 714.816 862.496 716.395C869.862 717.973 877.492 718.763 885.385 718.763C893.278 718.763 906.17 717.71 924.061 715.606C933.006 714.553 941.951 713.501 950.897 712.448C948.792 717.447 946.687 722.446 944.582 727.445C942.478 732.444 940.373 737.443 938.268 742.442C936.953 741.652 935.637 740.863 934.322 740.074C931.691 738.495 926.692 738.495 919.325 740.074C911.958 741.652 903.013 747.704 892.489 758.228C881.965 768.752 871.441 781.117 860.917 795.324C850.393 809.532 845.657 821.108 846.71 830.054C847.762 838.999 849.867 847.155 853.024 854.522C856.181 861.888 859.338 867.15 862.496 870.308C865.653 873.465 866.442 880.042 864.864 890.04C863.285 900.038 862.759 910.825 863.285 922.401C863.811 933.978 867.495 943.712 874.335 951.605C881.176 959.498 892.226 969.759 907.486 982.388C922.745 995.016 941.951 1008.96 965.104 1024.22C988.257 1039.48 1000.62 1048.16 1002.2 1050.27C1003.78 1052.37 1008.25 1055 1015.62 1058.16C1022.99 1061.32 1030.09 1066.32 1036.93 1073.16C1043.77 1080 1050.61 1085.52 1057.45 1089.73C1064.29 1093.94 1066.4 1102.62 1063.77 1115.78C1061.14 1128.93 1056.93 1144.72 1051.14 1163.14C1045.35 1181.55 1041.67 1196.81 1040.09 1208.92C1038.51 1221.02 1036.67 1229.44 1034.56 1234.17C1032.46 1238.91 1028.51 1244.96 1022.72 1252.33C1016.93 1259.69 1011.67 1270.22 1006.94 1283.9C1002.2 1297.58 999.044 1318.36 997.465 1346.25C996.676 1360.2 995.887 1374.14 995.097 1388.09C993.256 1387.82 991.414 1387.56 989.572 1387.3C985.889 1386.77 982.469 1387.03 979.311 1388.09C976.154 1389.14 972.734 1394.4 969.051 1403.87C965.367 1413.34 962.736 1424.92 961.158 1438.6C959.579 1452.28 960.105 1460.96 962.736 1464.65C965.367 1468.33 968.261 1470.96 971.419 1472.54C974.576 1474.12 976.68 1476.22 977.733 1478.85C978.785 1481.49 979.575 1492.54 980.101 1512.01C980.627 1531.47 978.259 1547.26 972.997 1559.36C967.735 1571.47 964.315 1581.73 962.736 1590.15C961.158 1598.56 960.631 1605.67 961.158 1611.46C961.684 1617.24 962.736 1621.19 964.315 1623.3C965.893 1625.4 968.788 1627.24 972.997 1628.82C977.207 1630.4 984.573 1631.45 995.097 1631.98C1005.62 1632.5 1015.88 1633.82 1025.88 1635.92C1035.88 1638.03 1049.03 1639.08 1065.34 1639.08C1081.66 1639.08 1092.44 1638.29 1097.71 1636.71C1102.97 1635.14 1107.18 1632.77 1110.33 1629.61C1113.49 1626.45 1115.86 1622.24 1117.44 1616.98C1119.02 1611.72 1120.07 1601.72 1120.6 1586.99C1121.12 1572.25 1122.44 1558.05 1124.54 1544.37C1126.65 1530.69 1128.75 1521.21 1130.86 1515.95C1132.96 1510.69 1136.38 1504.9 1141.12 1498.59C1145.85 1492.27 1150.06 1483.06 1153.75 1470.96C1157.43 1458.86 1159.27 1450.18 1159.27 1444.92C1159.27 1439.65 1157.17 1435.18 1152.96 1431.5C1148.75 1427.81 1146.38 1424.39 1145.85 1421.24C1145.33 1418.08 1149.01 1404.13 1156.9 1379.4C1164.8 1354.67 1169.01 1332.57 1169.53 1313.1C1170.06 1293.63 1172.43 1278.37 1176.64 1267.32C1180.85 1256.27 1189.26 1239.44 1201.89 1216.81C1214.52 1194.18 1222.15 1179.19 1224.78 1171.82C1226.1 1168.14 1227.41 1164.45 1228.73 1160.77C1229.78 1161.56 1230.83 1162.35 1231.89 1163.14C1233.99 1164.72 1240.04 1173.4 1250.04 1189.18C1260.04 1204.97 1267.4 1218.39 1272.14 1229.44C1276.88 1240.49 1279.24 1247.85 1279.24 1251.54C1279.24 1255.22 1275.82 1261.54 1268.98 1270.48C1262.14 1279.43 1257.93 1286 1256.35 1290.21C1254.78 1294.42 1253.2 1304.68 1251.62 1321C1250.04 1337.31 1249.25 1353.88 1249.25 1370.72C1249.25 1387.56 1247.67 1396.51 1244.51 1397.56C1241.36 1398.61 1238.73 1401.24 1236.62 1405.45C1234.52 1409.66 1232.68 1423.87 1231.1 1448.07C1229.52 1472.28 1228.47 1506.48 1227.94 1550.68C1227.68 1572.78 1227.41 1594.88 1227.15 1616.98C1232.41 1616.46 1237.67 1615.93 1242.94 1615.4C1253.46 1614.35 1281.61 1615.14 1327.39 1617.77C1373.17 1620.4 1401.85 1621.45 1413.42 1620.93C1425 1620.4 1432.89 1618.3 1437.1 1614.61C1441.31 1610.93 1443.42 1605.67 1443.42 1598.83C1443.42 1591.99 1441.58 1584.36 1437.89 1575.94C1434.21 1567.52 1430 1561.2 1425.26 1557C1420.53 1552.79 1418.16 1550.15 1418.16 1549.1C1418.16 1548.05 1419.21 1547.26 1421.32 1546.73C1423.42 1546.21 1424.47 1544.89 1424.47 1542.79C1424.47 1540.68 1423.69 1539.37 1422.11 1538.84C1420.53 1538.32 1418.16 1539.1 1415 1541.21C1411.85 1543.31 1407.37 1541.74 1401.58 1536.47C1395.8 1531.21 1392.11 1527 1390.53 1523.84C1388.96 1520.69 1388.96 1515.69 1390.53 1508.85C1392.11 1502.01 1395.27 1496.75 1400.01 1493.06C1404.74 1489.38 1407.9 1485.43 1409.48 1481.22C1411.06 1477.01 1412.11 1465.7 1412.64 1447.28C1413.16 1428.87 1412.9 1418.34 1411.85 1415.71C1410.79 1413.08 1408.69 1410.45 1405.53 1407.82C1402.37 1405.19 1400.8 1401.24 1400.8 1395.98C1400.8 1390.72 1403.95 1368.88 1410.27 1330.47C1413.42 1311.26 1416.58 1292.05 1419.74 1272.85C1422.63 1273.9 1425.53 1274.95 1428.42 1276.01C1434.21 1278.11 1439.21 1281.53 1443.42 1286.27C1447.63 1291 1451.05 1293.63 1453.68 1294.16C1456.31 1294.69 1458.68 1297.32 1460.78 1302.05C1462.89 1306.79 1466.57 1311.52 1471.83 1316.26C1477.09 1321 1481.57 1324.15 1485.25 1325.73C1488.93 1327.31 1494.72 1327.57 1502.61 1326.52C1510.51 1325.47 1516.56 1323.1 1520.77 1319.42C1524.98 1315.73 1527.61 1312.05 1528.66 1308.37C1529.19 1306.53 1529.71 1304.68 1530.24 1302.84C1534.19 1305.74 1538.13 1308.63 1542.08 1311.52C1549.97 1317.31 1555.5 1320.47 1558.65 1321C1561.81 1321.52 1564.71 1321.26 1567.34 1320.21C1569.97 1319.15 1572.6 1317.05 1575.23 1313.89C1577.86 1310.73 1581.81 1302.84 1587.07 1290.21C1589.7 1283.9 1592.33 1277.58 1594.96 1271.27C1604.43 1276.8 1613.91 1282.32 1623.38 1287.85C1642.32 1298.9 1654.95 1304.68 1661.26 1305.21C1667.58 1305.74 1673.89 1302.32 1680.21 1294.95C1686.52 1287.58 1699.41 1267.32 1718.88 1234.17C1738.35 1201.02 1750.19 1180.24 1754.4 1171.82C1758.61 1163.4 1760.71 1157.35 1760.71 1153.66C1760.71 1149.98 1759.14 1146.04 1755.98 1141.83C1752.82 1137.62 1747.3 1133.14 1739.4 1128.41C1735.46 1126.04 1731.51 1123.67 1727.56 1121.3C1728.35 1119.99 1729.14 1118.67 1729.93 1117.36C1731.51 1114.73 1732.3 1109.2 1732.3 1100.78C1732.3 1092.36 1731.51 1086.31 1729.93 1082.63C1728.35 1078.94 1725.46 1075.26 1721.25 1071.58C1717.04 1067.89 1710.73 1064.74 1702.31 1062.11C1693.89 1059.48 1684.15 1058.16 1673.1 1058.16C1662.05 1058.16 1653.11 1059.74 1646.27 1062.9C1639.43 1066.05 1613.91 1056.58 1569.7 1034.48C1525.5 1012.38 1504.46 996.069 1506.56 985.545C1508.67 975.021 1507.09 964.497 1501.83 953.973C1496.56 943.449 1492.88 928.979 1490.78 910.562C1488.67 892.145 1486.83 882.147 1485.25 880.568C1483.67 878.99 1479.73 878.201 1473.41 878.201C1470.25 878.201 1467.1 878.201 1463.94 878.201C1463.94 873.728 1463.94 869.255 1463.94 864.783C1463.94 855.837 1462.62 842.945 1459.99 826.107C1457.36 809.269 1451.57 793.483 1442.63 778.749C1433.68 764.016 1427.63 749.282 1424.47 734.549C1421.32 719.815 1417.9 708.502 1414.21 700.609C1410.53 692.716 1403.43 684.034 1392.9 674.562C1382.38 665.091 1381.06 653.514 1388.96 639.833C1392.9 632.993 1396.85 626.152 1400.8 619.311C1402.11 621.416 1403.43 623.521 1404.74 625.626C1407.37 629.835 1410.53 633.256 1414.21 635.887C1417.9 638.518 1421.84 639.57 1426.05 639.044C1430.26 638.518 1435 636.15 1440.26 631.94C1445.52 627.731 1451.05 619.575 1456.84 607.472C1462.62 595.369 1467.36 577.479 1471.04 553.8C1474.73 530.121 1476.04 507.495 1474.99 485.92C1473.94 464.346 1471.31 446.982 1467.1 433.827C1462.89 420.672 1463.68 404.886 1469.46 386.469C1475.25 368.052 1478.15 348.846 1478.15 328.851C1478.15 308.855 1476.04 291.754 1471.83 277.546C1467.62 263.339 1459.73 246.764 1448.15 227.821C1436.58 208.878 1430.79 190.987 1430.79 174.148C1430.79 157.31 1426.84 140.998 1418.95 125.212C1411.06 109.426 1400.01 94.1665 1385.8 79.4329C1371.59 64.6994 1361.07 55.491 1354.23 51.8076C1347.39 48.1242 1338.18 44.4408 1326.6 40.7574C1315.03 37.0741 1301.08 34.18 1284.77 32.0752C1268.46 29.9704 1254.78 28.918 1243.73 28.918C1232.68 28.918 1218.73 30.4966 1201.89 33.6538C1185.05 36.811 1169.79 40.7574 1156.11 45.4932C1142.43 50.229 1132.96 50.7552 1127.7 47.0718C1122.44 43.3884 1110.86 37.6003 1092.97 29.7073C1075.08 21.8143 1062.71 17.0786 1055.87 15.5C1049.03 13.9214 1040.09 13.1321 1029.04 13.1321C1017.99 13.1321 1008.78 14.1845 1001.41 16.2893Z" fill="#000000" fill-rule="evenodd" opacity="1" stroke="none"/>
<path d="M1014.04 21.025C1007.73 22.0774 999.57 24.7084 989.572 28.918C979.575 33.1276 969.314 38.9157 958.79 46.2825C948.266 53.6493 940.11 60.2267 934.322 66.0149C928.533 71.8031 922.219 80.7484 915.378 92.851C908.538 104.954 903.276 119.161 899.593 135.473C897.751 143.629 895.909 151.785 894.067 159.941C896.698 160.204 899.329 160.467 901.96 160.73C907.222 161.257 922.482 165.203 947.74 172.57C972.997 179.937 989.046 177.569 995.887 165.466C1002.73 153.364 1009.83 143.103 1017.2 134.684C1024.56 126.265 1034.56 117.319 1047.19 107.848C1059.82 98.3761 1076.92 87.8521 1098.5 76.2758C1109.28 70.4876 1120.07 64.6994 1130.86 58.9112C1126.38 56.0172 1121.91 53.1231 1117.44 50.229C1108.49 44.4408 1099.28 39.4419 1089.81 35.2324C1080.34 31.0228 1070.87 27.6025 1061.4 24.9715C1051.93 22.3405 1043.24 20.7619 1035.35 20.2357C1027.46 19.7095 1020.35 19.9726 1014.04 21.025Z" fill="#8c38c4" fill-rule="evenodd" opacity="1" stroke="none"/>
<path d="M1200.31 41.5467C1184.53 44.7039 1170.85 48.3873 1159.27 52.5969C1147.69 56.8065 1127.96 67.0673 1100.07 83.3794C1072.19 99.6915 1051.14 114.425 1036.93 127.58C1022.72 140.735 1011.94 153.89 1004.57 167.045C997.202 180.2 990.099 190.461 983.258 197.827C976.417 205.194 971.419 211.508 968.261 216.77C965.104 222.032 959.316 238.081 950.897 264.918C942.478 291.754 937.742 313.065 936.689 328.851C935.637 344.636 936.953 358.581 940.636 370.683C944.319 382.786 948.792 392.783 954.054 400.676C959.316 408.569 966.42 411.99 975.365 410.937C984.31 409.885 991.414 410.148 996.676 411.727C1001.94 413.305 1006.94 415.673 1011.67 418.83C1016.41 421.987 1021.41 423.829 1026.67 424.355C1031.93 424.882 1041.93 421.198 1056.66 413.305C1071.4 405.412 1080.08 399.624 1082.71 395.941C1085.34 392.257 1092.18 377.787 1103.23 352.529C1114.28 327.272 1125.86 304.909 1137.96 285.439C1150.06 265.97 1155.59 255.183 1154.54 253.078C1153.48 250.973 1149.54 247.816 1142.7 243.607C1135.86 239.397 1128.75 233.872 1121.38 227.031C1114.02 220.191 1106.65 214.929 1099.28 211.245C1091.92 207.562 1082.45 204.405 1070.87 201.774C1059.29 199.143 1052.98 196.512 1051.93 193.881C1051.4 192.565 1050.87 191.25 1050.35 189.934C1054.29 190.461 1058.24 190.987 1062.19 191.513C1070.08 192.565 1080.34 195.723 1092.97 200.985C1105.6 206.247 1117.44 213.613 1128.49 223.085C1139.54 232.556 1154.01 243.08 1171.9 254.657C1189.79 266.233 1205.84 275.705 1220.05 283.071C1234.25 290.438 1247.67 295.963 1260.3 299.647C1272.93 303.33 1284.24 305.172 1294.24 305.172C1304.24 305.172 1314.76 303.593 1325.81 300.436C1336.86 297.279 1347.12 293.332 1356.59 288.596C1366.07 283.861 1374.75 277.546 1382.64 269.653C1390.53 261.76 1398.16 251.499 1405.53 238.871C1412.9 226.242 1417.9 215.718 1420.53 207.299C1423.16 198.88 1424.21 187.04 1423.69 171.781C1423.16 156.521 1418.95 141.261 1411.06 126.001C1403.16 110.742 1393.69 97.3237 1382.64 85.7473C1371.59 74.171 1361.59 65.7518 1352.65 60.4898C1343.7 55.2279 1331.34 50.4921 1315.55 46.2825C1299.77 42.0729 1280.56 39.4419 1257.93 38.3896C1235.31 37.3372 1216.1 38.3896 1200.31 41.5467Z" fill="#8c38c4" fill-rule="evenodd" opacity="1" stroke="none"/>
<path d="M832.502 167.834C816.716 170.991 800.141 177.043 782.777 185.988C765.412 194.933 751.468 204.668 740.944 215.192C730.42 225.716 723.053 234.135 718.844 240.449C714.634 246.764 710.688 254.394 707.004 263.339C703.321 272.284 701.216 281.756 700.69 291.754C700.164 301.751 700.427 310.434 701.479 317.8C702.532 325.167 704.11 332.534 706.215 339.901C708.32 347.267 711.214 354.108 714.897 360.422C718.581 366.737 728.315 377.524 744.101 392.783C759.887 408.043 775.936 418.567 792.248 424.355C808.56 430.144 836.712 424.618 876.703 407.78C916.694 390.942 935.111 377.261 931.954 366.737C928.797 356.213 928.007 342.269 929.586 324.904C931.164 307.54 935.374 287.544 942.215 264.918C949.055 242.291 955.106 226.242 960.368 216.77C965.63 207.299 970.103 200.721 973.786 197.038C977.47 193.355 979.048 190.987 978.522 189.934C977.996 188.882 965.367 184.936 940.636 178.095C915.905 171.254 900.645 167.571 894.857 167.045C889.069 166.519 885.911 165.729 885.385 164.677C884.859 163.625 879.86 163.098 870.389 163.098C860.917 163.098 848.288 164.677 832.502 167.834Z" fill="#8c38c4" fill-rule="evenodd" opacity="1" stroke="none"/>
<path d="M1416.58 233.346C1409.21 249.658 1410 264.918 1418.95 279.125C1427.89 293.332 1434.74 305.172 1439.47 314.643C1444.21 324.115 1447.1 331.745 1448.15 337.533C1449.21 343.321 1449.21 347.794 1448.15 350.951C1447.1 354.108 1445 385.417 1441.84 444.877C1438.68 504.337 1435.26 540.119 1431.58 552.221C1427.89 564.324 1422.63 576.953 1415.79 590.108C1408.95 603.262 1407.9 613.523 1412.64 620.89C1417.37 628.257 1422.11 631.414 1426.84 630.362C1431.58 629.309 1437.1 624.31 1443.42 615.365C1449.73 606.42 1454.47 596.685 1457.62 586.161C1460.78 575.637 1463.41 562.482 1465.52 546.696C1467.62 530.91 1468.41 513.02 1467.89 493.024C1467.36 473.029 1464.99 455.927 1460.78 441.72C1456.57 427.513 1454.47 418.567 1454.47 414.884C1454.47 411.2 1457.1 400.94 1462.36 384.101C1467.62 367.263 1470.52 350.425 1471.04 333.586C1471.57 316.748 1469.2 299.12 1463.94 280.703C1458.68 262.287 1451.31 245.711 1441.84 230.978C1437.1 223.611 1432.37 216.244 1427.63 208.878C1423.95 217.034 1420.26 225.19 1416.58 233.346Z" fill="#8c38c4" fill-rule="evenodd" opacity="1" stroke="none"/>
<path d="M1402.37 530.91L1401.75 552.901L1401.13 574.891C1400.38 574.654 1399.3 574.689 1398.39 574.588C1397.47 574.486 1396.72 574.249 1396.62 573.467C1395.54 565.507 1395.01 557.487 1394.75 549.449C1394.48 541.41 1394.47 533.354 1394.45 525.322C1394.45 524.496 1394.65 523.641 1395 522.855C1395.35 522.068 1395.86 521.349 1396.47 520.792C1396.84 520.455 1397.35 520.35 1397.89 520.376C1398.44 520.403 1399 520.56 1399.46 520.748C1404.5 522.789 1409.46 525.009 1414.39 527.274C1419.33 529.538 1424.25 531.848 1429.21 534.067C1430.12 521.461 1431.25 508.829 1431.98 496.193C1432.7 483.557 1433.04 470.917 1432.37 458.295C1430.54 464.023 1429.34 469.032 1427.37 473.681C1425.4 478.33 1422.66 482.619 1417.77 486.907C1412.99 491.09 1408.08 495.248 1402.93 499.019C1397.77 502.791 1392.37 506.175 1386.59 508.81C1380.54 511.568 1373.12 510.506 1366.31 507.757C1359.49 505.007 1353.29 500.57 1349.69 496.576C1344.47 490.79 1341.5 483.204 1340.17 475.283C1338.83 467.361 1339.12 459.105 1340.41 451.981C1342.33 441.438 1344.96 434.815 1348.61 428.811C1352.26 422.807 1356.93 417.423 1362.91 409.359C1359.62 407.912 1355.79 407.159 1352.23 406.059C1348.67 404.959 1345.38 403.512 1343.18 400.676C1341.23 398.174 1340.52 395.001 1340.43 391.673C1340.34 388.344 1340.87 384.859 1341.4 381.733C1342.3 376.489 1344.97 372.557 1348.52 369.534C1352.07 366.511 1356.51 364.398 1360.94 362.79C1367.11 360.549 1373.31 358.323 1379.58 356.34C1385.85 354.356 1392.18 352.615 1398.63 351.345C1402.95 350.493 1408.4 349.733 1413.18 350.602C1417.96 351.471 1422.06 353.969 1423.69 359.633C1424.38 362.068 1424.91 364.729 1424.99 367.35C1425.07 369.971 1424.7 372.552 1423.59 374.827C1421.51 379.076 1418.5 382.727 1415.26 386.228C1412.01 389.728 1408.54 393.079 1405.53 396.73C1409.5 397.841 1412.91 398.435 1415.97 399.724C1419.03 401.014 1421.75 402.999 1424.33 406.892C1426.68 410.445 1428.55 414.277 1430.29 418.178C1432.04 422.079 1433.66 426.049 1435.52 429.88C1436.32 415.41 1437.68 400.949 1438.75 386.483C1439.83 372.017 1440.62 357.547 1440.31 343.058C1440.22 339.093 1439.31 335.2 1437.98 331.408C1436.65 327.616 1434.9 323.925 1433.16 320.366C1428.29 310.452 1422.9 300.816 1417.37 291.25C1411.85 281.683 1406.19 272.186 1400.8 262.55C1393.53 269.64 1388.42 275.13 1382.85 280.049C1377.29 284.968 1371.25 289.316 1362.12 294.121C1323.79 314.295 1290.84 314.896 1258.99 305.615C1227.14 296.333 1196.39 277.169 1162.43 257.814C1159.67 262.418 1156.77 266.949 1153.95 271.517C1151.12 276.085 1148.36 280.689 1145.85 285.439C1135.2 305.668 1122.24 325.092 1110.64 345.021C1099.03 364.95 1088.77 385.384 1083.5 407.632C1080 422.422 1082.51 437.438 1086.14 452.549C1089.77 467.659 1094.52 482.865 1095.49 498.032C1096.71 517.017 1095.33 536.186 1094.48 555.292C1093.62 574.398 1093.3 593.439 1096.63 612.168C1097.37 616.32 1100.87 618.694 1105.13 620.501C1109.39 622.307 1114.4 623.547 1118.18 625.429C1127.96 630.305 1137.78 635.111 1147.71 639.698C1157.63 644.286 1167.65 648.655 1177.82 652.659C1192.81 658.563 1207.88 664.315 1223.06 669.734C1238.24 675.154 1253.54 680.243 1268.98 684.823C1273.26 686.092 1277.7 686.97 1282.18 687.437C1286.65 687.904 1291.17 687.96 1295.62 687.586C1303.79 686.898 1311.99 685.914 1320.08 684.46C1328.18 683.005 1336.18 681.08 1343.97 678.509C1347.97 677.185 1353.4 673.251 1358.43 668.647C1363.47 664.043 1368.11 658.769 1370.55 654.767C1376.97 644.233 1383.3 633.629 1389.45 622.928C1395.6 612.227 1401.57 601.428 1407.31 590.502C1409.52 586.284 1411.54 581.953 1413.35 577.536C1415.17 573.119 1416.77 568.618 1418.16 564.061C1419.26 560.446 1420.95 555.24 1421.29 550.132C1421.64 545.023 1420.64 540.011 1416.38 536.783C1414.37 535.253 1412.03 534.275 1409.62 533.434C1407.2 532.592 1404.71 531.889 1402.37 530.91Z" fill="#f19466" fill-rule="evenodd" opacity="1" stroke="none"/>
<path d="M1188.47 349.372C1182.69 353.582 1180.06 359.37 1180.58 366.737C1181.11 374.103 1183.48 380.418 1187.69 385.68C1189.79 388.311 1191.9 390.942 1194 393.573C1191.11 393.573 1188.21 393.573 1185.32 393.573C1179.53 393.573 1173.74 395.414 1167.95 399.098C1165.06 400.94 1162.17 402.781 1159.27 404.623C1157.96 402.255 1156.64 399.887 1155.32 397.519C1152.69 392.783 1150.06 390.416 1147.43 390.416C1144.8 390.416 1142.96 393.047 1141.91 398.309C1140.85 403.571 1140.59 412.253 1141.12 424.355C1141.64 436.458 1143.22 445.929 1145.85 452.77C1148.48 459.611 1150.33 463.557 1151.38 464.609C1152.43 465.662 1153.75 465.925 1155.32 465.399C1156.9 464.873 1158.74 467.24 1160.85 472.502C1162.95 477.764 1166.64 483.026 1171.9 488.288C1177.16 493.55 1183.74 498.023 1191.63 501.706C1199.53 505.39 1208.73 507.231 1219.26 507.231C1229.78 507.231 1237.94 505.916 1243.73 503.285C1249.51 500.654 1254.51 497.234 1258.72 493.024C1262.93 488.815 1266.09 483.816 1268.19 478.027C1270.3 472.239 1270.82 464.609 1269.77 455.138C1268.72 445.666 1266.62 438.3 1263.46 433.038C1260.3 427.776 1256.35 423.04 1251.62 418.83C1249.25 416.725 1246.88 414.621 1244.51 412.516C1249.25 411.727 1253.99 410.937 1258.72 410.148C1268.19 408.569 1275.03 405.938 1279.24 402.255C1283.45 398.572 1285.82 394.625 1286.35 390.416C1286.87 386.206 1286.61 382.523 1285.56 379.365C1284.51 376.208 1282.66 373.314 1280.03 370.683C1277.4 368.052 1266.35 363.316 1246.88 356.476C1227.41 349.635 1214.26 345.689 1207.42 344.636C1200.58 343.584 1194.26 345.163 1188.47 349.372Z" fill="#000000" fill-rule="evenodd" opacity="1" stroke="none"/>
<path d="M1192.42 354.108C1189.26 356.213 1187.42 358.581 1186.9 361.212C1186.37 363.843 1187.16 368.052 1189.26 373.84C1191.37 379.629 1194.53 384.101 1198.74 387.258C1202.95 390.416 1211.36 394.099 1223.99 398.309C1236.62 402.518 1247.15 404.097 1255.57 403.044C1263.98 401.992 1270.04 399.887 1273.72 396.73C1277.4 393.573 1278.98 389.889 1278.45 385.68C1277.93 381.47 1276.61 378.313 1274.51 376.208C1272.4 374.103 1262.41 369.894 1244.51 363.58C1226.62 357.265 1214.26 353.582 1207.42 352.529C1200.58 351.477 1195.58 352.003 1192.42 354.108Z" fill="#8c38c4" fill-rule="evenodd" opacity="1" stroke="none"/>
<path d="M1378.7 365.158C1362.91 370.42 1353.7 375.156 1351.07 379.365C1348.44 383.575 1347.65 387.785 1348.7 391.994C1349.75 396.204 1351.6 398.835 1354.23 399.887C1356.86 400.94 1361.59 401.203 1368.43 400.676C1375.27 400.15 1383.96 396.993 1394.48 391.205C1405.01 385.417 1411.32 380.944 1413.42 377.787C1415.53 374.63 1416.58 370.946 1416.58 366.737C1416.58 362.527 1416.06 359.896 1415 358.844C1413.95 357.791 1411.58 357.265 1407.9 357.265C1404.22 357.265 1394.48 359.896 1378.7 365.158Z" fill="#8c38c4" fill-rule="evenodd" opacity="1" stroke="none"/>
<path d="M880.649 414.094C842.237 430.933 818.558 444.877 809.613 455.927C800.667 466.977 792.774 480.658 785.934 496.971C779.093 513.283 774.621 532.489 772.516 554.589C770.411 576.689 770.674 595.633 773.305 611.419C775.936 627.204 779.093 638.781 782.777 646.148C786.46 653.514 791.722 661.407 798.563 669.826C805.403 678.246 811.718 684.56 817.506 688.77C823.294 692.979 830.398 696.926 838.817 700.609C847.236 704.292 854.866 706.923 861.706 708.502C868.547 710.081 876.44 710.87 885.385 710.87C894.331 710.87 908.538 709.554 928.007 706.923C947.477 704.292 958.527 700.609 961.158 695.873C963.789 691.137 960.895 683.771 952.475 673.773C944.056 663.775 938.794 656.408 936.689 651.673C934.585 646.937 933.532 642.201 933.532 637.465C933.532 632.729 950.108 624.047 983.258 611.419C1016.41 598.79 1030.88 585.109 1026.67 570.375C1022.46 555.642 1015.88 547.222 1006.94 545.118C997.991 543.013 989.572 539.856 981.679 535.646C973.786 531.437 965.367 523.544 956.422 511.967C947.477 500.391 942.215 491.182 940.636 484.342C939.057 477.501 938.531 469.345 939.057 459.874C939.584 450.402 940.899 442.772 943.004 436.984C945.109 431.196 948.003 426.46 951.686 422.777C953.528 420.935 955.369 419.093 957.211 417.252C956.159 416.462 955.106 415.673 954.054 414.884C951.949 413.305 948.792 408.569 944.582 400.676C940.373 392.783 919.062 397.256 880.649 414.094Z" fill="#8c38c4" fill-rule="evenodd" opacity="1" stroke="none"/>
<path d="M1176.64 402.255C1172.43 403.834 1169.01 406.202 1166.37 409.359C1163.74 412.516 1161.38 413.831 1159.27 413.305C1157.17 412.779 1154.8 410.674 1152.17 406.991C1150.85 405.149 1149.54 403.307 1148.22 401.466C1148.22 406.991 1148.22 412.516 1148.22 418.041C1148.22 429.091 1149.01 437.247 1150.59 442.509C1151.38 445.14 1152.17 447.771 1152.96 450.402C1154.54 445.403 1156.11 440.404 1157.69 435.405C1160.85 425.408 1164.01 418.83 1167.16 415.673C1170.32 412.516 1175.85 409.622 1183.74 406.991C1187.69 405.675 1191.63 404.36 1195.58 403.044C1193.47 402.518 1191.37 401.992 1189.26 401.466C1185.05 400.413 1180.85 400.676 1176.64 402.255Z" fill="#000000" fill-rule="evenodd" opacity="1" stroke="none"/>
<path d="M1386.59 405.412C1385.54 406.202 1384.48 406.991 1383.43 407.78C1384.48 408.306 1385.54 408.833 1386.59 409.359C1388.69 410.411 1390.8 413.305 1392.9 418.041C1395.01 422.777 1396.32 428.565 1396.85 435.405C1397.38 442.246 1396.85 448.56 1395.27 454.349C1393.69 460.137 1391.59 464.346 1388.96 466.977C1386.33 469.608 1382.9 470.924 1378.7 470.924C1374.49 470.924 1371.07 469.608 1368.43 466.977C1365.8 464.346 1363.7 460.926 1362.12 456.716C1360.54 452.507 1359.75 446.456 1359.75 438.563C1359.75 434.616 1359.75 430.67 1359.75 426.723C1358.44 428.565 1357.12 430.407 1355.81 432.248C1353.17 435.932 1351.07 440.404 1349.49 445.666C1347.91 450.928 1347.12 457.243 1347.12 464.609C1347.12 471.976 1347.91 477.764 1349.49 481.974C1351.07 486.184 1352.91 489.604 1355.02 492.235C1357.12 494.866 1360.54 497.234 1365.28 499.338C1370.01 501.443 1375.01 502.233 1380.27 501.706C1385.54 501.18 1390.53 499.602 1395.27 496.971C1400.01 494.34 1405.27 489.604 1411.06 482.763C1416.84 475.923 1421.05 468.819 1423.69 461.452C1426.32 454.085 1427.63 446.982 1427.63 440.141C1427.63 433.301 1426.58 427.249 1424.47 421.987C1422.37 416.725 1419.48 412.516 1415.79 409.359C1412.11 406.202 1406.85 404.36 1400.01 403.834C1393.17 403.307 1388.69 403.834 1386.59 405.412Z" fill="#ffffff" fill-rule="evenodd" opacity="1" stroke="none"/>
<path d="M1187.69 412.516C1182.42 414.621 1177.16 418.83 1171.9 425.145C1166.64 431.459 1163.74 438.563 1163.22 446.456C1162.69 454.349 1163.74 461.189 1166.37 466.977C1169.01 472.765 1172.69 478.027 1177.42 482.763C1182.16 487.499 1187.95 491.446 1194.79 494.603C1201.63 497.76 1208.73 499.602 1216.1 500.128C1223.47 500.654 1230.57 499.602 1237.41 496.971C1244.25 494.34 1249.25 491.446 1252.41 488.288C1255.57 485.131 1258.2 481.185 1260.3 476.449C1262.41 471.713 1263.46 466.451 1263.46 460.663C1263.46 454.875 1262.67 449.876 1261.09 445.666C1259.51 441.457 1256.62 436.984 1252.41 432.248C1250.3 429.88 1248.2 427.513 1246.09 425.145C1246.62 428.302 1247.15 431.459 1247.67 434.616C1248.72 440.931 1248.2 448.034 1246.09 455.927C1243.99 463.82 1241.36 469.608 1238.2 473.292C1235.04 476.975 1230.31 479.343 1223.99 480.395C1217.68 481.448 1212.42 479.606 1208.21 474.87C1204 470.135 1201.37 463.82 1200.31 455.927C1199.26 448.034 1199.26 441.72 1200.31 436.984C1201.37 432.248 1204.26 426.46 1209 419.62C1211.36 416.199 1213.73 412.779 1216.1 409.359C1212.68 409.359 1209.26 409.359 1205.84 409.359C1199 409.359 1192.95 410.411 1187.69 412.516Z" fill="#ffffff" fill-rule="evenodd" opacity="1" stroke="none"/>
<path d="M1242.94 411.727C1243.46 411.99 1243.99 412.253 1244.51 412.516C1243.99 412.253 1243.46 411.99 1242.94 411.727C1242.41 411.463 1241.88 411.2 1241.36 410.937C1241.88 411.2 1242.41 411.463 1242.94 411.727Z" fill="#ffffff" fill-rule="evenodd" opacity="1" stroke="none"/>
<path d="M1371.59 418.83C1368.96 423.04 1367.65 429.091 1367.65 436.984C1367.65 444.877 1368.43 450.665 1370.01 454.349C1371.59 458.032 1373.96 460.4 1377.12 461.452C1380.27 462.505 1382.9 461.452 1385.01 458.295C1387.11 455.138 1388.43 450.402 1388.96 444.088C1389.48 437.773 1388.96 431.985 1387.38 426.723C1385.8 421.461 1383.43 417.778 1380.27 415.673C1378.7 414.621 1377.12 413.568 1375.54 412.516C1374.22 414.621 1372.91 416.725 1371.59 418.83Z" fill="#000000" fill-rule="evenodd" opacity="1" stroke="none"/>
<path d="M1051.14 423.566C1037.98 429.88 1030.62 439.878 1029.04 453.559C1027.46 467.24 1026.67 485.657 1026.67 508.81C1026.67 531.963 1027.72 548.538 1029.83 558.536C1031.93 568.533 1034.83 578.005 1038.51 586.95C1042.19 595.896 1046.93 604.315 1052.72 612.208C1058.5 620.101 1063.77 624.837 1068.5 626.415C1073.24 627.994 1076.92 627.731 1079.55 625.626C1082.18 623.521 1084.55 620.101 1086.66 615.365C1088.76 610.629 1089.81 590.371 1089.81 554.589C1089.81 518.808 1089.02 492.498 1087.45 475.66C1085.87 458.821 1083.5 444.877 1080.34 433.827C1077.18 422.777 1074.82 416.725 1073.24 415.673C1071.66 414.621 1064.29 417.252 1051.14 423.566Z" fill="#8c38c4" fill-rule="evenodd" opacity="1" stroke="none"/>
<path d="M1218.47 421.987C1213.73 426.197 1210.58 431.196 1209 436.984C1207.42 442.772 1207.15 449.087 1208.21 455.927C1209.26 462.768 1211.1 467.504 1213.73 470.135C1216.36 472.765 1218.99 474.081 1221.63 474.081C1224.26 474.081 1226.89 473.029 1229.52 470.924C1232.15 468.819 1234.78 464.083 1237.41 456.716C1240.04 449.35 1240.57 441.72 1238.99 433.827C1237.41 425.934 1234.78 420.935 1231.1 418.83C1227.41 416.725 1223.2 417.778 1218.47 421.987Z" fill="#000000" fill-rule="evenodd" opacity="1" stroke="none"/>
<path d="M963.526 423.566C957.211 427.776 953.002 432.248 950.897 436.984C948.792 441.72 947.477 449.613 946.95 460.663C946.424 471.713 946.687 479.343 947.74 483.553C948.792 487.762 951.423 493.287 955.633 500.128C959.842 506.968 964.315 512.756 969.051 517.492C973.786 522.228 979.838 526.438 987.204 530.121C994.571 533.804 1001.67 536.435 1008.52 538.014C1011.94 538.803 1015.36 539.593 1018.78 540.382C1018.78 533.804 1018.78 527.227 1018.78 520.649C1018.78 507.495 1013.51 495.129 1002.99 483.553C992.466 471.976 984.573 465.662 979.311 464.609C974.049 463.557 970.629 461.978 969.051 459.874C968.261 458.821 967.472 457.769 966.683 456.716C968.788 456.453 970.892 456.19 972.997 455.927C977.207 455.401 981.679 456.19 986.415 458.295C991.151 460.4 997.728 465.925 1006.15 474.87C1010.36 479.343 1014.57 483.816 1018.78 488.288C1019.57 478.817 1020.35 469.345 1021.14 459.874C1022.72 440.931 1017.99 429.091 1006.94 424.355C995.887 419.62 987.468 417.252 981.679 417.252C975.891 417.252 969.84 419.356 963.526 423.566Z" fill="#f19466" fill-rule="evenodd" opacity="1" stroke="none"/>
<path d="M1434.74 452.77C1435 453.559 1435.26 454.349 1435.52 455.138C1435.26 454.349 1435 453.559 1434.74 452.77C1434.47 451.981 1434.21 451.191 1433.95 450.402C1434.21 451.191 1434.47 451.981 1434.74 452.77Z" fill="#ffffff" fill-rule="evenodd" opacity="1" stroke="none"/>
<path d="M1281.61 534.857C1280.03 538.54 1279.51 541.96 1280.03 545.118C1280.56 548.275 1284.24 551.169 1291.08 553.8C1297.92 556.431 1305.03 557.483 1312.39 556.957C1319.76 556.431 1326.34 555.115 1332.13 553.011C1337.91 550.906 1342.39 548.538 1345.54 545.907C1348.7 543.276 1349.75 540.382 1348.7 537.225C1347.65 534.067 1339.23 533.015 1323.44 534.067C1307.66 535.12 1297.13 534.594 1291.87 532.489C1286.61 530.384 1283.19 531.173 1281.61 534.857Z" fill="#000000" fill-rule="evenodd" opacity="1" stroke="none"/>
<path d="M1287.93 541.96C1287.4 544.065 1289.24 545.907 1293.45 547.486C1297.66 549.064 1302.66 549.853 1308.45 549.853C1314.24 549.853 1320.81 548.538 1328.18 545.907C1331.86 544.591 1335.55 543.276 1339.23 541.96C1333.18 542.224 1327.13 542.487 1321.08 542.75C1308.97 543.276 1300.55 542.75 1295.82 541.171C1293.45 540.382 1291.08 539.593 1288.72 538.803C1288.45 539.856 1288.19 540.908 1287.93 541.96Z" fill="#000000" fill-rule="evenodd" opacity="1" stroke="none"/>
<path d="M1246.09 590.108C1246.09 591.423 1246.09 592.738 1246.09 594.054C1262.41 594.317 1278.72 594.58 1295.03 594.843C1311.34 595.106 1327.65 595.369 1343.97 595.633C1343.44 594.58 1342.91 593.528 1342.39 592.475C1341.34 590.371 1325.02 588.792 1293.45 587.74C1277.67 587.213 1261.88 586.687 1246.09 586.161C1246.09 587.477 1246.09 588.792 1246.09 590.108Z" fill="#000000" fill-rule="evenodd" opacity="1" stroke="none"/>
<path d="M985.626 618.522C955.106 630.625 940.899 639.57 943.004 645.358C945.109 651.146 950.108 659.039 958 669.037C961.947 674.036 965.893 679.035 969.84 684.034C973.786 680.087 977.733 676.141 981.679 672.194C989.572 664.301 996.413 659.039 1002.2 656.408C1007.99 653.777 1015.36 653.251 1024.3 654.83C1033.25 656.408 1039.56 659.039 1043.24 662.723C1045.09 664.564 1046.93 666.406 1048.77 668.248C1050.87 665.88 1052.98 663.512 1055.08 661.144C1059.29 656.408 1066.13 652.462 1075.61 649.305C1085.08 646.148 1095.6 645.095 1107.18 646.148C1118.75 647.2 1128.49 652.462 1136.38 661.933C1140.33 666.669 1144.27 671.405 1148.22 676.141C1149.01 671.668 1149.8 667.195 1150.59 662.723C1152.17 653.777 1150.33 648.515 1145.06 646.937C1139.8 645.358 1129.8 640.622 1115.07 632.729C1100.34 624.837 1090.87 623.258 1086.66 627.994C1082.45 632.729 1077.71 635.097 1072.45 635.097C1067.19 635.097 1062.71 633.782 1059.03 631.151C1055.35 628.52 1051.14 623.258 1046.4 615.365C1041.67 607.472 1037.98 602.999 1035.35 601.947C1032.72 600.895 1016.15 606.42 985.626 618.522Z" fill="#856bd7" fill-rule="evenodd" opacity="1" stroke="none"/>
<path d="M1074.03 657.987C1065.61 661.67 1058.77 666.406 1053.51 672.194C1048.24 677.982 1045.09 685.349 1044.03 694.295C1043.51 698.767 1042.98 703.24 1042.46 707.713C1045.09 706.66 1047.72 705.608 1050.35 704.555C1055.61 702.451 1061.92 697.715 1069.29 690.348C1076.66 682.981 1081.39 678.772 1083.5 677.719C1085.6 676.667 1088.76 676.404 1092.97 676.93C1097.18 677.456 1101.13 679.561 1104.81 683.244C1108.49 686.928 1112.97 693.505 1118.23 702.977C1123.49 712.448 1130.07 720.868 1137.96 728.234C1145.85 735.601 1156.9 744.546 1171.11 755.07C1185.32 765.594 1197.42 772.961 1207.42 777.171C1217.42 781.38 1233.2 784.801 1254.78 787.432C1276.35 790.063 1296.35 790.589 1314.76 789.01C1333.18 787.432 1347.91 784.274 1358.96 779.539C1370.01 774.803 1382.38 766.384 1396.06 754.281C1409.74 742.179 1415.79 732.181 1414.21 724.288C1412.64 716.395 1410.27 709.291 1407.11 702.977C1403.95 696.662 1397.64 689.033 1388.17 680.087C1378.7 671.142 1369.49 669.563 1360.54 675.351C1351.6 681.14 1346.6 689.296 1345.54 699.82C1344.49 710.344 1342.39 717.973 1339.23 722.709C1336.07 727.445 1329.23 732.181 1318.71 736.917C1308.18 741.652 1297.66 744.283 1287.14 744.81C1276.61 745.336 1263.19 744.02 1246.88 740.863C1230.57 737.706 1216.36 733.759 1204.26 729.024C1192.16 724.288 1185.05 720.868 1182.95 718.763C1180.85 716.658 1177.95 715.079 1174.27 714.027C1170.58 712.975 1165.59 709.291 1159.27 702.977C1152.96 696.662 1145.33 687.191 1136.38 674.562C1127.44 661.933 1116.91 655.093 1104.81 654.04C1092.71 652.988 1082.45 654.304 1074.03 657.987Z" fill="#fcb512" fill-rule="evenodd" opacity="1" stroke="none"/>
<path d="M1156.9 670.616C1155.32 681.666 1157.43 690.085 1163.22 695.873C1169.01 701.661 1180.32 708.502 1197.16 716.395C1214 724.288 1231.1 729.813 1248.46 732.97C1257.14 734.549 1265.83 736.127 1274.51 737.706C1275.56 732.181 1276.61 726.656 1277.67 721.131C1279.77 710.081 1280.56 702.714 1280.03 699.03C1279.51 695.347 1273.98 692.453 1263.46 690.348C1252.93 688.243 1232.94 681.666 1203.47 670.616C1188.74 665.091 1174 659.566 1159.27 654.04C1158.48 659.566 1157.69 665.091 1156.9 670.616Z" fill="#f19466" fill-rule="evenodd" opacity="1" stroke="none"/>
<path d="M1001.41 665.88C995.097 669.563 986.941 677.193 976.944 688.77C966.946 700.346 959.053 712.448 953.265 725.077C947.477 737.706 945.635 745.336 947.74 747.967C948.792 749.282 949.844 750.598 950.897 751.913C959.842 742.179 968.788 732.444 977.733 722.709C995.624 703.24 1010.09 691.927 1021.14 688.77C1032.19 685.612 1037.98 681.14 1038.51 675.351C1039.03 669.563 1036.67 665.617 1031.41 663.512C1026.14 661.407 1021.41 660.355 1017.2 660.355C1012.99 660.355 1007.73 662.197 1001.41 665.88Z" fill="#856bd7" fill-rule="evenodd" opacity="1" stroke="none"/>
<path d="M1079.55 691.137C1074.82 695.873 1072.45 699.03 1072.45 700.609C1072.45 702.188 1076.66 710.607 1085.08 725.866C1093.5 741.126 1109.55 761.385 1133.22 786.642C1156.9 811.9 1172.95 828.212 1181.37 835.579C1189.79 842.945 1198.21 848.997 1206.63 853.732C1215.05 858.468 1227.15 862.678 1242.94 866.361C1258.72 870.045 1270.82 871.886 1279.24 871.886C1287.66 871.886 1295.56 871.097 1302.92 869.518C1310.29 867.94 1322.13 863.467 1338.44 856.1C1354.75 848.734 1366.33 841.893 1373.17 835.579C1380.01 829.264 1385.27 822.95 1388.96 816.635C1392.64 810.321 1396.85 798.219 1401.58 780.328C1403.95 771.383 1406.32 762.437 1408.69 753.492C1403.16 758.228 1397.64 762.963 1392.11 767.699C1381.06 777.171 1370.01 784.011 1358.96 788.221C1347.91 792.43 1334.49 795.324 1318.71 796.903C1302.92 798.482 1284.24 798.219 1262.67 796.114C1241.09 794.009 1223.73 790.589 1210.58 785.853C1197.42 781.117 1185.58 775.066 1175.06 767.699C1164.53 760.332 1152.96 751.124 1140.33 740.074C1127.7 729.024 1117.96 717.71 1111.12 706.134C1104.28 694.558 1099.81 687.98 1097.71 686.402C1095.6 684.823 1093.23 684.034 1090.6 684.034C1087.97 684.034 1084.29 686.402 1079.55 691.137Z" fill="#ef8d07" fill-rule="evenodd" opacity="1" stroke="none"/>
<path d="M1330.55 690.348C1326.86 691.401 1325.02 692.453 1325.02 693.505C1325.02 694.558 1327.13 697.189 1331.34 701.398C1333.44 703.503 1335.55 705.608 1337.65 707.713C1337.91 704.555 1338.18 701.398 1338.44 698.241C1338.7 695.084 1338.97 691.927 1339.23 688.77C1338.7 688.77 1338.18 688.77 1337.65 688.77C1336.6 688.77 1334.23 689.296 1330.55 690.348Z" fill="#f19466" fill-rule="evenodd" opacity="1" stroke="none"/>
<path d="M1015.62 696.662C1012.46 697.715 1002.2 707.976 984.837 727.445C976.154 737.18 967.472 746.914 958.79 756.649C966.157 761.648 973.523 766.647 980.89 771.646C995.624 781.643 1010.88 794.798 1026.67 811.11C1042.46 827.423 1052.19 838.999 1055.87 845.839C1059.56 852.68 1062.45 864.256 1064.56 880.568C1066.66 896.881 1072.71 911.877 1082.71 925.558C1092.71 939.239 1101.92 943.186 1110.33 937.398C1118.75 931.61 1125.59 928.979 1130.86 929.505C1136.12 930.031 1141.91 932.662 1148.22 937.398C1154.54 942.134 1159.8 943.712 1164.01 942.134C1168.22 940.555 1170.58 939.239 1171.11 938.187C1171.37 937.661 1171.64 937.135 1171.9 936.608C1169.79 935.556 1167.69 934.504 1165.59 933.451C1161.38 931.347 1153.22 923.717 1141.12 910.562C1129.01 897.407 1119.81 885.567 1113.49 875.043C1107.18 864.519 1100.07 854.259 1092.18 844.261C1084.29 834.263 1074.29 816.109 1062.19 789.799C1050.09 763.49 1043.24 744.283 1041.67 732.181C1040.09 720.078 1038.77 714.027 1037.72 714.027C1037.19 714.027 1036.67 714.027 1036.14 714.027C1036.14 710.87 1036.14 707.713 1036.14 704.555C1036.14 701.398 1036.14 698.241 1036.14 695.084C1033.51 695.084 1030.88 695.084 1028.25 695.084C1022.99 695.084 1018.78 695.61 1015.62 696.662Z" fill="#856bd7" fill-rule="evenodd" opacity="1" stroke="none"/>
<path d="M1285.56 716.395C1284.51 723.499 1283.45 730.602 1282.4 737.706C1287.4 736.917 1292.4 736.127 1297.4 735.338C1307.4 733.759 1316.08 730.602 1323.44 725.866C1327.13 723.499 1330.81 721.131 1334.49 718.763C1331.34 714.816 1328.18 710.87 1325.02 706.923C1318.71 699.03 1311.08 695.084 1302.13 695.084C1293.19 695.084 1287.66 702.188 1285.56 716.395Z" fill="#f19466" fill-rule="evenodd" opacity="1" stroke="none"/>
<path d="M1061.4 707.713C1059.29 709.817 1056.4 711.396 1052.72 712.448C1049.03 713.501 1047.72 719.026 1048.77 729.024C1049.82 739.021 1051.66 747.704 1054.29 755.07C1056.93 762.437 1064.03 777.434 1075.61 800.06C1087.18 822.687 1095.34 836.631 1100.07 841.893C1104.81 847.155 1110.86 855.837 1118.23 867.94C1125.59 880.042 1132.17 888.461 1137.96 893.197C1143.75 897.933 1149.54 904.247 1155.32 912.14C1161.11 920.033 1166.11 925.032 1170.32 927.137C1174.53 929.242 1176.9 931.083 1177.42 932.662C1177.95 934.241 1183.74 933.978 1194.79 931.873C1205.84 929.768 1215.31 928.716 1223.2 928.716C1231.1 928.716 1240.83 930.294 1252.41 933.451C1263.98 936.608 1271.88 934.767 1276.09 927.926C1280.3 921.086 1284.24 917.665 1287.93 917.665C1291.61 917.665 1297.4 919.507 1305.29 923.19C1313.18 926.874 1317.39 929.768 1317.92 931.873C1318.45 933.978 1326.6 939.503 1342.39 948.448C1350.28 952.921 1358.17 957.393 1366.07 961.866C1372.91 941.87 1379.75 921.875 1386.59 901.879C1400.27 861.888 1408.16 835.842 1410.27 823.739C1412.37 811.637 1413.69 798.482 1414.21 784.274C1414.48 777.171 1414.74 770.067 1415 762.963C1412.11 772.172 1409.21 781.38 1406.32 790.589C1400.53 809.006 1396.06 820.582 1392.9 825.318C1389.75 830.054 1385.01 835.315 1378.7 841.104C1372.38 846.892 1363.96 852.68 1353.44 858.468C1342.91 864.256 1333.71 868.466 1325.81 871.097C1317.92 873.728 1310.03 875.833 1302.13 877.411C1294.24 878.99 1284.77 879.516 1273.72 878.99C1262.67 878.464 1250.04 876.359 1235.83 872.676C1221.63 868.992 1208.73 863.467 1197.16 856.1C1185.58 848.734 1166.11 831.106 1138.75 803.217C1111.39 775.329 1092.18 751.913 1081.13 732.97C1075.61 723.499 1070.08 714.027 1064.56 704.555C1063.5 705.608 1062.45 706.66 1061.4 707.713Z" fill="#fcb512" fill-rule="evenodd" opacity="1" stroke="none"/>
<path d="M913.011 749.545C908.801 752.176 902.487 757.964 894.067 766.91C885.648 775.855 876.703 786.379 867.231 798.482C857.76 810.584 853.024 817.951 853.024 820.582C853.024 823.213 861.706 826.107 879.071 829.264C896.435 832.421 912.221 836.368 926.429 841.104C940.636 845.839 952.212 851.628 961.158 858.468C970.103 865.309 989.309 883.199 1018.78 912.14C1048.24 941.081 1064.29 956.341 1066.92 957.919C1069.55 959.498 1074.03 960.024 1080.34 959.498C1086.66 958.972 1090.34 958.183 1091.39 957.13C1092.44 956.078 1092.44 953.71 1091.39 950.027C1090.34 946.343 1085.08 938.713 1075.61 927.137C1066.13 915.561 1060.35 901.616 1058.24 885.304C1056.14 868.992 1052.72 856.626 1047.98 848.207C1043.24 839.788 1035.35 829.79 1024.3 818.214C1013.25 806.638 1002.2 796.377 991.151 787.432C980.101 778.486 967.735 769.541 954.054 760.595C940.373 751.65 931.164 746.914 926.429 746.388C921.693 745.862 917.22 746.914 913.011 749.545Z" fill="#856bd7" fill-rule="evenodd" opacity="1" stroke="none"/>
<path d="M1420.53 793.746C1418.95 815.32 1415.27 836.631 1409.48 857.679C1406.58 868.203 1403.69 878.727 1400.8 889.251C1410 887.672 1419.21 886.094 1428.42 884.515C1446.84 881.358 1456.31 878.464 1456.84 875.833C1457.36 873.202 1456.31 861.099 1453.68 839.525C1451.05 817.951 1445.26 799.534 1436.31 784.274C1431.84 776.644 1427.37 769.015 1422.9 761.385C1422.11 772.172 1421.32 782.959 1420.53 793.746Z" fill="#856bd7" fill-rule="evenodd" opacity="1" stroke="none"/>
<path d="M856.971 841.893C858.549 848.207 861.18 854.259 864.864 860.047C866.705 862.941 868.547 865.835 870.389 868.729C873.809 865.572 877.229 862.415 880.649 859.257C887.49 852.943 897.225 850.575 909.853 852.154C922.482 853.732 931.691 856.1 937.479 859.257C943.267 862.415 953.002 870.834 966.683 884.515C980.364 898.196 991.677 907.668 1000.62 912.93C1005.1 915.561 1009.57 918.192 1014.04 920.823C1009.83 916.087 1005.62 911.351 1001.41 906.615C992.993 897.144 981.679 886.357 967.472 874.254C953.265 862.152 941.425 854.259 931.954 850.575C922.482 846.892 907.222 842.945 886.175 838.736C875.651 836.631 865.127 834.526 854.603 832.421C855.392 835.579 856.181 838.736 856.971 841.893Z" fill="#856bd7" fill-rule="evenodd" opacity="1" stroke="none"/>
<path d="M885.385 865.572C880.649 870.834 877.229 877.148 875.124 884.515C873.02 891.882 871.704 902.143 871.178 915.297C870.652 928.452 871.441 936.608 873.546 939.766C875.651 942.923 890.91 956.341 919.325 980.02C947.74 1003.7 973.523 1022.38 996.676 1036.06C1019.83 1049.74 1035.09 1060.26 1042.46 1067.63C1049.82 1075 1063.5 1085.26 1083.5 1098.41C1103.49 1111.57 1117.7 1120.25 1126.12 1124.46C1134.54 1128.67 1141.64 1131.04 1147.43 1131.56C1153.22 1132.09 1159.53 1129.72 1166.37 1124.46C1173.22 1119.2 1176.9 1115.25 1177.42 1112.62C1177.95 1109.99 1171.11 1106.83 1156.9 1103.15C1142.7 1099.47 1135.59 1096.31 1135.59 1093.68C1135.59 1092.36 1135.59 1091.05 1135.59 1089.73C1140.85 1090.78 1146.12 1091.84 1151.38 1092.89C1161.9 1094.99 1169.79 1097.36 1175.06 1099.99C1180.32 1102.62 1185.84 1102.1 1191.63 1098.41C1197.42 1094.73 1199.79 1091.84 1198.74 1089.73C1197.68 1087.63 1195.58 1085.79 1192.42 1084.21C1189.26 1082.63 1181.11 1079.73 1167.95 1075.52C1154.8 1071.32 1148.22 1067.89 1148.22 1065.26C1148.22 1063.95 1148.22 1062.63 1148.22 1061.32C1155.59 1063.69 1162.95 1066.05 1170.32 1068.42C1185.05 1073.16 1194.79 1077.37 1199.53 1081.05C1204.26 1084.73 1208.47 1085 1212.15 1081.84C1215.84 1078.68 1217.94 1075.79 1218.47 1073.16C1218.99 1070.53 1218.47 1068.42 1216.89 1066.84C1215.31 1065.26 1207.15 1061.32 1192.42 1055C1177.69 1048.69 1170.32 1044.48 1170.32 1042.37C1170.32 1041.32 1170.32 1040.27 1170.32 1039.22C1174.79 1040.53 1179.27 1041.85 1183.74 1043.16C1192.68 1045.79 1201.63 1050 1210.58 1055.79C1219.52 1061.58 1227.94 1065.79 1235.83 1068.42C1243.73 1071.05 1250.3 1072.37 1255.57 1072.37C1258.2 1072.37 1260.83 1072.37 1263.46 1072.37C1263.19 1069.47 1262.93 1066.58 1262.67 1063.69C1262.14 1057.9 1247.94 1048.43 1220.05 1035.27C1192.16 1022.12 1175.85 1013.43 1171.11 1009.22C1166.37 1005.01 1162.17 998.7 1158.48 990.281C1154.8 981.861 1153.22 973.179 1153.75 964.234C1154.27 955.288 1151.64 948.711 1145.85 944.501C1140.06 940.292 1135.07 937.924 1130.86 937.398C1126.65 936.872 1122.7 937.661 1119.02 939.766C1115.33 941.87 1109.81 946.869 1102.44 954.762C1095.07 962.655 1087.97 966.865 1081.13 967.391C1074.29 967.917 1066.92 965.549 1059.03 960.287C1051.14 955.025 1044.56 949.5 1039.3 943.712C1034.04 937.924 1027.98 933.978 1021.14 931.873C1014.3 929.768 1007.2 926.611 999.833 922.401C992.466 918.192 980.364 908.194 963.526 892.408C946.687 876.622 933.269 866.887 923.271 863.204C913.274 859.521 905.644 857.679 900.382 857.679C895.12 857.679 890.121 860.31 885.385 865.572Z" fill="#f19466" fill-rule="evenodd" opacity="1" stroke="none"/>
<path d="M1437.89 890.829C1411.06 895.039 1393.43 908.457 1385.01 931.083C1376.59 953.71 1375.01 966.076 1380.27 968.18C1385.54 970.285 1388.96 973.179 1390.53 976.863C1392.11 980.546 1395.27 983.177 1400.01 984.756C1404.74 986.334 1407.9 987.123 1409.48 987.123C1411.06 987.123 1413.69 984.492 1417.37 979.23C1421.05 973.969 1425.53 971.074 1430.79 970.548C1436.05 970.022 1440.79 970.285 1445 971.338C1449.21 972.39 1458.68 976.863 1473.41 984.756C1480.78 988.702 1488.14 992.649 1495.51 996.595C1496.56 992.122 1497.62 987.65 1498.67 983.177C1500.77 974.232 1499.46 965.549 1494.72 957.13C1489.99 948.711 1486.83 936.608 1485.25 920.823C1483.67 905.037 1482.09 895.039 1480.51 890.829C1478.94 886.62 1464.73 886.62 1437.89 890.829Z" fill="#856bd7" fill-rule="evenodd" opacity="1" stroke="none"/>
<path d="M1276.09 944.501C1268.72 957.13 1263.19 969.496 1259.51 981.598C1255.83 993.701 1253.99 1002.12 1253.99 1006.86C1253.99 1011.59 1249.25 1016.33 1239.78 1021.06C1235.04 1023.43 1230.31 1025.8 1225.57 1028.17C1235.31 1033.43 1245.04 1038.69 1254.78 1043.95C1274.25 1054.48 1285.56 1061.32 1288.72 1064.47C1291.87 1067.63 1293.45 1070.26 1293.45 1072.37C1293.45 1074.47 1290.82 1076.84 1285.56 1079.47C1280.3 1082.1 1271.88 1082.89 1260.3 1081.84C1254.51 1081.31 1248.72 1080.79 1242.94 1080.26C1246.62 1082.89 1250.3 1085.52 1253.99 1088.15C1261.35 1093.42 1268.19 1096.31 1274.51 1096.84C1280.82 1097.36 1286.61 1095.78 1291.87 1092.1C1297.13 1088.42 1300.82 1084.73 1302.92 1081.05C1305.03 1077.37 1306.87 1075.52 1308.45 1075.52C1310.03 1075.52 1319.23 1078.94 1336.07 1085.79C1344.49 1089.21 1352.91 1092.63 1361.33 1096.05C1362.38 1090.78 1363.44 1085.52 1364.49 1080.26C1366.59 1069.74 1374.22 1052.9 1387.38 1029.75C1393.96 1018.17 1400.53 1006.59 1407.11 995.016C1404.74 994.227 1402.37 993.438 1400.01 992.649C1395.27 991.07 1390.01 996.332 1384.22 1008.43C1378.43 1020.54 1373.96 1027.11 1370.8 1028.17C1367.65 1029.22 1365.01 1028.17 1362.91 1025.01C1360.8 1021.85 1348.18 1013.43 1325.02 999.752C1301.87 986.071 1290.03 977.389 1289.5 973.705C1288.98 970.022 1291.61 962.392 1297.4 950.816C1300.29 945.028 1303.19 939.239 1306.08 933.451C1302.92 932.136 1299.77 930.82 1296.61 929.505C1290.29 926.874 1283.45 931.873 1276.09 944.501Z" fill="#832b0a" fill-rule="evenodd" opacity="1" stroke="none"/>
<path d="M1191.63 941.344C1178.48 944.501 1170.06 947.396 1166.37 950.027C1162.69 952.658 1160.85 955.025 1160.85 957.13C1160.85 958.183 1160.85 959.235 1160.85 960.287C1167.95 958.183 1175.06 956.078 1182.16 953.973C1196.37 949.763 1209.26 947.396 1220.84 946.869C1232.41 946.343 1242.41 947.132 1250.83 949.237C1259.25 951.342 1263.98 951.342 1265.04 949.237C1265.56 948.185 1266.09 947.132 1266.62 946.08C1261.35 944.501 1256.09 942.923 1250.83 941.344C1240.31 938.187 1231.1 936.608 1223.2 936.608C1215.31 936.608 1204.79 938.187 1191.63 941.344Z" fill="#6c76b7" fill-rule="evenodd" opacity="1" stroke="none"/>
<path d="M1303.71 957.13C1298.98 968.707 1308.97 982.125 1333.71 997.384C1346.07 1005.01 1358.44 1012.64 1370.8 1020.27C1372.91 1016.06 1375.01 1011.85 1377.12 1007.65C1381.33 999.226 1383.69 992.385 1384.22 987.123C1384.75 981.861 1381.59 977.915 1374.75 975.284C1367.91 972.653 1356.33 966.076 1340.02 955.552C1323.71 945.028 1314.76 939.766 1313.18 939.766C1311.61 939.766 1308.45 945.554 1303.71 957.13Z" fill="#7d88c4" fill-rule="evenodd" opacity="1" stroke="none"/>
<path d="M1203.47 956.341C1191.9 957.919 1181.9 960.287 1173.48 963.445C1165.06 966.602 1161.38 971.338 1162.43 977.652C1163.48 983.966 1165.32 989.228 1167.95 993.438C1170.58 997.647 1173.74 1001.33 1177.42 1004.49C1181.11 1007.65 1187.95 1011.59 1197.95 1016.33C1207.94 1021.06 1214 1023.43 1216.1 1023.43C1218.21 1023.43 1220.31 1022.38 1222.41 1020.27C1224.52 1018.17 1228.99 1015.8 1235.83 1013.17C1242.67 1010.54 1246.36 1006.33 1246.88 1000.54C1247.41 994.753 1249.51 986.86 1253.2 976.863C1256.88 966.865 1256.62 960.814 1252.41 958.709C1248.2 956.604 1241.88 955.288 1233.46 954.762C1225.05 954.236 1215.05 954.762 1203.47 956.341Z" fill="#6c76b7" fill-rule="evenodd" opacity="1" stroke="none"/>
<path d="M1400.8 1023.43C1382.9 1053.95 1373.17 1071.84 1371.59 1077.1C1370.01 1082.37 1369.75 1088.68 1370.8 1096.05C1371.85 1103.41 1375.01 1109.46 1380.27 1114.2C1385.54 1118.94 1391.06 1121.83 1396.85 1122.88C1402.64 1123.93 1415.79 1129.99 1436.31 1141.04C1456.84 1152.09 1486.83 1170.77 1526.29 1197.08C1565.76 1223.39 1588.12 1237.59 1593.38 1239.7C1598.65 1241.8 1601.8 1243.91 1602.86 1246.01C1603.91 1248.12 1603.38 1251.8 1601.28 1257.06C1599.17 1262.32 1603.91 1268.11 1615.48 1274.43C1627.06 1280.74 1640.22 1271.53 1654.95 1246.8C1669.68 1222.07 1683.89 1195.5 1697.57 1167.08C1711.25 1138.67 1710.46 1119.46 1695.2 1109.46C1679.94 1099.47 1659.95 1087.89 1635.22 1074.74C1610.49 1061.58 1572.86 1042.37 1522.35 1017.12C1471.83 991.859 1443.42 978.967 1437.1 978.441C1430.79 977.915 1418.69 992.912 1400.8 1023.43Z" fill="#7d88c4" fill-rule="evenodd" opacity="1" stroke="none"/>
<path d="M1270.56 1069.21C1270.3 1071.32 1270.04 1073.42 1269.77 1075.52C1272.14 1075.26 1274.51 1075 1276.88 1074.74C1279.24 1074.47 1281.61 1074.21 1283.98 1073.95C1283.19 1072.63 1282.4 1071.32 1281.61 1070C1280.03 1067.37 1277.93 1065.53 1275.3 1064.47C1273.98 1063.95 1272.67 1063.42 1271.35 1062.9C1271.09 1065 1270.82 1067.11 1270.56 1069.21Z" fill="#ffffff" fill-rule="evenodd" opacity="1" stroke="none"/>
<path d="M1651.79 1068.42C1649.69 1069.21 1647.58 1070 1645.48 1070.79C1645.74 1071.32 1646 1071.84 1646.27 1072.37C1646.79 1073.42 1651.53 1076.05 1660.47 1080.26C1669.42 1084.47 1681.26 1091.57 1695.99 1101.57C1710.73 1111.57 1719.14 1116.04 1721.25 1114.99C1723.35 1113.94 1724.41 1109.2 1724.41 1100.78C1724.41 1092.36 1722.83 1086.05 1719.67 1081.84C1716.51 1077.63 1710.73 1073.95 1702.31 1070.79C1693.89 1067.63 1684.42 1066.05 1673.89 1066.05C1663.37 1066.05 1656 1066.84 1651.79 1068.42Z" fill="#6c76b7" fill-rule="evenodd" opacity="1" stroke="none"/>
<path d="M1224.78 1077.89C1223.2 1081.58 1220.84 1085 1217.68 1088.15C1214.52 1091.31 1212.15 1092.89 1210.58 1092.89C1209 1092.89 1207.15 1094.47 1205.05 1097.62C1202.95 1100.78 1199.26 1103.68 1194 1106.31C1188.74 1108.94 1185.32 1112.36 1183.74 1116.57C1182.16 1120.78 1177.95 1125.51 1171.11 1130.78C1164.27 1136.04 1157.17 1138.67 1149.8 1138.67C1142.43 1138.67 1132.17 1134.98 1119.02 1127.62C1105.86 1120.25 1098.76 1116.83 1097.71 1117.36C1096.65 1117.88 1094.29 1122.36 1090.6 1130.78C1086.92 1139.19 1084.02 1149.72 1081.92 1162.35C1079.82 1174.98 1075.61 1188.92 1069.29 1204.18C1062.98 1219.44 1059.03 1230.49 1057.45 1237.33C1055.87 1244.17 1052.45 1252.06 1047.19 1261.01C1041.93 1269.95 1036.93 1280.22 1032.19 1291.79C1027.46 1303.37 1024.83 1316 1024.3 1329.68C1023.78 1343.36 1022.99 1351.52 1021.93 1354.15C1020.88 1356.78 1020.88 1364.93 1021.93 1378.61C1022.99 1392.3 1036.4 1403.87 1062.19 1413.34C1087.97 1422.81 1107.18 1427.55 1119.81 1427.55C1132.43 1427.55 1139.01 1423.6 1139.54 1415.71C1140.06 1407.82 1144.01 1392.3 1151.38 1369.14C1158.74 1345.99 1162.69 1324.94 1163.22 1306C1163.74 1287.06 1169.79 1265.22 1181.37 1240.49C1192.95 1215.76 1202.42 1197.08 1209.79 1184.45C1217.15 1171.82 1221.1 1163.14 1221.63 1158.4C1222.15 1153.66 1223.73 1151.03 1226.36 1150.51C1228.99 1149.98 1236.36 1158.14 1248.46 1174.98C1260.56 1191.81 1270.04 1208.13 1276.88 1223.91C1283.72 1239.7 1286.87 1249.96 1286.35 1254.69C1285.82 1259.43 1282.4 1265.74 1276.09 1273.64C1269.77 1281.53 1265.56 1288.37 1263.46 1294.16C1261.35 1299.95 1259.51 1318.36 1257.93 1349.41C1256.35 1380.46 1258.99 1398.35 1265.83 1403.08C1272.67 1407.82 1280.56 1411.24 1289.5 1413.34C1298.45 1415.45 1313.18 1415.97 1333.71 1414.92C1354.23 1413.87 1369.22 1411.24 1378.7 1407.03C1388.17 1402.82 1396.32 1378.09 1403.16 1332.84C1410 1287.58 1412.64 1263.9 1411.06 1261.8C1409.48 1259.69 1406.58 1258.38 1402.37 1257.85C1398.16 1257.33 1393.96 1255.22 1389.75 1251.54C1385.54 1247.85 1383.43 1241.54 1383.43 1232.59C1383.43 1223.65 1377.12 1216.02 1364.49 1209.7C1358.17 1206.55 1351.86 1203.39 1345.54 1200.23C1351.86 1187.87 1358.17 1175.5 1364.49 1163.14C1377.12 1138.41 1380.8 1123.93 1375.54 1119.73C1370.28 1115.52 1366.86 1111.83 1365.28 1108.68C1363.7 1105.52 1354.75 1100.78 1338.44 1094.47C1322.13 1088.15 1308.97 1088.42 1298.98 1095.26C1288.98 1102.1 1280.03 1104.99 1272.14 1103.94C1264.25 1102.89 1257.67 1100.78 1252.41 1097.62C1247.15 1094.47 1241.62 1089.47 1235.83 1082.63C1232.94 1079.21 1230.04 1075.79 1227.15 1072.37C1226.36 1074.21 1225.57 1076.05 1224.78 1077.89Z" fill="#414688" fill-rule="evenodd" opacity="1" stroke="none"/>
<path d="M1067.71 1151.3C1059.29 1181.82 1053.77 1204.44 1051.14 1219.18C1048.51 1233.91 1044.56 1244.43 1039.3 1250.75C1034.04 1257.06 1028.51 1267.32 1022.72 1281.53C1016.93 1295.74 1012.99 1316.79 1010.88 1344.67C1008.78 1372.56 1008.25 1387.82 1009.3 1390.45C1010.36 1393.08 1011.41 1394.4 1012.46 1394.4C1012.99 1394.4 1013.51 1394.4 1014.04 1394.4C1013.78 1388.35 1013.51 1382.3 1013.25 1376.25C1012.73 1364.14 1012.99 1356.78 1014.04 1354.15C1015.09 1351.52 1015.88 1343.36 1016.41 1329.68C1016.93 1316 1019.3 1303.63 1023.51 1292.58C1027.72 1281.53 1032.19 1272.32 1036.93 1264.96C1041.67 1257.59 1048.51 1241.54 1057.45 1216.81C1066.4 1192.08 1072.19 1172.61 1074.82 1158.4C1077.45 1144.19 1080.87 1133.14 1085.08 1125.25C1089.29 1117.36 1089.55 1112.1 1085.87 1109.46C1084.02 1108.15 1082.18 1106.83 1080.34 1105.52C1076.13 1120.78 1071.92 1136.04 1067.71 1151.3Z" fill="#f19b24" fill-rule="evenodd" opacity="1" stroke="none"/>
<path d="M1724.41 1130.78C1724.41 1132.88 1717.83 1146.82 1704.67 1172.61C1691.52 1198.39 1677.31 1223.65 1662.05 1248.38C1646.79 1273.11 1639.43 1286.27 1639.95 1287.85C1640.48 1289.42 1643.37 1291.53 1648.63 1294.16C1653.9 1296.79 1658.63 1298.11 1662.84 1298.11C1667.05 1298.11 1670.73 1296.26 1673.89 1292.58C1677.05 1288.9 1690.99 1265.74 1715.72 1223.12C1740.46 1180.5 1752.56 1157.09 1752.03 1152.88C1751.51 1148.67 1746.77 1143.4 1737.82 1137.09C1733.35 1133.93 1728.88 1130.78 1724.41 1127.62C1724.41 1128.67 1724.41 1129.72 1724.41 1130.78Z" fill="#6c76b7" fill-rule="evenodd" opacity="1" stroke="none"/>
<path d="M1372.38 1163.93C1366.59 1174.98 1360.8 1186.03 1355.02 1197.08C1377.38 1208.39 1399.74 1219.7 1422.11 1231.02C1466.83 1253.64 1493.93 1268.64 1503.4 1276.01C1512.88 1283.37 1519.72 1287.85 1523.93 1289.42C1528.14 1291 1534.19 1295.21 1542.08 1302.05C1549.97 1308.89 1556.02 1312.31 1560.23 1312.31C1564.44 1312.31 1569.44 1307.31 1575.23 1297.32C1581.02 1287.32 1585.75 1276.8 1589.44 1265.74C1593.12 1254.69 1570.23 1233.38 1520.77 1201.81C1471.31 1170.24 1440.26 1151.03 1427.63 1144.19C1415 1137.35 1405.53 1133.41 1399.22 1132.35C1392.9 1131.3 1383.96 1141.83 1372.38 1163.93Z" fill="#832b0a" fill-rule="evenodd" opacity="1" stroke="none"/>
<path d="M1390.53 1233.38C1391.06 1240.75 1392.9 1245.49 1396.06 1247.59C1399.22 1249.7 1402.37 1250.75 1405.53 1250.75C1408.69 1250.75 1411.58 1248.38 1414.21 1243.64C1415.53 1241.28 1416.84 1238.91 1418.16 1236.54C1413.42 1234.17 1408.69 1231.81 1403.95 1229.44C1399.22 1227.07 1394.48 1224.7 1389.75 1222.33C1390.01 1226.02 1390.27 1229.7 1390.53 1233.38Z" fill="#f19466" fill-rule="evenodd" opacity="1" stroke="none"/>
<path d="M1423.69 1244.43C1423.16 1246.54 1421.84 1248.38 1419.74 1249.96C1417.63 1251.54 1417.11 1254.17 1418.16 1257.85C1419.21 1261.54 1422.11 1264.69 1426.84 1267.32C1431.58 1269.95 1436.05 1271.01 1440.26 1270.48C1444.47 1269.95 1447.36 1267.06 1448.94 1261.8C1450.52 1256.54 1446.84 1251.8 1437.89 1247.59C1433.42 1245.49 1428.95 1243.38 1424.47 1241.28C1424.21 1242.33 1423.95 1243.38 1423.69 1244.43Z" fill="#f19466" fill-rule="evenodd" opacity="1" stroke="none"/>
<path d="M1457.62 1264.96C1456.57 1269.17 1454.2 1272.59 1450.52 1275.22C1448.68 1276.53 1446.84 1277.85 1445 1279.16C1446.57 1280.48 1448.15 1281.79 1449.73 1283.11C1452.89 1285.74 1457.89 1286.79 1464.73 1286.27C1471.57 1285.74 1476.04 1284.42 1478.15 1282.32C1480.25 1280.22 1481.57 1277.85 1482.09 1275.22C1482.62 1272.59 1478.94 1269.17 1471.04 1264.96C1467.1 1262.85 1463.15 1260.75 1459.2 1258.64C1458.68 1260.75 1458.15 1262.85 1457.62 1264.96Z" fill="#f19466" fill-rule="evenodd" opacity="1" stroke="none"/>
<path d="M1488.41 1279.95C1487.88 1282.58 1486.57 1284.95 1484.46 1287.06C1482.36 1289.16 1478.67 1291 1473.41 1292.58C1468.15 1294.16 1465.52 1295.48 1465.52 1296.53C1465.52 1297.58 1467.89 1300.74 1472.62 1306C1477.36 1311.26 1481.57 1314.94 1485.25 1317.05C1488.93 1319.15 1494.46 1319.68 1501.83 1318.63C1509.19 1317.58 1514.19 1315.73 1516.82 1313.1C1519.45 1310.47 1521.29 1307.31 1522.35 1303.63C1523.4 1299.95 1518.14 1294.42 1506.56 1287.06C1500.77 1283.37 1494.98 1279.69 1489.2 1276.01C1488.93 1277.32 1488.67 1278.64 1488.41 1279.95Z" fill="#f19466" fill-rule="evenodd" opacity="1" stroke="none"/>
<path d="M999.044 1405.45C1007.99 1412.82 1021.67 1420.97 1040.09 1429.92C1058.5 1438.86 1075.61 1444.13 1091.39 1445.7C1107.18 1447.28 1121.12 1447.55 1133.22 1446.49C1145.33 1445.44 1151.38 1443.86 1151.38 1441.76C1151.38 1439.65 1150.59 1437.81 1149.01 1436.23C1147.43 1434.65 1143.49 1434.39 1137.17 1435.44C1130.86 1436.5 1122.96 1436.76 1113.49 1436.23C1104.02 1435.71 1083.5 1429.66 1051.93 1418.08C1020.35 1406.5 1003.52 1399.66 1001.41 1397.56C999.307 1395.45 996.15 1394.4 991.94 1394.4C989.835 1394.4 987.731 1394.4 985.626 1394.4C990.099 1398.08 994.571 1401.77 999.044 1405.45Z" fill="#40479b" fill-rule="evenodd" opacity="1" stroke="none"/>
<path d="M972.997 1415.71C969.84 1426.76 967.998 1436.76 967.472 1445.7C966.946 1454.65 969.314 1461.23 974.576 1465.44C979.838 1469.65 986.941 1473.86 995.887 1478.07C1004.83 1482.28 1020.35 1486.75 1042.46 1491.48C1064.56 1496.22 1080.6 1498.59 1090.6 1498.59C1100.6 1498.59 1110.86 1497.53 1121.38 1495.43C1131.91 1493.33 1137.7 1491.48 1138.75 1489.91C1139.8 1488.33 1142.17 1481.75 1145.85 1470.17C1147.69 1464.38 1149.54 1458.6 1151.38 1452.81C1145.59 1453.33 1139.8 1453.86 1134.01 1454.39C1122.44 1455.44 1107.44 1454.91 1089.02 1452.81C1070.61 1450.7 1051.93 1444.92 1032.98 1435.44C1014.04 1425.97 1000.1 1417.55 991.151 1410.19C986.678 1406.5 982.206 1402.82 977.733 1399.14C976.154 1404.66 974.576 1410.19 972.997 1415.71Z" fill="#242d68" fill-rule="evenodd" opacity="1" stroke="none"/>
<path d="M1246.09 1407.03C1245.04 1409.13 1246.09 1411.24 1249.25 1413.34C1252.41 1415.45 1264.77 1418.87 1286.35 1423.6C1307.92 1428.34 1324.76 1430.71 1336.86 1430.71C1348.97 1430.71 1362.65 1428.34 1377.91 1423.6C1385.54 1421.24 1393.17 1418.87 1400.8 1416.5C1399.48 1415.19 1398.16 1413.87 1396.85 1412.55C1394.22 1409.92 1388.17 1410.71 1378.7 1414.92C1369.22 1419.13 1354.75 1421.76 1335.28 1422.81C1315.81 1423.87 1300.29 1423.08 1288.72 1420.45C1277.14 1417.82 1269.25 1414.92 1265.04 1411.76C1260.83 1408.61 1256.88 1406.5 1253.2 1405.45C1249.51 1404.4 1247.15 1404.92 1246.09 1407.03Z" fill="#40479b" fill-rule="evenodd" opacity="1" stroke="none"/>
<path d="M1239.78 1440.18C1238.73 1454.91 1240.04 1463.6 1243.73 1466.23C1247.41 1468.86 1259.51 1472.8 1280.03 1478.07C1300.55 1483.33 1317.92 1486.48 1332.13 1487.54C1346.33 1488.59 1357.38 1488.85 1365.28 1488.33C1373.17 1487.8 1381.33 1486.22 1389.75 1483.59C1398.16 1480.96 1402.9 1470.17 1403.95 1451.23C1404.48 1441.76 1405.01 1432.29 1405.53 1422.81C1397.11 1425.45 1388.69 1428.08 1380.27 1430.71C1363.44 1435.97 1348.97 1438.6 1336.86 1438.6C1324.76 1438.6 1310.03 1437.02 1292.66 1433.87C1275.3 1430.71 1262.41 1427.29 1253.99 1423.6C1249.78 1421.76 1245.57 1419.92 1241.36 1418.08C1240.83 1425.45 1240.31 1432.81 1239.78 1440.18Z" fill="#242d68" fill-rule="evenodd" opacity="1" stroke="none"/>
<path d="M1235.83 1539.63C1235.57 1561.73 1241.88 1578.64 1254.78 1590.34C1267.67 1602.05 1287.14 1608.56 1313.18 1609.88C1339.23 1611.19 1360.08 1612.18 1375.74 1612.84C1391.39 1613.5 1401.85 1613.82 1407.11 1613.82C1412.37 1613.82 1416.84 1613.56 1420.53 1613.04C1424.21 1612.51 1427.11 1611.72 1429.21 1610.67C1431.32 1609.61 1432.96 1608.37 1434.14 1606.92C1435.33 1605.47 1436.05 1603.83 1436.31 1601.99C1436.58 1600.14 1436.45 1597.78 1435.92 1594.88C1435.39 1591.99 1434.47 1588.57 1433.16 1584.62C1431.84 1580.67 1430.13 1576.92 1428.03 1573.37C1425.92 1569.82 1423.42 1566.47 1420.53 1563.31C1417.63 1560.15 1414.94 1558.05 1412.44 1557C1409.94 1555.94 1407.64 1555.94 1405.53 1557C1403.43 1558.05 1401.65 1558.77 1400.2 1559.17C1398.76 1559.56 1397.64 1559.63 1396.85 1559.36C1396.06 1559.1 1395.47 1558.71 1395.07 1558.18C1394.68 1557.65 1394.48 1557 1394.48 1556.21C1394.48 1555.42 1394.88 1554.56 1395.67 1553.64C1396.45 1552.72 1397.64 1551.73 1399.22 1550.68L1401.58 1549.1L1403.95 1547.52L1399.61 1543.18L1395.27 1538.84C1392.38 1535.95 1388.04 1533.65 1382.25 1531.94C1376.46 1530.22 1369.22 1529.11 1360.54 1528.58C1351.86 1528.05 1343.64 1528.25 1335.88 1529.17C1328.11 1530.09 1320.81 1531.74 1313.97 1534.11L1303.71 1537.66L1293.45 1541.21L1293.85 1539.24L1294.24 1537.26C1294.5 1535.95 1295.95 1534.43 1298.58 1532.72C1301.21 1531.01 1305.03 1529.11 1310.03 1527C1315.03 1524.9 1321.14 1523.38 1328.38 1522.46C1335.61 1521.54 1343.97 1521.21 1353.44 1521.48L1367.65 1521.87L1381.85 1522.27L1381.85 1517.53L1381.85 1512.79C1381.85 1509.64 1382.25 1506.74 1383.04 1504.11C1383.83 1501.48 1385.01 1499.11 1386.59 1497.01L1388.96 1493.85L1391.32 1490.69L1385.01 1492.27L1378.7 1493.85C1374.49 1494.9 1369.03 1495.56 1362.32 1495.82C1355.61 1496.09 1347.65 1495.96 1338.44 1495.43C1329.23 1494.9 1320.48 1494.11 1312.2 1493.06C1303.91 1492.01 1296.08 1490.69 1288.72 1489.12C1281.35 1487.54 1274.57 1485.89 1268.39 1484.18C1262.21 1482.47 1256.62 1480.7 1251.62 1478.85L1244.12 1476.09L1236.62 1473.33L1236.23 1506.48L1235.83 1539.63Z" fill="#40479b" fill-rule="evenodd" opacity="1" stroke="none"/>
<path d="M987.204 1508.85C987.731 1518.06 988.257 1527.27 988.783 1536.47C993.256 1533.84 997.728 1531.21 1002.2 1528.58C1011.15 1523.32 1019.57 1519.9 1027.46 1518.32C1035.35 1516.74 1044.03 1515.95 1053.51 1515.95C1062.98 1515.95 1071.4 1517.53 1078.76 1520.69C1086.13 1523.84 1094.29 1530.69 1103.23 1541.21C1107.7 1546.47 1112.18 1551.73 1116.65 1557C1117.18 1551.73 1117.7 1546.47 1118.23 1541.21C1119.28 1530.69 1121.65 1521.21 1125.33 1512.79C1127.17 1508.59 1129.01 1504.38 1130.86 1500.17C1126.65 1501.22 1122.44 1502.27 1118.23 1503.32C1109.81 1505.43 1100.6 1506.48 1090.6 1506.48C1080.6 1506.48 1064.56 1504.11 1042.46 1499.38C1020.35 1494.64 1005.36 1490.43 997.465 1486.75C993.519 1484.91 989.572 1483.06 985.626 1481.22C986.152 1490.43 986.678 1499.64 987.204 1508.85Z" fill="#40479b" fill-rule="evenodd" opacity="1" stroke="none"/>
<path d="M1026.67 1526.21C1019.3 1527.79 1010.62 1532 1000.62 1538.84C990.625 1545.68 983.258 1554.89 978.522 1566.47C973.786 1578.04 971.155 1589.62 970.629 1601.2C970.103 1612.77 971.155 1619.35 973.786 1620.93C976.417 1622.51 990.625 1624.87 1016.41 1628.03C1042.19 1631.19 1062.71 1631.98 1077.97 1630.4C1093.23 1628.82 1102.18 1626.72 1104.81 1624.09C1107.44 1621.45 1109.28 1618.3 1110.33 1614.61C1111.39 1610.93 1112.18 1602.25 1112.7 1588.57C1113.23 1574.89 1112.7 1566.47 1111.12 1563.31C1109.55 1560.15 1104.55 1553.84 1096.13 1544.37C1087.71 1534.89 1081.92 1529.37 1078.76 1527.79C1075.61 1526.21 1067.98 1525.16 1055.87 1524.63C1043.77 1524.11 1034.04 1524.63 1026.67 1526.21Z" fill="#40479b" fill-rule="evenodd" opacity="1" stroke="none"/>
<path d="M1400.9 571.865C1400.9 571.865 1405.79 572.462 1409.83 572.786C1412.41 572.994 1414.45 572.835 1415.26 573.174C1417.33 574.042 1399.56 572.201 1400.9 571.865Z" fill="none" fill-rule="evenodd" opacity="1" stroke="#000000" stroke-linecap="square" stroke-linejoin="round" stroke-width="8"/>
<path d="M1692.17 1221.61C1690.56 1222.99 1688.95 1224.37 1687.34 1225.76" fill="#6b77b9" fill-rule="evenodd" opacity="1" stroke="none"/>
</g>
</svg>
